<svg width="14" height="8" viewBox="0 0 14 8" fill="none" xmlns="http://www.w3.org/2000/svg">
<path d="M1 3.50021C0.723858 3.50021 0.5 3.72407 0.5 4.00021C0.5 4.27636 0.723858 4.50021 1 4.50021L1 3.50021ZM13.3536 4.35377C13.5488 4.1585 13.5488 3.84192 13.3536 3.64666L10.1716 0.46468C9.97631 0.269418 9.65973 0.269418 9.46447 0.46468C9.2692 0.659942 9.2692 0.976524 9.46447 1.17179L12.2929 4.00021L9.46447 6.82864C9.2692 7.0239 9.2692 7.34049 9.46447 7.53575C9.65973 7.73101 9.97631 7.73101 10.1716 7.53575L13.3536 4.35377ZM1 4.50021L13 4.50021V3.50021L1 3.50021L1 4.50021Z" fill="#0170A9"/>
</svg>
