<?xml version="1.0" encoding="utf-8"?>
<!-- Generator: Adobe Illustrator 26.1.0, SVG Export Plug-In . SVG Version: 6.00 Build 0)  -->
<svg version="1.1" id="Слой_1" xmlns="http://www.w3.org/2000/svg" xmlns:xlink="http://www.w3.org/1999/xlink" x="0px" y="0px"
	 viewBox="0 0 36.4 36.6" style="enable-background:new 0 0 36.4 36.6;" xml:space="preserve">
<style type="text/css">
	.st0{fill:#F1F1F1;}
	.st1{fill:#FFFFFF;}
</style>
<ellipse class="st0" cx="18.2" cy="18.3" rx="17.7" ry="18"/>
<path class="st1" d="M28.7,10.9c-2,0.3-3.4,1.2-4.4,2.5c-1,1.3-1.5,2.9-1.6,4.8c0.2,0,0.4-0.1,0.7-0.2c0.3,0,0.5-0.1,0.8-0.1
	c1.2,0,2.2,0.4,2.9,1.2c0.7,0.8,1,1.8,1,2.9c0,1.3-0.4,2.4-1.2,3.2c-0.8,0.8-1.8,1.2-3.1,1.2c-1.3,0-2.4-0.5-3.2-1.4
	c-0.9-0.9-1.3-2.3-1.3-4.1c0-2.8,0.4-5.1,1.2-6.9c0.7-1.8,1.8-3.2,3.2-4.1c1.4-0.9,3-1.4,4.9-1.6V10.9z M16.4,10.9
	c-2,0.3-3.4,1.2-4.4,2.5c-1,1.3-1.5,2.9-1.6,4.8c0.2,0,0.4-0.1,0.7-0.2c0.2,0,0.5-0.1,0.8-0.1c1.2,0,2.2,0.4,2.9,1.2
	c0.7,0.8,1,1.8,1,2.9c0,1.3-0.4,2.4-1.2,3.2c-0.8,0.8-1.9,1.2-3.1,1.2S9.3,26,8.4,25.1c-0.9-0.9-1.3-2.3-1.3-4.1
	c0-2.8,0.4-5.1,1.2-6.9c0.7-1.8,1.8-3.2,3.2-4.1c1.4-0.9,3.1-1.4,4.9-1.6V10.9z"/>
</svg>
