<svg width="34" height="34" viewBox="0 0 34 34" fill="none" xmlns="http://www.w3.org/2000/svg">
<path d="M26.4781 15.2707C26.4531 14.8903 26.428 14.5099 26.4052 14.1295C26.3688 13.5509 26.3278 12.9746 26.182 12.4097C25.8585 11.1614 25.1228 10.3345 23.8221 10.1113C23.3073 10.0225 22.7788 10.0042 22.2572 9.98601C20.551 9.92678 18.8426 9.83339 17.1364 9.84934C15.0294 9.86756 12.9223 9.97006 10.8153 10.0566C10.1843 10.084 9.56924 10.2206 9.0271 10.5783C8.36423 11.0133 8.01799 11.6534 7.82664 12.3983C7.59202 13.3209 7.58746 14.2685 7.55785 15.2092C7.49862 17.0703 7.49407 18.9336 7.68086 20.7901C7.75603 21.535 7.94509 22.2616 8.42117 22.8698C8.89042 23.4666 9.51229 23.8471 10.2663 23.9199C11.2526 24.0156 12.2458 24.084 13.2367 24.1022C15.2276 24.1409 17.2184 24.1637 19.2093 24.1432C20.6194 24.1272 22.0317 24.0452 23.4394 23.961C24.3483 23.9063 25.1182 23.535 25.6717 22.7878C25.9975 22.3482 26.1729 21.8357 26.2435 21.3026C26.3369 20.5965 26.3756 19.8812 26.4394 19.1705C26.4531 19.0179 26.4645 18.8653 26.4758 18.7127V15.2707H26.4781ZM17.4166 23.0999C15.6717 23.0589 14.346 23.0361 13.0225 22.9906C12.2162 22.9632 11.4075 22.9245 10.6034 22.8516C9.82892 22.7833 9.27083 22.4006 9.00432 21.6307C8.81525 21.0794 8.75375 20.5145 8.72186 19.9427C8.61024 17.9837 8.60113 16.0225 8.72641 14.0635C8.7583 13.5623 8.84031 13.0612 8.94281 12.5692C9.00887 12.2457 9.14555 11.9382 9.3984 11.699C9.72869 11.3846 10.1342 11.2502 10.5692 11.2092C11.2184 11.1455 11.8699 11.0908 12.5237 11.0657C15.5055 10.9473 18.4895 10.9177 21.4736 11.0589C22.1866 11.0931 22.9041 11.125 23.6125 11.2092C24.2663 11.2867 24.7264 11.6489 24.9701 12.2844C25.2025 12.8881 25.2594 13.5168 25.2959 14.15C25.3938 15.8334 25.4007 17.5145 25.3278 19.1979C25.2936 19.9541 25.3004 20.7172 25.0795 21.453C24.9633 21.8402 24.813 22.2024 24.4713 22.4621C24.0681 22.7696 23.6011 22.8676 23.1182 22.8881C21.0795 22.9723 19.0408 23.0452 17.4189 23.1045L17.4166 23.0999Z" fill="white"/>
<path d="M14.8226 16.9954C14.8226 17.7221 14.8226 18.451 14.8226 19.1777C14.8226 19.8907 15.4148 20.2415 16.0435 19.8975C17.3852 19.1663 18.7246 18.4328 20.0618 17.6948C20.5743 17.4123 20.6973 16.861 20.3351 16.4624C20.2577 16.3781 20.1552 16.3098 20.0549 16.2551C18.7155 15.533 17.3761 14.8109 16.0344 14.0934C15.4035 13.7563 14.8226 14.1093 14.8203 14.8269C14.8203 15.549 14.8203 16.2711 14.8203 16.9909L14.8226 16.9954ZM15.9365 15.303L19.0595 16.9818C18.0071 17.5581 16.9798 18.1184 15.9365 18.6902V15.3007V15.303Z" fill="white"/>
<path d="M17.0001 1.34157C25.648 1.34157 32.6584 8.35204 32.6584 16.9999C32.6584 25.6477 25.648 32.6582 17.0001 32.6582C8.35226 32.6582 1.3418 25.6477 1.3418 16.9999C1.3418 8.35204 8.35226 1.34157 17.0001 1.34157Z" stroke="white" stroke-miterlimit="10"/>
</svg>
