<svg width="33" height="32" viewBox="0 0 33 32" fill="none" xmlns="http://www.w3.org/2000/svg">
<path d="M14.5688 16.7517C14.4635 16.7517 14.3834 16.7517 14.3055 16.7517C13.6598 16.7517 13.0141 16.7517 12.3706 16.7517C11.947 16.7517 11.8348 16.6484 11.8325 16.2504C11.828 15.395 11.828 14.5419 11.8325 13.6865C11.8348 13.2864 11.9493 13.1852 12.3683 13.183C13.0141 13.183 13.6598 13.183 14.3032 13.183C14.3834 13.183 14.4635 13.183 14.5688 13.183C14.5688 13.0797 14.5688 12.9961 14.5688 12.9126C14.5849 12.1012 14.5528 11.2854 14.6261 10.4785C14.807 8.44674 16.4281 6.97792 18.5531 6.89876C19.4415 6.86578 20.3322 6.88557 21.2229 6.88777C21.5183 6.88777 21.6466 7.00871 21.6488 7.29235C21.6534 8.1389 21.6534 8.98765 21.6488 9.8342C21.6488 10.1244 21.5252 10.2388 21.2046 10.2454C20.6047 10.2586 20.0025 10.2608 19.4026 10.2696C18.7042 10.2806 18.4294 10.5334 18.4157 11.2019C18.4042 11.8351 18.4134 12.4684 18.4134 13.1258C18.505 13.1302 18.5828 13.1368 18.6607 13.1368C19.4323 13.1368 20.204 13.1368 20.9756 13.1368C21.4519 13.1368 21.5641 13.2468 21.5641 13.7063C21.5641 14.5463 21.5641 15.3884 21.5641 16.2284C21.5641 16.6242 21.4634 16.7231 21.0535 16.7253C20.2681 16.7275 19.4804 16.7253 18.695 16.7253C18.6149 16.7253 18.5324 16.7253 18.418 16.7253C18.418 16.8287 18.418 16.9188 18.418 17.009C18.418 19.2452 18.418 21.4814 18.418 23.7198C18.418 24.2937 18.3378 24.3706 17.7379 24.3706C16.8998 24.3706 16.0618 24.3706 15.2237 24.3706C14.6604 24.3706 14.5757 24.2893 14.5757 23.7572C14.5757 21.5144 14.5757 19.2694 14.5757 17.0266V16.7517H14.5688Z" fill="white"/>
<path d="M16.74 30.7378C25.4329 30.7378 32.48 23.9707 32.48 15.623C32.48 7.27539 25.4329 0.508301 16.74 0.508301C8.04703 0.508301 1 7.27539 1 15.623C1 23.9707 8.04703 30.7378 16.74 30.7378Z" stroke="white" stroke-miterlimit="10"/>
</svg>
