<svg width="34" height="33" viewBox="0 0 34 33" fill="none" xmlns="http://www.w3.org/2000/svg">
<path d="M6.7334 15.2297C6.81609 14.8894 7.05943 14.7124 7.38309 14.5899C13.0957 12.412 18.8083 10.2273 24.5209 8.04479C24.5965 8.0153 24.6697 7.98354 24.7453 7.96085C25.3147 7.78616 25.8415 8.23082 25.7305 8.79572C25.0855 12.049 24.4382 15.3023 23.7932 18.5556C23.4648 20.2049 23.1364 21.8565 22.8151 23.5058C22.7537 23.8144 22.6356 24.0753 22.3095 24.2C22.0213 24.3089 21.7661 24.225 21.5228 24.0662C20.0604 23.1111 18.5956 22.1582 17.1309 21.2054C16.934 21.0768 16.7379 21.0806 16.5426 21.2167C15.8197 21.7158 15.0967 22.2172 14.3738 22.7141C13.8092 23.102 13.254 22.916 13.0791 22.2762C12.6728 20.8016 12.2664 19.3292 11.8648 17.8523C11.8317 17.7343 11.7727 17.6776 11.6593 17.6345C10.2323 17.115 8.81006 16.5864 7.38073 16.0691C7.05706 15.9511 6.82554 15.7696 6.73576 15.4429V15.2297H6.7334ZM15.5149 18.4058C17.5183 19.7103 19.5052 21.0057 21.5157 22.3125C22.2812 18.4535 23.0419 14.6262 23.8003 10.799L23.7648 10.7831C21.0196 13.3195 18.2767 15.8536 15.5173 18.4058H15.5149ZM21.6622 10.7468L21.6291 10.706C17.6199 12.2373 13.6083 13.7709 9.5637 15.3159C9.64403 15.3477 9.68419 15.3635 9.72436 15.3794C10.6883 15.7333 11.6498 16.0918 12.6161 16.4412C12.9327 16.5546 13.124 16.7542 13.202 17.0741C13.2989 17.4666 13.4146 17.8546 13.5257 18.2448C13.5351 18.2788 13.554 18.3106 13.5564 18.3128C13.6721 18.1699 13.7737 18.0134 13.9084 17.8886C16.4245 15.5564 18.9453 13.231 21.4661 10.9033C21.5275 10.8466 21.596 10.8012 21.6622 10.7491V10.7468ZM15.5078 20.1505L13.7288 18.9866L14.2817 20.9967L15.5078 20.1505Z" fill="white"/>
<path d="M17.24 31.6824C26.2091 31.6824 33.48 24.7004 33.48 16.0876C33.48 7.47474 26.2091 0.492676 17.24 0.492676C8.27089 0.492676 1 7.47474 1 16.0876C1 24.7004 8.27089 31.6824 17.24 31.6824Z" stroke="white" stroke-miterlimit="10"/>
</svg>
