<svg width="19" height="12" viewBox="0 0 19 12" fill="none" xmlns="http://www.w3.org/2000/svg">
<path d="M0.46967 5.46967C0.176777 5.76256 0.176777 6.23744 0.46967 6.53033L5.24264 11.3033C5.53554 11.5962 6.01041 11.5962 6.3033 11.3033C6.5962 11.0104 6.5962 10.5355 6.3033 10.2426L2.06066 6L6.3033 1.75736C6.59619 1.46446 6.59619 0.989591 6.3033 0.696698C6.01041 0.403805 5.53553 0.403805 5.24264 0.696698L0.46967 5.46967ZM2 5.25L1 5.25L1 6.75L2 6.75L2 5.25Z" fill="white"/>
<path d="M18.0303 6.53033C18.3232 6.23744 18.3232 5.76256 18.0303 5.46967L13.2574 0.6967C12.9645 0.403807 12.4896 0.403807 12.1967 0.696701C11.9038 0.989594 11.9038 1.46447 12.1967 1.75736L16.4393 6L12.1967 10.2426C11.9038 10.5355 11.9038 11.0104 12.1967 11.3033C12.4896 11.5962 12.9645 11.5962 13.2574 11.3033L18.0303 6.53033ZM17 6.75L17.5 6.75L17.5 5.25L17 5.25L17 6.75Z" fill="white"/>
</svg>
