<svg width="35" height="33" viewBox="0 0 35 33" fill="none" xmlns="http://www.w3.org/2000/svg">
<path d="M24.1152 8.9082C23.3157 9.80316 22.5138 10.7004 21.7143 11.5954C20.7279 12.697 19.7415 13.7964 18.7551 14.8981C18.7267 14.9299 18.6984 14.9617 18.6605 15.0071C20.6333 17.7647 22.6061 20.52 24.5907 23.2934C24.5363 23.298 24.5008 23.3025 24.4653 23.3025C23.0933 23.3025 21.7238 23.3025 20.3518 23.3048C20.2548 23.3048 20.2051 23.273 20.1531 23.198C18.8829 21.4172 17.6079 19.6386 16.3353 17.8601C16.3022 17.8146 16.2691 17.7692 16.2288 17.7147C15.8551 18.1304 15.4932 18.5347 15.1313 18.939C13.8563 20.3632 12.5813 21.7875 11.3016 23.2094C11.2591 23.2571 11.1739 23.2957 11.1077 23.298C10.7268 23.3071 10.3484 23.3025 9.92969 23.3025C11.8481 21.1605 13.7475 19.039 15.6517 16.9151C15.6233 16.8743 15.5996 16.8356 15.5713 16.797C13.7309 14.2234 11.8883 11.6499 10.048 9.07402C10.0101 9.01951 9.977 8.96272 9.94151 8.9082C11.3963 8.9082 12.8486 8.9082 14.3034 8.9082C14.3152 8.92865 14.3247 8.95136 14.3389 8.96953C15.5665 10.6868 16.7966 12.404 18.0242 14.1212C18.0431 14.1462 18.0573 14.1757 18.0763 14.2075C19.6753 12.4222 21.2507 10.6663 22.8237 8.9082H24.1129H24.1152ZM22.8166 22.4008C22.7716 22.3349 22.7409 22.2917 22.7101 22.2508C21.9201 21.1651 21.13 20.0793 20.34 18.9935C18.1567 15.9929 15.971 12.9946 13.7901 9.9917C13.7073 9.87812 13.6221 9.83724 13.4802 9.83951C12.9385 9.84859 12.3968 9.84178 11.8552 9.84405C11.8102 9.84405 11.7629 9.84859 11.7014 9.85314C11.7345 9.90311 11.7582 9.93945 11.7818 9.97352C14.7765 14.0872 17.7711 18.1985 20.7634 22.3144C20.8178 22.3894 20.8722 22.4167 20.9668 22.4167C21.5322 22.4121 22.0975 22.4167 22.6652 22.4144C22.7078 22.4144 22.7504 22.4098 22.8166 22.4053V22.4008Z" fill="white"/>
<path d="M17.26 31.7209C26.2402 31.7209 33.52 24.7302 33.52 16.1068C33.52 7.48335 26.2402 0.492676 17.26 0.492676C8.27986 0.492676 1 7.48335 1 16.1068C1 24.7302 8.27986 31.7209 17.26 31.7209Z" stroke="white" stroke-miterlimit="10"/>
</svg>
