<?xml version="1.0" encoding="utf-8"?>
<!-- Generator: Adobe Illustrator 19.0.0, SVG Export Plug-In . SVG Version: 6.00 Build 0)  -->
<svg version="1.1" id="Livello_1" xmlns="http://www.w3.org/2000/svg" xmlns:xlink="http://www.w3.org/1999/xlink" x="0px" y="0px"
	 viewBox="0 0 160 61" style="enable-background:new 0 0 160 61;" xml:space="preserve">
<style type="text/css">
	.st0{fill:#1E1E1C;}
	.st1{fill:#59B031;}
	.st2{fill:url(#XMLID_13_);}
</style>
<path id="XMLID_24_" class="st0" d="M70.1,36.1c0,3.6-0.8,6.3-2.5,8c-1.7,1.8-4.2,2.6-7.4,2.6c-1.5,0-2.9-0.2-4.1-0.7
	c-1.2-0.4-2.3-1.1-3.1-2c-0.9-0.9-1.5-2-2-3.3c-0.5-1.3-0.7-2.9-0.7-4.7c0-3.6,0.8-6.3,2.5-8c1.7-1.8,4.2-2.6,7.4-2.6
	c1.5,0,2.9,0.2,4.1,0.7c1.2,0.4,2.2,1.1,3.1,2c0.9,0.9,1.5,2,2,3.3C69.9,32.8,70.1,34.3,70.1,36.1 M56.2,36.1c0,1.4,0.1,2.5,0.2,3.6
	c0.1,1,0.4,1.9,0.7,2.6c0.3,0.7,0.7,1.2,1.2,1.6c0.5,0.4,1.1,0.5,1.9,0.5c0.7,0,1.4-0.2,1.9-0.5c0.5-0.4,0.9-0.9,1.2-1.6
	c0.3-0.7,0.5-1.6,0.7-2.6c0.1-1,0.2-2.2,0.2-3.6c0-1.4-0.1-2.6-0.2-3.6c-0.1-1-0.4-1.9-0.7-2.6c-0.3-0.7-0.7-1.2-1.2-1.5
	c-0.5-0.3-1.1-0.5-1.9-0.5c-0.7,0-1.4,0.2-1.9,0.5c-0.5,0.3-0.9,0.9-1.2,1.5c-0.3,0.7-0.5,1.5-0.7,2.6
	C56.3,33.6,56.2,34.8,56.2,36.1"/>
<path id="XMLID_9_" class="st0" d="M87.9,46.4V33.9c0-0.8-0.1-1.5-0.2-2.2c-0.1-0.6-0.3-1.2-0.5-1.6c-0.2-0.4-0.6-0.8-0.9-1
	c-0.4-0.2-0.9-0.3-1.4-0.3c-0.6,0-1.2,0.2-1.6,0.5c-0.4,0.3-0.8,0.8-1,1.3c-0.3,0.5-0.4,1.2-0.6,1.9c-0.1,0.7-0.2,1.5-0.2,2.2v7.3
	c0,0.5,0.1,1,0.2,1.3c0.1,0.3,0.3,0.6,0.5,0.8c0.2,0.2,0.5,0.3,0.9,0.4c0.3,0.1,0.7,0.1,1.1,0.1h0.1v2H72.6v-2h0.1
	c0.4,0,0.8,0,1.2-0.1c0.4-0.1,0.7-0.2,0.9-0.4c0.3-0.2,0.5-0.5,0.6-0.8c0.1-0.3,0.2-0.8,0.2-1.4V30.5c0-0.5-0.1-1-0.2-1.3
	c-0.1-0.3-0.3-0.6-0.6-0.8c-0.2-0.2-0.5-0.3-0.9-0.4C73.7,28,73.4,28,72.9,28h-0.1v-2h8l0.5,2.7h0.2c0.4-0.7,0.8-1.3,1.2-1.7
	c0.4-0.4,0.9-0.7,1.4-1c0.5-0.2,1-0.4,1.5-0.4c0.5-0.1,1.1-0.1,1.7-0.1c1,0,1.9,0.1,2.6,0.4c0.8,0.3,1.4,0.7,2,1.3
	c0.5,0.6,1,1.4,1.2,2.3c0.3,0.9,0.4,2,0.4,3.3v8.8c0,0.6,0.1,1.1,0.2,1.4c0.1,0.4,0.3,0.6,0.5,0.8c0.2,0.2,0.5,0.3,0.8,0.4
	c0.3,0.1,0.7,0.1,1.1,0.1h0.1v2H87.9z"/>
<path id="XMLID_20_" class="st0" d="M109,46.8c-1.6,0-3-0.2-4.3-0.7c-1.2-0.5-2.3-1.2-3.1-2c-0.8-0.9-1.5-2-1.9-3.3
	c-0.4-1.3-0.6-2.8-0.6-4.4c0-1.8,0.2-3.4,0.6-4.7c0.4-1.4,1-2.5,1.8-3.4c0.8-0.9,1.8-1.6,3-2c1.2-0.5,2.5-0.7,4-0.7
	c1.4,0,2.6,0.2,3.7,0.6c1.1,0.4,2,1,2.8,1.7c0.8,0.8,1.4,1.7,1.8,2.9c0.4,1.1,0.6,2.5,0.6,4v2H105c0,1.3,0.2,2.4,0.4,3.3
	c0.2,0.9,0.6,1.7,1,2.3c0.4,0.6,1,1,1.6,1.3c0.6,0.3,1.3,0.4,2.1,0.4c0.7,0,1.3-0.1,1.8-0.2c0.6-0.2,1.1-0.4,1.5-0.7
	c0.5-0.3,0.9-0.6,1.2-1c0.3-0.4,0.6-0.8,0.8-1.2c0.7,0.4,1,1,1,1.9c0,0.5-0.1,1.1-0.4,1.6c-0.3,0.5-0.8,0.9-1.4,1.3
	c-0.6,0.4-1.4,0.7-2.3,0.9C111.4,46.7,110.3,46.8,109,46.8 M108.7,28c-1.1,0-1.9,0.5-2.5,1.6c-0.6,1.1-1,2.6-1,4.6h6.6
	c0-1-0.1-1.8-0.2-2.6c-0.1-0.8-0.3-1.4-0.5-2c-0.2-0.5-0.6-0.9-0.9-1.2C109.7,28.1,109.2,28,108.7,28"/>
<path id="XMLID_6_" class="st0" d="M141.2,26v2c-0.4,0-0.7,0-1,0.1c-0.3,0.1-0.6,0.2-0.8,0.5c-0.2,0.2-0.5,0.5-0.7,0.9
	c-0.2,0.4-0.4,0.8-0.6,1.3c-0.4,1.3-0.9,2.6-1.4,3.9c-0.5,1.3-1,2.6-1.5,4c-0.5,1.3-1,2.6-1.5,3.9c-0.5,1.3-1,2.6-1.4,3.9
	c-0.4,1.2-0.9,2.3-1.3,3.2c-0.4,0.9-0.8,1.7-1.3,2.4c-0.4,0.7-0.9,1.2-1.5,1.7c-0.5,0.4-1.2,0.8-1.9,1.1c-0.7,0.3-1.5,0.5-2.5,0.6
	c-0.9,0.1-2,0.2-3.3,0.2h-0.7v-2.2c1.3,0,2.5-0.2,3.4-0.5c0.9-0.3,1.7-0.8,2.4-1.4c0.6-0.6,1.2-1.3,1.6-2.1c0.4-0.8,0.8-1.8,1.1-2.8
	l-6.9-16.8c-0.1-0.4-0.3-0.6-0.5-0.9c-0.2-0.2-0.4-0.4-0.6-0.5c-0.2-0.1-0.4-0.2-0.7-0.2c-0.2,0-0.5,0-0.8,0V26H130v2
	c-0.7,0-1.3,0.1-1.8,0.3c-0.4,0.2-0.6,0.6-0.6,1.1c0,0.2,0,0.5,0.1,0.8c0.1,0.3,0.2,0.5,0.2,0.7c0.2,0.5,0.5,1.1,0.7,1.7
	c0.2,0.6,0.5,1.3,0.7,1.9c0.2,0.6,0.5,1.2,0.7,1.8c0.2,0.6,0.4,1.1,0.6,1.5c0.2,0.5,0.3,0.9,0.5,1.3c0.1,0.4,0.2,0.7,0.3,1.1
	c0.1,0.3,0.1,0.6,0.2,0.9c0,0.3,0.1,0.5,0.1,0.8c0-0.3,0.1-0.5,0.1-0.9c0.1-0.3,0.2-0.6,0.2-0.9c0.1-0.3,0.2-0.6,0.3-0.8
	c0.1-0.2,0.1-0.4,0.2-0.5l2.5-7.5c0.1-0.1,0.1-0.3,0.1-0.4c0-0.2,0.1-0.3,0.1-0.5c0-0.2,0.1-0.3,0.1-0.5c0-0.2,0-0.3,0-0.4
	c0-0.6-0.2-1-0.7-1.2c-0.5-0.2-1.2-0.3-2-0.3v-2H141.2z"/>
<path id="XMLID_5_" class="st1" d="M140,45.3c0-0.3,0-0.5,0.1-0.7c0.1-0.2,0.2-0.3,0.3-0.5c0.1-0.1,0.3-0.2,0.5-0.2
	c0.2,0,0.4-0.1,0.6-0.1c0.2,0,0.4,0,0.6,0.1c0.2,0,0.3,0.1,0.5,0.2c0.1,0.1,0.3,0.3,0.3,0.5c0.1,0.2,0.1,0.4,0.1,0.7
	c0,0.3,0,0.5-0.1,0.7c-0.1,0.2-0.2,0.3-0.3,0.5c-0.1,0.1-0.3,0.2-0.5,0.3c-0.2,0.1-0.4,0.1-0.6,0.1c-0.2,0-0.4,0-0.6-0.1
	c-0.2-0.1-0.4-0.1-0.5-0.3c-0.1-0.1-0.2-0.3-0.3-0.5C140,45.8,140,45.6,140,45.3"/>
<path id="XMLID_15_" class="st1" d="M144.9,45.6c0.1,0,0.3,0,0.4,0c0.2,0,0.3-0.1,0.4-0.2c0.1-0.1,0.2-0.2,0.3-0.4
	c0.1-0.2,0.1-0.4,0.1-0.6v-5.7c0-0.3,0-0.5-0.1-0.6c-0.1-0.1-0.2-0.3-0.3-0.3c-0.1-0.1-0.3-0.1-0.4-0.2c-0.2,0-0.3,0-0.4,0h-0.2v-1
	h4.4v7.8c0,0.3,0,0.5,0.1,0.6c0.1,0.2,0.2,0.3,0.3,0.4c0.1,0.1,0.3,0.1,0.4,0.2c0.2,0,0.3,0,0.4,0h0.2v1h-5.9v-1H144.9z M145.9,33.6
	c0-0.2,0-0.4,0.1-0.6c0.1-0.2,0.2-0.3,0.3-0.4c0.1-0.1,0.3-0.2,0.5-0.2c0.2-0.1,0.4-0.1,0.6-0.1c0.2,0,0.4,0,0.6,0.1
	c0.2,0.1,0.4,0.1,0.5,0.2c0.1,0.1,0.3,0.2,0.4,0.4c0.1,0.2,0.1,0.4,0.1,0.6c0,0.2,0,0.4-0.1,0.6c-0.1,0.2-0.2,0.3-0.4,0.4
	c-0.1,0.1-0.3,0.2-0.5,0.2c-0.2,0.1-0.4,0.1-0.6,0.1c-0.2,0-0.4,0-0.6-0.1c-0.2-0.1-0.4-0.1-0.5-0.2c-0.1-0.1-0.3-0.2-0.3-0.4
	C146,34,145.9,33.8,145.9,33.6"/>
<path id="XMLID_2_" class="st1" d="M156.8,45.3c0.2,0,0.5,0,0.7-0.1c0.2,0,0.4-0.1,0.6-0.1v1.2c-0.1,0-0.2,0.1-0.4,0.2
	c-0.2,0.1-0.4,0.1-0.6,0.2c-0.2,0-0.5,0.1-0.8,0.1c-0.3,0-0.6,0-0.9,0c-0.4,0-0.8-0.1-1.1-0.2c-0.3-0.1-0.6-0.3-0.9-0.5
	c-0.2-0.2-0.4-0.5-0.5-0.9c-0.1-0.4-0.2-0.8-0.2-1.4v-6h-1.4v-1c0.4,0,0.8-0.1,1.1-0.2c0.3-0.2,0.6-0.3,0.8-0.5
	c0.4-0.4,0.7-1,0.9-1.9h1.6v2.3h2.4v1.3h-2.4v5.8c0,0.6,0.1,1,0.3,1.2C156,45.2,156.4,45.3,156.8,45.3"/>
<linearGradient id="XMLID_13_" gradientUnits="userSpaceOnUse" x1="3.3738" y1="-16353.082" x2="48.2137" y2="-16353.082" gradientTransform="matrix(1 0 0 -1 0 -16322)">
	<stop  offset="0" style="stop-color:#088937"/>
	<stop  offset="1" style="stop-color:#50AF44"/>
</linearGradient>
<path id="XMLID_1_" class="st2" d="M38.4,46.6v-2.3h0.5c0.4,0,0.7,0,1-0.1c0.3,0,0.5-0.1,0.7-0.3c0.2-0.1,0.3-0.3,0.4-0.6
	c0.1-0.3,0.1-0.6,0.1-1.1V23.8l-7.5,22.8h-2.8l-7.8-22.8v18.2c0,0.5,0.1,0.9,0.2,1.3c0.1,0.3,0.3,0.5,0.5,0.7
	c0.2,0.2,0.5,0.3,0.8,0.3c0.3,0.1,0.7,0.1,1.2,0.1h0.4v2.3h-9.7v-2.3h1.7c0.3,0,0.5,0,0.7-0.1c0.2,0,0.4-0.1,0.6-0.3
	c0.2-0.1,0.3-0.4,0.4-0.6c0.1-0.3,0.1-0.7,0.1-1.2V23.5c0-0.5,0-0.9-0.1-1.2c-0.1-0.3-0.2-0.5-0.4-0.6c-0.2-0.1-0.4-0.2-0.6-0.3
	c-0.2-0.1-0.5-0.1-0.7-0.1h-1.7v-2.3h11.2l6.2,18.2l6-18.2h9C44.6,11.1,36.2,5.7,26.6,5.7c-14,0-25.3,11.3-25.3,25.3
	c0,14,11.3,25.3,25.3,25.3c8.2,0,15.4-3.9,20-9.9H38.4z"/>
</svg>
