<svg width="32" height="31" viewBox="0 0 32 31" fill="none" xmlns="http://www.w3.org/2000/svg">
<path d="M21.2065 12.1342C20.915 12.1384 20.7283 11.8244 20.8715 11.4804C21.188 10.7195 21.513 9.96179 21.8346 9.20331L23.1745 6.0356C23.2002 5.96428 23.2327 5.89557 23.2716 5.8304C23.4031 5.63018 23.5874 5.55209 23.8126 5.65594C24.0379 5.75978 24.1233 5.94006 24.0421 6.17101C23.9533 6.42024 23.8411 6.66199 23.7381 6.90624C23.0542 8.52069 22.3716 10.1349 21.6905 11.7488C21.6068 11.9556 21.4946 12.1185 21.2065 12.1342Z" fill="#4BA0DF"/>
<path d="M18.966 6.93614C18.97 6.67154 19.0528 6.41403 19.204 6.19603C19.3552 5.97803 19.5681 5.80928 19.8158 5.71105C20.0635 5.61281 20.3349 5.58948 20.5959 5.64399C20.857 5.6985 21.0959 5.82841 21.2827 6.01736C21.4694 6.20631 21.5956 6.44586 21.6454 6.70583C21.6952 6.96581 21.6663 7.23458 21.5625 7.47831C21.4586 7.72204 21.2843 7.92982 21.0616 8.07549C20.8389 8.22117 20.5777 8.29821 20.311 8.29693C20.1322 8.29652 19.9553 8.26084 19.7906 8.19197C19.6258 8.12311 19.4765 8.02243 19.3514 7.8958C19.2262 7.76917 19.1277 7.61912 19.0615 7.45436C18.9954 7.28961 18.9629 7.11345 18.966 6.93614ZM20.8084 6.95275C20.8093 6.82364 20.7585 6.69946 20.6671 6.60754C20.5757 6.51562 20.4512 6.46348 20.321 6.4626C20.1909 6.46172 20.0657 6.51216 19.973 6.60284C19.8804 6.69351 19.8278 6.81699 19.8269 6.9461C19.826 7.07522 19.8769 7.1994 19.9683 7.29132C20.0597 7.38324 20.1842 7.43538 20.3143 7.43626C20.4445 7.43714 20.5697 7.38669 20.6623 7.29602C20.755 7.20534 20.8075 7.08187 20.8084 6.95275Z" fill="#4BA0DF"/>
<path d="M25.9159 10.7768C25.9169 11.0425 25.8383 11.3026 25.6901 11.524C25.5419 11.7453 25.3308 11.9181 25.0835 12.0203C24.8362 12.1225 24.5639 12.1495 24.3011 12.098C24.0383 12.0464 23.7969 11.9186 23.6074 11.7308C23.4179 11.5429 23.2889 11.3035 23.2368 11.0428C23.1847 10.7821 23.2118 10.512 23.3146 10.2666C23.4175 10.0212 23.5915 9.81166 23.8145 9.66451C24.0376 9.51737 24.2997 9.43925 24.5676 9.44007C24.9245 9.44182 25.2663 9.58318 25.5188 9.83346C25.7712 10.0837 25.9139 10.4227 25.9159 10.7768ZM24.5668 11.2802C24.6983 11.2815 24.8249 11.231 24.9188 11.1397C25.0127 11.0484 25.0662 10.9238 25.0676 10.7934C25.0689 10.6629 25.0179 10.5373 24.9259 10.4442C24.8339 10.351 24.7083 10.2979 24.5768 10.2966C24.5117 10.2959 24.4471 10.308 24.3867 10.3321C24.3263 10.3562 24.2713 10.3919 24.2248 10.4371C24.1783 10.4823 24.1412 10.5362 24.1157 10.5956C24.0902 10.655 24.0767 10.7188 24.076 10.7834C24.0754 10.848 24.0875 10.9121 24.1118 10.972C24.1361 11.0319 24.1721 11.0865 24.2177 11.1326C24.2632 11.1788 24.3175 11.2155 24.3774 11.2409C24.4373 11.2662 24.5017 11.2796 24.5668 11.2802Z" fill="#4BA0DF"/>
<path d="M17.4376 31C14.747 31.0018 12.1088 30.2627 9.81672 28.865C9.69659 28.7906 9.611 28.6721 9.57864 28.5354C9.54628 28.3987 9.56978 28.2548 9.64401 28.1352C9.71823 28.0155 9.83715 27.9299 9.9748 27.897C10.1124 27.8641 10.2576 27.8865 10.3787 27.9594C12.5478 29.2821 15.0502 29.9685 17.5962 29.9391C20.1422 29.9097 22.6278 29.1657 24.7653 27.7933C24.8244 27.7551 24.8905 27.7289 24.9599 27.716C25.0292 27.7032 25.1004 27.704 25.1694 27.7185C25.2385 27.7329 25.3039 27.7608 25.3621 27.8003C25.4203 27.8399 25.47 27.8904 25.5085 27.9491C25.547 28.0077 25.5735 28.0733 25.5864 28.1421C25.5994 28.2109 25.5985 28.2815 25.584 28.35C25.5694 28.4184 25.5413 28.4834 25.5015 28.5411C25.4616 28.5988 25.4106 28.6482 25.3515 28.6864C22.9968 30.2006 20.2496 31.0043 17.4434 31H17.4376Z" fill="#3F3F3F"/>
<path d="M27.4584 26.8222C27.3531 26.822 27.2502 26.7911 27.1625 26.7333C27.0748 26.6754 27.0063 26.5933 26.9654 26.4971C26.9244 26.4008 26.913 26.2948 26.9325 26.1922C26.9519 26.0895 27.0014 25.9948 27.0748 25.9199C29.5513 23.4231 30.9355 20.0583 30.9271 16.5556C30.9271 9.1767 24.8748 3.17276 17.4365 3.17276C15.9378 3.17119 14.4493 3.41771 13.0324 3.90218C12.898 3.94822 12.7507 3.93943 12.6228 3.87774C12.495 3.81604 12.3971 3.70649 12.3507 3.57319C12.3042 3.43989 12.3131 3.29376 12.3753 3.16694C12.4375 3.04012 12.5479 2.943 12.6823 2.89695C14.2118 2.37377 15.8187 2.10759 17.4365 2.10938C25.4661 2.10938 31.999 8.58935 31.999 16.5556C32.0079 20.3368 30.5136 23.969 27.8402 26.6643C27.7904 26.7145 27.7309 26.7543 27.6653 26.7814C27.5998 26.8085 27.5294 26.8223 27.4584 26.8222Z" fill="#3F3F3F"/>
<path d="M3.00969 18.5319C2.6862 16.1955 2.94331 13.816 3.75864 11.6007C4.57397 9.38535 5.9228 7.40129 7.68771 5.82123L8.40625 6.61129C6.77125 8.07526 5.5217 9.91345 4.76637 11.9659C4.01104 14.0183 3.77281 16.2228 4.07242 18.3874L3.00969 18.5319Z" fill="#3F3F3F"/>
<path d="M29.886 23.4999C29.7982 23.4993 29.7119 23.4773 29.6347 23.4359L17.1826 16.7815L16.9004 16.313V2.63857C16.9059 2.50108 16.9648 2.37104 17.0648 2.27568C17.1648 2.18033 17.2981 2.12708 17.4368 2.12708C17.5755 2.12708 17.7088 2.18033 17.8088 2.27568C17.9088 2.37104 17.9677 2.50108 17.9732 2.63857V15.9973L30.1406 22.4997C30.2439 22.5564 30.3255 22.6454 30.3727 22.7529C30.4198 22.8603 30.4298 22.9802 30.4012 23.0939C30.3725 23.2076 30.3068 23.3087 30.2142 23.3815C30.1217 23.4544 30.0074 23.4948 29.8893 23.4966L29.886 23.4999Z" fill="#3F3F3F"/>
<path d="M30.7034 11.9654L17.2891 15.8038L17.5864 16.8264L31.0007 12.988L30.7034 11.9654Z" fill="#3F3F3F"/>
<path d="M12.198 13.4776H8.2519C8.10975 13.4776 7.97343 13.4215 7.87291 13.3218C7.7724 13.2221 7.71593 13.0869 7.71593 12.9459V5.62848L6.5234 5.61519C6.42187 5.61396 6.32278 5.58419 6.23762 5.52933C6.15247 5.47448 6.08474 5.39679 6.0423 5.30529C5.99986 5.21378 5.98446 5.11222 5.99787 5.01237C6.01128 4.91253 6.05296 4.81851 6.11807 4.74123L9.96031 0.190295C10.0127 0.128154 10.0787 0.0787028 10.1532 0.0457179C10.2278 0.012733 10.309 -0.00291398 10.3906 -2.87522e-05C10.4722 0.00285647 10.5521 0.0241977 10.6241 0.0623658C10.6961 0.100534 10.7584 0.15452 10.8061 0.220203L14.0965 4.73957C14.1543 4.81904 14.1889 4.91279 14.1964 5.0105C14.2039 5.10821 14.1841 5.20608 14.1392 5.29335C14.0943 5.38062 14.0259 5.45389 13.9417 5.50511C13.8575 5.55632 13.7606 5.58349 13.6619 5.58362H12.5941L12.734 12.9359C12.7353 13.0066 12.7224 13.0768 12.6961 13.1424C12.6697 13.2081 12.6305 13.2679 12.5806 13.3183C12.5307 13.3688 12.4711 13.4088 12.4054 13.4361C12.3398 13.4635 12.2692 13.4776 12.198 13.4776ZM8.78787 12.4133H11.652L11.5113 5.06107C11.5102 4.9904 11.5232 4.92022 11.5497 4.85461C11.5762 4.78899 11.6155 4.72925 11.6655 4.67885C11.7154 4.62845 11.775 4.5884 11.8406 4.56103C11.9063 4.53366 11.9768 4.51951 12.0481 4.51941H12.6134L10.3405 1.3974L7.66736 4.56344L8.25358 4.57009C8.39471 4.57162 8.52953 4.62831 8.62878 4.72786C8.72803 4.8274 8.7837 4.96177 8.78369 5.10178L8.78787 12.4133Z" fill="#4BA0DF"/>
<path d="M6.28845 29.9533C5.04472 29.9533 3.82891 29.5874 2.79478 28.902C1.76065 28.2165 0.954641 27.2422 0.478683 26.1023C0.00272471 24.9625 -0.121808 23.7082 0.120834 22.4981C0.363475 21.288 0.962392 20.1764 1.84185 19.304C2.7213 18.4316 3.8418 17.8374 5.06164 17.5967C6.28148 17.356 7.54588 17.4796 8.69494 17.9517C9.844 18.4239 10.8261 19.2234 11.5171 20.2493C12.2081 21.2752 12.5769 22.4813 12.5769 23.7151C12.5751 25.369 11.912 26.9547 10.7331 28.1242C9.55417 29.2937 7.95571 29.9515 6.28845 29.9533ZM6.28845 18.5411C5.25669 18.5411 4.2481 18.8446 3.39023 19.4133C2.53236 19.9819 1.86375 20.7902 1.46895 21.7358C1.07415 22.6814 0.970893 23.7219 1.17224 24.7258C1.37359 25.7296 1.8705 26.6517 2.60012 27.3754C3.32975 28.0991 4.25932 28.5918 5.27128 28.7914C6.28324 28.991 7.33213 28.8884 8.28531 28.4966C9.23848 28.1048 10.0531 27.4414 10.6262 26.5903C11.1993 25.7392 11.5051 24.7386 11.505 23.7151C11.5034 22.3432 10.9533 21.0279 9.97532 20.0579C8.99734 19.0879 7.6714 18.5424 6.28845 18.5411Z" fill="#4BA0DF"/>
<path d="M6.067 26.263C5.76217 26.1285 5.48079 26.0246 5.21364 25.8817C4.94649 25.7388 4.89457 25.4954 5.02354 25.2811C5.1525 25.0667 5.39955 25.0069 5.6466 25.1565C5.9476 25.3465 6.31173 25.4118 6.66076 25.3384C6.81628 25.3068 6.95707 25.2255 7.06158 25.107C7.1661 24.9885 7.22857 24.8392 7.23944 24.6821C7.2587 24.3938 7.12136 24.2169 6.78303 24.0731C6.41956 23.9323 6.06347 23.7735 5.71611 23.5971C5.4829 23.4812 5.29082 23.2975 5.16545 23.0706C5.04008 22.8437 4.98736 22.5843 5.01432 22.3269C5.05285 21.7711 5.3761 21.413 5.88444 21.1954C5.97944 21.1396 6.05017 21.0508 6.08292 20.9462C6.15159 20.7418 6.27051 20.6138 6.48824 20.608C6.72022 20.5989 6.88269 20.7194 6.91535 20.9403C6.91969 21.0136 6.94731 21.0836 6.99425 21.1403C7.04119 21.197 7.10504 21.2375 7.17663 21.256C7.33508 21.3211 7.48252 21.4099 7.61378 21.5194C7.82901 21.6897 7.85748 21.9256 7.71009 22.1209C7.5627 22.3161 7.32319 22.351 7.1021 22.1931C6.86761 22.027 6.62391 21.9148 6.3308 21.9647C6.11055 22.0029 5.92296 22.1009 5.87858 22.3377C5.85544 22.4413 5.86895 22.5496 5.91684 22.6444C5.96473 22.7393 6.04407 22.8149 6.14154 22.8586C6.41266 22.999 6.69235 23.1225 6.97899 23.2283C7.61462 23.4567 8.05261 23.8464 8.10035 24.5508C8.14557 25.2155 7.76536 25.7837 7.10796 26.106C7.06803 26.1297 7.0334 26.1612 7.00618 26.1987C6.97896 26.2361 6.95974 26.2786 6.94968 26.3237C6.89609 26.661 6.76963 26.8222 6.51169 26.8222C6.25376 26.8222 6.1139 26.6676 6.07873 26.3353C6.07674 26.311 6.07282 26.2868 6.067 26.263Z" fill="#4BA0DF"/>
</svg>
