<svg width="30" height="30" viewBox="0 0 30 30" fill="none" xmlns="http://www.w3.org/2000/svg">
<path d="M20.0977 13.8072C20.1871 13.6495 20.2299 13.4696 20.2211 13.2884C20.1917 12.9796 19.9253 12.8105 19.5528 12.8097H15.3101C15.3592 12.1561 15.4074 11.5294 15.4531 10.9012C15.5904 9.01229 15.7203 7.12177 15.869 5.2337C15.9 4.83745 15.8036 4.55069 15.4188 4.39709H15.1819C14.949 4.47226 14.8052 4.63647 14.6917 4.84644C13.2848 7.36659 11.878 9.88647 10.4711 12.4061C9.94604 13.3478 9.42071 14.2895 8.89511 15.2312C8.73171 15.5327 8.73743 15.7688 8.91799 15.9821C9.06178 16.1528 9.25377 16.1969 9.46701 16.1969C10.7998 16.1969 12.1318 16.1969 13.4629 16.1969H13.708C13.6116 17.5123 13.5177 18.804 13.4229 20.0948C13.3281 21.3857 13.2293 22.6528 13.141 23.9347C13.1083 24.4061 13.5315 24.7443 13.9376 24.558C14.0975 24.4711 14.2282 24.339 14.3134 24.1781C15.6097 21.8655 16.9022 19.5523 18.1909 17.2386C18.8281 16.0948 19.4703 14.951 20.0977 13.8072ZM14.0217 23.5131C13.9115 23.7125 13.6835 23.7345 13.7007 23.5082L14.3878 15.5229L10.1394 15.5482C10.0658 15.5489 9.99325 15.5301 9.92911 15.4939C9.86497 15.4578 9.81146 15.4054 9.77391 15.342C9.73637 15.2787 9.7161 15.2066 9.71515 15.1329C9.7142 15.0593 9.73258 14.9867 9.76848 14.9224L14.9932 5.50085C15.0105 5.47023 15.0376 5.4464 15.0703 5.43325C15.1029 5.4201 15.139 5.41842 15.1727 5.42849C15.2064 5.43855 15.2357 5.45976 15.2558 5.48864C15.2758 5.51752 15.2855 5.55236 15.2832 5.58745L14.7007 13.5458L18.9801 13.5066C19.0382 13.5049 19.0958 13.5187 19.1468 13.5467C19.1978 13.5747 19.2405 13.6158 19.2703 13.6658C19.3001 13.7158 19.316 13.7728 19.3164 13.831C19.3168 13.8891 19.3017 13.9464 19.2726 13.9968L14.0217 23.5131Z" fill="#4BA0DF"/>
<path d="M13.7058 24.8104C13.5556 24.8102 13.409 24.764 13.2859 24.6781C13.1662 24.5929 13.0709 24.4779 13.0095 24.3444C12.9481 24.2109 12.9229 24.0637 12.9362 23.9174C12.9966 23.0482 13.0628 22.165 13.1265 21.3104C13.1576 20.9003 13.1884 20.4899 13.2189 20.0792C13.2834 19.1993 13.348 18.3202 13.4125 17.433L13.4877 16.4003H9.4656C9.26707 16.4003 8.97541 16.37 8.76217 16.1135C8.52524 15.8333 8.50972 15.5032 8.71724 15.1331C9.07508 14.4893 9.43347 13.8464 9.7924 13.2042L11.0792 10.8986C12.223 8.84744 13.3667 6.79597 14.5105 4.74423C14.6341 4.48994 14.8527 4.29448 15.1192 4.20011L15.1494 4.19031H15.4582L15.495 4.2042C16.1347 4.45992 16.0882 5.05224 16.0726 5.2475C15.9672 6.589 15.8692 7.9542 15.7752 9.27446C15.736 9.81912 15.6965 10.3654 15.6568 10.9133C15.6257 11.3415 15.5939 11.7696 15.5604 12.205L15.5301 12.6029H19.553C20.0432 12.6029 20.3872 12.8643 20.4248 13.2671C20.4372 13.4888 20.3859 13.7093 20.2769 13.9027C19.794 14.7867 19.2965 15.6805 18.8112 16.5449L17.6568 18.6135C16.6216 20.4705 15.5506 22.3905 14.4901 24.2753C14.3837 24.4737 14.2208 24.6361 14.022 24.7418C13.9227 24.787 13.8149 24.8104 13.7058 24.8104ZM11.4378 15.9918H13.9248L13.8177 17.4624C13.7524 18.3496 13.6878 19.2295 13.6233 20.1086C13.5928 20.5198 13.5623 20.9308 13.5318 21.3415C13.4681 22.1944 13.4019 23.0776 13.3414 23.9452C13.3333 24.0209 13.3452 24.0974 13.3759 24.1671C13.4065 24.2367 13.4549 24.2971 13.5163 24.3423C13.5642 24.3764 13.6205 24.3969 13.6792 24.4016C13.7379 24.4064 13.7968 24.3952 13.8496 24.3692C13.9701 24.3 14.0682 24.1976 14.1323 24.0743C15.1944 22.1903 16.2622 20.2704 17.2973 18.4133L18.4525 16.3447C18.9346 15.4812 19.4329 14.589 19.9158 13.7066C19.9858 13.5846 20.0203 13.4453 20.0154 13.3047C19.9909 13.04 19.6821 13.0106 19.5506 13.0106H15.0898L15.1535 12.174C15.1862 11.7385 15.2189 11.3112 15.2499 10.8831L15.3676 9.24505C15.4623 7.92397 15.5596 6.55795 15.6658 5.214C15.6927 4.87495 15.6143 4.70338 15.3782 4.59799H15.2148C15.0751 4.65109 14.9697 4.75567 14.8651 4.94194C13.7213 6.99423 12.5775 9.0457 11.4337 11.0964L10.1462 13.4027C9.78723 14.0449 9.42911 14.6876 9.07181 15.3308C8.92639 15.5906 8.96642 15.7263 9.07181 15.8496C9.15351 15.9509 9.27197 15.9926 9.46397 15.9926H11.4378V15.9918ZM13.8071 23.8717C13.7759 23.8718 13.7448 23.8674 13.7148 23.8586C13.6403 23.833 13.5773 23.7819 13.537 23.7143C13.4966 23.6467 13.4814 23.567 13.4942 23.4893L14.1617 15.7279L10.1388 15.7516C10.0296 15.7521 9.92223 15.7241 9.82724 15.6703C9.73225 15.6165 9.65299 15.5388 9.59732 15.4449C9.54166 15.351 9.51152 15.2442 9.50991 15.135C9.50831 15.0258 9.53528 14.9182 9.58815 14.8227L14.8153 5.40191C14.8546 5.32981 14.9175 5.27339 14.9934 5.24209C15.0694 5.21079 15.1537 5.2065 15.2325 5.22993C15.3112 5.25336 15.3795 5.3031 15.4259 5.37084C15.4724 5.43857 15.4942 5.5202 15.4877 5.60207L14.9207 13.3398L18.9787 13.3022C19.0721 13.3012 19.1641 13.3247 19.2455 13.3704C19.327 13.4161 19.395 13.4824 19.4428 13.5626C19.4906 13.6428 19.5165 13.7342 19.5179 13.8276C19.5194 13.921 19.4962 14.0131 19.4509 14.0947L14.2001 23.6111C14.1636 23.6854 14.1079 23.7488 14.0389 23.7946C13.9698 23.8404 13.8898 23.867 13.8071 23.8717ZM14.6069 15.3194L13.9239 23.2573L19.0939 13.897C19.105 13.8781 19.1109 13.8565 19.1109 13.8345C19.1109 13.8125 19.105 13.791 19.0939 13.772C19.083 13.7531 19.0673 13.7374 19.0483 13.7266C19.0294 13.7158 19.0078 13.7103 18.986 13.7107L14.4844 13.7524L15.0669 5.7957L9.94844 15.0228C9.92944 15.0557 9.91944 15.0931 9.91944 15.1311C9.91944 15.1691 9.92944 15.2064 9.94844 15.2393C9.96735 15.2719 9.99454 15.2989 10.0273 15.3176C10.06 15.3362 10.0971 15.3459 10.1347 15.3455L14.6069 15.3194Z" fill="#4BA0DF"/>
<path d="M5.03514 25.2606C4.86884 25.26 4.70902 25.196 4.58824 25.0817C3.1384 23.7271 1.98285 22.0885 1.19351 20.2681C0.404158 18.4477 -0.00210142 16.4842 8.17389e-06 14.5C8.17389e-06 6.50492 6.50491 1.86985e-05 14.5 1.86985e-05C16.2206 -0.00274824 17.928 0.301587 19.5417 0.898712C19.7042 0.959057 19.8361 1.08149 19.9083 1.23907C19.9806 1.39665 19.9872 1.57648 19.9269 1.73899C19.8665 1.9015 19.7441 2.03338 19.5865 2.10562C19.4289 2.17786 19.2491 2.18455 19.0866 2.1242C17.6187 1.58061 16.0654 1.30392 14.5 1.30721C7.2255 1.30721 1.3072 7.22551 1.3072 14.5C1.29989 16.3065 1.66709 18.0949 2.38565 19.7524C3.1042 21.4098 4.15851 22.9004 5.48203 24.1299C5.57775 24.2195 5.6443 24.3359 5.67304 24.4638C5.70178 24.5917 5.69137 24.7253 5.64318 24.8473C5.59498 24.9692 5.51123 25.0738 5.40279 25.1476C5.29436 25.2213 5.16626 25.2607 5.03514 25.2606Z" fill="#3F3F3F"/>
<path d="M14.7552 29.2513C12.9262 29.2542 11.1132 28.9096 9.41287 28.2357C9.25166 28.1718 9.12244 28.0465 9.05365 27.8873C8.98486 27.7281 8.98212 27.5481 9.04604 27.3869C9.10996 27.2257 9.2353 27.0964 9.39449 27.0277C9.55368 26.9589 9.73368 26.9561 9.89489 27.02C11.4417 27.6335 13.0912 27.9471 14.7552 27.9441C22.0264 27.9441 27.948 22.0258 27.948 14.7513C27.9553 12.9448 27.5881 11.1563 26.8695 9.49888C26.151 7.84142 25.0967 6.35089 23.7732 5.12135C23.6508 5.00194 23.5801 4.83933 23.5762 4.66841C23.5724 4.49748 23.6356 4.33185 23.7524 4.20701C23.8693 4.08218 24.0303 4.00808 24.2011 4.00062C24.3719 3.99316 24.5389 4.05293 24.6661 4.1671C26.1166 5.5213 27.2729 7.15953 28.0629 8.97985C28.853 10.8002 29.2599 12.7636 29.2585 14.748C29.2585 22.7439 22.7503 29.2513 14.7552 29.2513Z" fill="#3F3F3F"/>
</svg>
