<svg width="22" height="30" viewBox="0 0 22 30" fill="none" xmlns="http://www.w3.org/2000/svg">
<path d="M13.6864 0C13.8304 0.0989721 13.9684 0.206582 14.0995 0.322242C16.6297 2.85324 19.1591 5.38479 21.6877 7.91689C21.7928 8.01628 21.8754 8.13718 21.9299 8.27139C21.9843 8.4056 22.0094 8.54998 22.0033 8.69474C21.9967 14.9237 21.995 21.152 21.9983 27.3798C21.9983 28.9745 20.9762 29.9992 19.3888 29.9992H2.61448C1.02381 29.9992 0 28.9753 0 27.3831C0 19.1545 0 10.9259 0 2.69723C0 1.24921 0.618915 0.433246 2.01127 0.0372774C2.02779 0.0323071 2.03936 0.0124258 2.05341 0H13.6864ZM12.9377 1.18211H2.59878C1.67909 1.18211 1.17834 1.68908 1.17834 2.6177C1.17834 10.8679 1.17834 19.1175 1.17834 27.3666C1.17834 28.3126 1.67413 28.8154 2.61614 28.8162H19.3905C20.3127 28.8162 20.8192 28.3101 20.8192 27.3864V9.07911H15.6067C13.9541 9.07911 12.9386 8.05937 12.9377 6.391V1.18211ZM19.8631 7.89203L14.1442 2.16374C14.1499 2.14883 14.1318 2.17451 14.1318 2.19936C14.1318 3.70289 14.1161 5.20558 14.1417 6.70827C14.1524 7.3892 14.692 7.86801 15.3878 7.89286C15.6596 7.90363 15.9323 7.89286 16.205 7.89286L19.8631 7.89203Z" fill="#3F3F3F"/>
<path d="M10.8903 20.1074C12.4769 20.1074 14.0631 20.1074 15.6491 20.1074C15.7827 20.1027 15.9163 20.1135 16.0474 20.1397C16.3432 20.2093 16.5002 20.4131 16.52 20.7138C16.5298 20.8543 16.4892 20.9938 16.4056 21.107C16.322 21.2203 16.2008 21.3 16.0639 21.3317C15.9335 21.3609 15.8 21.374 15.6665 21.3707C12.4835 21.3718 9.29964 21.3723 6.115 21.3723C5.99172 21.3753 5.86847 21.3654 5.74729 21.3425C5.60751 21.314 5.48201 21.2375 5.39234 21.1263C5.30267 21.0151 5.25443 20.8761 5.25589 20.7331C5.25736 20.5901 5.30844 20.4521 5.40038 20.3427C5.49231 20.2334 5.61935 20.1595 5.75968 20.1339C5.88149 20.1141 6.00485 20.1055 6.12822 20.1082L10.8903 20.1074Z" fill="#4BA0DF"/>
<path d="M10.9646 14.1729C9.36705 14.1729 7.76949 14.1729 6.17194 14.1729C6.03861 14.1782 5.90519 14.1654 5.7753 14.1347C5.64683 14.0915 5.53644 14.0064 5.4616 13.8931C5.38677 13.7799 5.35176 13.6448 5.36214 13.5093C5.37178 13.3692 5.42808 13.2363 5.52203 13.1321C5.61598 13.0278 5.74213 12.9582 5.88024 12.9344C5.99268 12.9214 6.10598 12.9175 6.21904 12.9228H15.9283C16.3522 12.9328 16.6249 13.1713 16.6282 13.5441C16.6315 13.9169 16.3654 14.1704 15.9399 14.172C14.5599 14.177 13.1791 14.172 11.7992 14.172L10.9646 14.1729Z" fill="#4BA0DF"/>
<path d="M10.9621 17.7697C9.39593 17.7697 7.83033 17.7697 6.26527 17.7697C6.14163 17.7722 6.01795 17.7664 5.89508 17.7523C5.75696 17.7328 5.62958 17.6668 5.53396 17.565C5.43834 17.4632 5.3802 17.3318 5.36912 17.1924C5.35805 17.053 5.39471 16.914 5.47306 16.7983C5.5514 16.6826 5.66674 16.5972 5.80005 16.5561C5.92933 16.5232 6.06253 16.5084 6.19586 16.5122C9.39869 16.5122 12.6021 16.5122 15.806 16.5122C15.9496 16.5087 16.0929 16.5277 16.2307 16.5685C16.3564 16.616 16.4631 16.7035 16.5344 16.8177C16.6057 16.9319 16.6375 17.0663 16.6251 17.2004C16.6128 17.3345 16.5568 17.4608 16.4658 17.5599C16.3748 17.659 16.2539 17.7255 16.1216 17.749C15.9888 17.766 15.8548 17.7726 15.7209 17.7688C14.1354 17.7705 12.5492 17.7708 10.9621 17.7697Z" fill="#4BA0DF"/>
<path d="M9.38911 23.7143C10.4708 23.7143 11.5532 23.7018 12.6349 23.725C12.855 23.7322 13.0655 23.8173 13.229 23.9653C13.5331 24.2743 13.353 24.7994 12.9282 24.9287C12.809 24.9594 12.686 24.9728 12.563 24.9684C10.4306 24.9684 8.29754 24.9684 6.16398 24.9684C6.11274 24.9684 6.06069 24.9684 6.00945 24.9684C5.62026 24.9411 5.35501 24.6727 5.36657 24.3173C5.37814 23.9619 5.63017 23.7209 6.01937 23.7184C7.14234 23.7109 8.26614 23.7184 9.38911 23.7184V23.7143Z" fill="#4BA0DF"/>
</svg>
