<svg width="24" height="31" viewBox="0 0 24 31" fill="none" xmlns="http://www.w3.org/2000/svg">
<path d="M18.4572 12.5652L17.1961 12.366C17.2449 12.088 17.2694 11.8067 17.2694 11.5249V8.89585C17.2694 7.54838 16.7039 6.2561 15.6972 5.30329C14.6905 4.35049 13.3251 3.81521 11.9014 3.81521C10.4778 3.81521 9.11239 4.35049 8.1057 5.30329C7.09901 6.2561 6.53345 7.54838 6.53345 8.89585V11.5249C6.53223 11.7973 6.55417 12.0695 6.59906 12.3386L5.33716 12.5305C5.28063 12.198 5.25213 11.8617 5.25195 11.5249V8.89585C5.25195 7.22756 5.95216 5.62759 7.19854 4.44792C8.44492 3.26826 10.1354 2.60553 11.898 2.60553C13.6607 2.60553 15.3511 3.26826 16.5975 4.44792C17.8439 5.62759 18.5441 7.22756 18.5441 8.89585V11.5249C18.5451 11.8733 18.5161 12.2213 18.4572 12.5652Z" fill="#3F3F3F"/>
<path d="M3.10194 13.387C2.93245 13.387 2.76991 13.3233 2.65006 13.2098C2.53022 13.0964 2.46289 12.9426 2.46289 12.7822V8.93135C2.46339 7.35853 2.90259 5.81372 3.73609 4.45305C4.5696 3.09238 5.76786 1.9641 7.20975 1.18224C8.65165 0.400375 10.2861 -0.00734478 11.9478 0.000288346C13.6096 0.00792148 15.2397 0.430637 16.6736 1.22571C16.8168 1.30829 16.9201 1.44089 16.9609 1.59488C17.0018 1.74886 16.9771 1.91189 16.8921 2.04877C16.8071 2.18565 16.6686 2.28541 16.5066 2.3265C16.3445 2.3676 16.1719 2.34675 16.026 2.26845C14.7863 1.58136 13.377 1.21617 11.9404 1.20977C10.5038 1.20338 9.0909 1.55602 7.84445 2.23204C6.59799 2.90807 5.56217 3.88353 4.84165 5.05985C4.12113 6.23616 3.74145 7.57165 3.74098 8.93135V12.7797C3.74132 12.8594 3.72504 12.9383 3.69307 13.0119C3.66111 13.0856 3.61409 13.1526 3.55472 13.209C3.49534 13.2654 3.42478 13.3102 3.34708 13.3407C3.26938 13.3713 3.18607 13.387 3.10194 13.387Z" fill="#4BA0DF"/>
<path d="M20.6978 13.187C20.5283 13.187 20.3658 13.1233 20.2459 13.0098C20.1261 12.8964 20.0588 12.7426 20.0588 12.5822V8.93135C20.0572 7.15466 19.4101 5.43253 18.226 4.05393C18.1708 3.99265 18.1291 3.92155 18.1033 3.84481C18.0775 3.76806 18.0682 3.68722 18.0758 3.60702C18.0835 3.52682 18.108 3.44887 18.1479 3.37776C18.1879 3.30664 18.2424 3.24379 18.3083 3.19288C18.3742 3.14198 18.4502 3.10404 18.5319 3.08131C18.6135 3.05857 18.6991 3.05149 18.7836 3.06048C18.8682 3.06948 18.95 3.09436 19.0243 3.13367C19.0985 3.17298 19.1637 3.22593 19.2161 3.28942C20.5871 4.88472 21.336 6.87816 21.3368 8.93458V12.5805C21.3371 12.6601 21.3207 12.7389 21.2887 12.8125C21.2567 12.8861 21.2096 12.9529 21.1503 13.0093C21.0909 13.0656 21.0204 13.1103 20.9428 13.1408C20.8651 13.1713 20.7819 13.187 20.6978 13.187Z" fill="#4BA0DF"/>
<path d="M19.9527 30.9999H4.04729C2.9743 30.9986 1.94564 30.5946 1.18692 29.8765C0.428197 29.1584 0.0013528 28.1848 0 27.1692L0 15.891C0.0013528 14.8755 0.428197 13.9019 1.18692 13.1837C1.94564 12.4656 2.9743 12.0616 4.04729 12.0604H19.9527C21.0257 12.0616 22.0544 12.4656 22.8131 13.1837C23.5718 13.9019 23.9986 14.8755 24 15.891V24.2692C24 24.4296 23.9327 24.5835 23.8128 24.6969C23.693 24.8103 23.5304 24.8741 23.361 24.8741C23.1915 24.8741 23.0289 24.8103 22.9091 24.6969C22.7892 24.5835 22.7219 24.4296 22.7219 24.2692V15.891C22.721 15.1961 22.429 14.53 21.9098 14.0386C21.3907 13.5473 20.6869 13.2709 19.9527 13.27H4.04729C3.31313 13.2709 2.6093 13.5473 2.09017 14.0386C1.57104 14.53 1.27899 15.1961 1.27809 15.891V27.1692C1.27899 27.8641 1.57104 28.5303 2.09017 29.0216C2.6093 29.5129 3.31313 29.7893 4.04729 29.7902H19.9527C20.6869 29.7893 21.3907 29.5129 21.9098 29.0216C22.429 28.5303 22.721 27.8641 22.7219 27.1692C22.7219 27.0088 22.7892 26.855 22.9091 26.7416C23.0289 26.6281 23.1915 26.5644 23.361 26.5644C23.5304 26.5644 23.693 26.6281 23.8128 26.7416C23.9327 26.855 24 27.0088 24 27.1692C23.9986 28.1848 23.5718 29.1584 22.8131 29.8765C22.0544 30.5946 21.0257 30.9986 19.9527 30.9999Z" fill="#3F3F3F"/>
<path d="M10.8551 22.4305C10.178 22.1794 9.61405 21.7135 9.25976 21.1124C8.90548 20.5113 8.78284 19.8123 8.91283 19.1351C9.04282 18.4579 9.41735 17.8444 9.97238 17.3996C10.5274 16.9549 11.2285 16.7064 11.9556 16.6968C12.6828 16.6871 13.3909 16.9169 13.9589 17.3467C14.5269 17.7766 14.9194 18.3799 15.0694 19.0534C15.2194 19.7269 15.1175 20.4288 14.7812 21.0391C14.4449 21.6494 13.895 22.1301 13.2255 22.3991L12.8591 21.583C13.3284 21.3944 13.7138 21.0575 13.9496 20.6297C14.1854 20.202 14.2568 19.71 14.1517 19.2379C14.0466 18.7658 13.7715 18.3429 13.3734 18.0416C12.9754 17.7402 12.4791 17.5791 11.9694 17.5858C11.4597 17.5924 10.9682 17.7665 10.5791 18.0782C10.19 18.3898 9.92738 18.8198 9.83614 19.2944C9.74489 19.7691 9.8307 20.259 10.0789 20.6804C10.3271 21.1018 10.7222 21.4286 11.1968 21.6047L10.8551 22.4305Z" fill="#4BA0DF"/>
<path d="M12.0555 25.5168H11.943C11.5347 25.5162 11.1433 25.3623 10.8547 25.089C10.5661 24.8157 10.4038 24.4452 10.4033 24.0588L10.4195 21.9281C10.4202 21.8111 10.4698 21.6991 10.5574 21.6166C10.6451 21.5341 10.7637 21.4878 10.8873 21.4878C11.0117 21.4886 11.1306 21.5362 11.218 21.6199C11.3054 21.7037 11.354 21.8169 11.3534 21.9346L11.3372 24.062C11.339 24.2122 11.4032 24.3556 11.516 24.4613C11.6287 24.5669 11.7809 24.6263 11.9396 24.6265H12.0521C12.212 24.6263 12.3653 24.5661 12.4784 24.459C12.5915 24.352 12.6551 24.2069 12.6553 24.0555L12.6851 21.9321C12.6868 21.8145 12.7378 21.7023 12.8269 21.6203C12.916 21.5382 13.0359 21.493 13.1602 21.4946C13.2845 21.4963 13.403 21.5445 13.4897 21.6288C13.5764 21.7132 13.6241 21.8266 13.6224 21.9442L13.5926 24.062C13.5917 24.4476 13.4294 24.8171 13.1414 25.0898C12.8533 25.3624 12.4629 25.516 12.0555 25.5168Z" fill="#4BA0DF"/>
</svg>
