<svg width="26" height="30" viewBox="0 0 26 30" fill="none" xmlns="http://www.w3.org/2000/svg">
<path d="M13.0941 3.03973C18.9636 3.09117 23.6589 8.081 23.3385 13.9809C23.0207 19.9087 17.811 24.3485 11.944 23.693C11.6842 23.6642 11.4245 23.6258 11.1647 23.5761C10.7317 23.489 10.484 23.1499 10.5585 22.7393C10.6286 22.3426 10.9915 22.1099 11.4323 22.1875C13.5461 22.5649 15.5508 22.2546 17.4265 21.1946C22.276 18.4556 23.471 11.9132 19.8357 7.68261C17.3927 4.84423 14.2493 3.86004 10.6693 4.88172C7.16993 5.87637 5.07514 8.32944 4.36417 11.9227C4.04723 13.5259 4.249 15.1063 4.82227 16.6371C4.89574 16.8096 4.9343 16.9951 4.93572 17.1828C4.92286 17.3354 4.85814 17.4789 4.75246 17.5891C4.64677 17.6993 4.50658 17.7695 4.35551 17.7878C4.01865 17.8357 3.7017 17.6849 3.59432 17.3389C3.35791 16.5735 3.0834 15.8081 2.9613 15.0209C2.54485 12.4221 3.13559 9.76162 4.61155 7.58867C6.08752 5.41571 8.336 3.89624 10.8928 3.34397C11.6141 3.18531 12.3597 3.13824 13.0941 3.03973Z" fill="#4BA0DF"/>
<path d="M5.44273 24.0155C4.76228 24.0149 4.1053 23.7651 3.5943 23.3128C3.08331 22.8605 2.75321 22.2365 2.66555 21.5572C2.58686 20.8875 2.75346 20.2119 3.13415 19.6569C3.51483 19.102 4.08346 18.7059 4.73349 18.5427C6.97059 18.0011 9.20942 17.4682 11.45 16.944C12.2744 16.7496 13.0252 17.066 13.414 17.7495C13.5996 18.0712 13.6768 18.4446 13.6342 18.8142C13.5916 19.1837 13.4314 19.5294 13.1776 19.7998C13.0411 19.9426 12.8847 20.0647 12.7134 20.1624C10.7436 21.3247 8.77182 22.4815 6.79798 23.6328C6.38563 23.8737 5.91935 24.0053 5.44273 24.0155ZM4.00348 21.2416C4.00348 22.3287 5.18986 23.0025 6.13204 22.4499C6.63517 22.1552 7.13311 21.8519 7.63624 21.5572C9.09685 20.7012 10.5583 19.8466 12.0207 18.9934C12.2155 18.8792 12.3593 18.7319 12.2597 18.4896C12.1731 18.2725 11.9999 18.2123 11.7756 18.2664C9.52579 18.8043 7.28032 19.3334 5.03399 19.8756C4.7356 19.9552 4.47217 20.1328 4.28548 20.3803C4.09879 20.6278 3.99954 20.9309 4.00348 21.2416Z" fill="#4BA0DF"/>
<path d="M15.7416 13.457C15.7347 13.9856 15.5723 14.5002 15.2749 14.9358C14.9775 15.3714 14.5585 15.7084 14.0708 15.9043C13.5831 16.1003 13.0487 16.1462 12.5351 16.0364C12.0215 15.9266 11.5517 15.6659 11.1853 15.2874C10.8188 14.9088 10.5721 14.4294 10.4762 13.9097C10.3804 13.3901 10.4398 12.8534 10.6469 12.3677C10.854 11.882 11.1995 11.469 11.6398 11.181C12.08 10.8929 12.5952 10.7427 13.1203 10.7494C13.4694 10.7526 13.8144 10.8253 14.1355 10.9633C14.4566 11.1014 14.7473 11.302 14.991 11.5537C15.2347 11.8054 15.4265 12.1032 15.5553 12.4299C15.6841 12.7565 15.7474 13.1056 15.7416 13.457ZM13.0891 14.7324C13.3467 14.7324 13.5984 14.6553 13.8123 14.5109C14.0263 14.3665 14.1927 14.1613 14.2906 13.9215C14.3884 13.6816 14.4132 13.4179 14.3618 13.1639C14.3104 12.9098 14.1852 12.6768 14.0019 12.4946C13.8187 12.3124 13.5858 12.1891 13.3328 12.1404C13.0798 12.0918 12.8182 12.1199 12.5811 12.2213C12.344 12.3227 12.1423 12.4927 12.0014 12.7098C11.8606 12.9269 11.787 13.1812 11.7901 13.4405C11.7942 13.7845 11.9329 14.1131 12.1761 14.355C12.4192 14.5968 12.7473 14.7324 13.0891 14.7324Z" fill="#3F3F3F"/>
<path d="M13.1056 16.142H13.0667C12.7109 16.1402 12.3591 16.0673 12.0317 15.9274C11.7042 15.7876 11.4076 15.5836 11.1591 15.3274C10.9106 15.0712 10.7152 14.7678 10.5842 14.4349C10.4532 14.102 10.3892 13.7462 10.396 13.3882C10.4051 12.6696 10.6973 11.9842 11.2084 11.4825C11.7194 10.9808 12.4074 10.7039 13.1212 10.7128C13.6542 10.7217 14.1727 10.8892 14.6114 11.194C15.0501 11.4988 15.3895 11.9274 15.5868 12.4259C15.7841 12.9244 15.8306 13.4705 15.7204 13.9955C15.6102 14.5206 15.3483 15.0011 14.9675 15.3766C14.4711 15.8684 13.8021 16.1434 13.1056 16.142ZM13.0814 10.786C12.5619 10.7848 12.0538 10.9385 11.621 11.2277C11.1882 11.5169 10.8502 11.9286 10.6495 12.4109C10.4489 12.8933 10.3947 13.4246 10.4936 13.9379C10.5926 14.4513 10.8404 14.9236 11.2057 15.2954C11.571 15.6671 12.0375 15.9216 12.5463 16.0268C13.0552 16.132 13.5836 16.0832 14.0648 15.8864C14.5461 15.6897 14.9588 15.3539 15.2507 14.9214C15.5427 14.4889 15.7008 13.979 15.7053 13.4562C15.7104 12.7581 15.4419 12.0863 14.9579 11.5863C14.4739 11.0864 13.8136 10.7989 13.1203 10.786H13.0814ZM13.0883 14.7681C12.8241 14.7696 12.5654 14.6916 12.3454 14.5442C12.1255 14.3967 11.9543 14.1865 11.8539 13.9404C11.7534 13.6944 11.7282 13.4238 11.7815 13.1632C11.8348 12.9027 11.9642 12.6641 12.1531 12.4781C12.2768 12.3527 12.4242 12.2534 12.5866 12.186C12.749 12.1187 12.9231 12.0846 13.0987 12.0858C13.4462 12.0959 13.776 12.2422 14.0178 12.4937C14.2596 12.7451 14.3943 13.0817 14.393 13.4316C14.3918 13.7816 14.2548 14.1172 14.0112 14.3669C13.7676 14.6165 13.4367 14.7605 13.0892 14.7681H13.0883ZM13.0883 14.694C13.4165 14.6864 13.7287 14.5501 13.9585 14.3142C14.1883 14.0782 14.3175 13.7612 14.3185 13.4308C14.3196 13.1003 14.1923 12.7825 13.964 12.5451C13.7356 12.3077 13.4242 12.1695 13.0961 12.1599C12.9304 12.1587 12.7661 12.1909 12.613 12.2545C12.4598 12.3181 12.3208 12.4119 12.2041 12.5304C12.0255 12.706 11.9031 12.9314 11.8526 13.1776C11.8021 13.4238 11.8259 13.6796 11.9208 13.9121C12.0157 14.1446 12.1775 14.3433 12.3854 14.4826C12.5932 14.6219 12.8377 14.6955 13.0874 14.694H13.0883Z" fill="#636363"/>
<path d="M4.10686 2.58386C4.3104 2.58439 4.50918 2.64579 4.67799 2.76026C4.84679 2.87473 4.97801 3.0371 5.05497 3.22678C5.13194 3.41645 5.15119 3.62487 5.11027 3.82557C5.06936 4.02628 4.97013 4.21022 4.82518 4.35405C4.68022 4.49788 4.49609 4.59511 4.29614 4.63341C4.09619 4.6717 3.88945 4.64932 3.70216 4.56912C3.51487 4.48892 3.35548 4.35451 3.24421 4.18295C3.13294 4.01139 3.07482 3.81041 3.07722 3.60554C3.0835 3.334 3.19446 3.07557 3.38661 2.88491C3.57877 2.69424 3.83706 2.58628 4.10686 2.58386Z" fill="#3F3F3F"/>
<path d="M4.10076 4.68821H4.07998C3.80279 4.67743 3.54075 4.55804 3.34977 4.35551C3.15879 4.15298 3.05398 3.88335 3.05771 3.60413C3.06144 3.32491 3.17341 3.05821 3.36973 2.86092C3.56605 2.66363 3.83117 2.55137 4.10856 2.5481C4.38822 2.55242 4.6551 2.66677 4.85207 2.86668C5.04903 3.06658 5.16044 3.33616 5.16245 3.61772C5.16108 3.90091 5.04885 4.17213 4.85009 4.37254C4.65132 4.57295 4.38208 4.68638 4.10076 4.68821ZM4.09643 2.62045C3.83866 2.62595 3.59316 2.7324 3.41211 2.91718C3.23105 3.10197 3.12869 3.35054 3.12677 3.61008C3.12485 3.86963 3.22353 4.1197 3.40184 4.30717C3.58015 4.49465 3.82404 4.60476 4.08171 4.61412C4.21297 4.61561 4.34322 4.59099 4.465 4.54167C4.58678 4.49236 4.69769 4.41931 4.79135 4.32673C4.88501 4.23415 4.95958 4.12385 5.01078 4.00218C5.06198 3.88051 5.0888 3.74985 5.0897 3.61772C5.08793 3.35528 4.98416 3.10397 4.80063 2.91759C4.61709 2.7312 4.36836 2.62454 4.10769 2.62045H4.09643Z" fill="#3F3F3F"/>
<path d="M22.062 4.64374C21.9278 4.64317 21.795 4.61591 21.6714 4.56354C21.5477 4.51116 21.4355 4.4347 21.3413 4.33855C21.247 4.24239 21.1726 4.12844 21.1223 4.00323C21.0719 3.87803 21.0466 3.74405 21.0479 3.60898C21.0531 3.33579 21.1643 3.07548 21.3577 2.88374C21.5511 2.692 21.8113 2.58404 22.0827 2.58295C22.3542 2.58549 22.6136 2.69649 22.8037 2.89152C22.9939 3.08656 23.0993 3.34965 23.0968 3.62293C23.0943 3.89621 22.984 4.15728 22.7903 4.34872C22.5965 4.54016 22.3352 4.64628 22.0637 4.64374H22.062Z" fill="#3F3F3F"/>
<path d="M22.0622 4.68034C21.9231 4.67989 21.7856 4.65174 21.6573 4.59751C21.5291 4.54328 21.4129 4.46405 21.3152 4.36438C21.2176 4.2647 21.1405 4.14657 21.0884 4.01677C21.0363 3.88697 21.0103 3.74808 21.0118 3.6081C21.0158 3.32657 21.1292 3.05783 21.3276 2.85938C21.5261 2.66094 21.7938 2.54857 22.0735 2.54633H22.0821C22.3575 2.55008 22.6208 2.66118 22.8165 2.85626C23.0122 3.05135 23.1252 3.31522 23.1317 3.59241C23.1342 3.73438 23.1083 3.8754 23.0555 4.00705C23.0027 4.13871 22.924 4.25829 22.8243 4.35867C22.725 4.4608 22.6065 4.54189 22.4756 4.59713C22.3447 4.65238 22.2041 4.68067 22.0622 4.68034ZM22.0726 2.61955C21.8129 2.62485 21.5651 2.73073 21.381 2.91516C21.1968 3.0996 21.0903 3.34841 21.0837 3.60985C21.0824 3.74002 21.1067 3.86916 21.1553 3.98982C21.2038 4.11048 21.2756 4.22029 21.3665 4.3129C21.4573 4.40552 21.5655 4.47912 21.6848 4.52947C21.804 4.57981 21.932 4.6059 22.0613 4.60624C22.1935 4.60683 22.3244 4.58075 22.4464 4.52954C22.5683 4.47833 22.6789 4.40304 22.7714 4.30811C22.8637 4.21473 22.9364 4.10365 22.9852 3.98145C23.034 3.85926 23.0579 3.72844 23.0555 3.59677C23.0508 3.3387 22.9466 3.09258 22.765 2.91039C22.5834 2.7282 22.3385 2.62423 22.0821 2.62042L22.0726 2.61955Z" fill="#3F3F3F"/>
<path d="M22.4599 30H3.5401C2.60149 29.9991 1.70158 29.6233 1.03788 28.9552C0.374185 28.2871 0.000917062 27.3812 0 26.4363L0 3.56367C0.00114582 2.61888 0.374488 1.71311 1.03814 1.04505C1.70179 0.37698 2.60156 0.00115345 3.5401 0L22.4599 0C23.3984 0.00115345 24.2982 0.37698 24.9619 1.04505C25.6255 1.71311 25.9989 2.61888 26 3.56367V26.4363C25.9991 27.3812 25.6258 28.2871 24.9621 28.9552C24.2984 29.6233 23.3985 29.9991 22.4599 30ZM3.5401 0.882199C2.83392 0.883122 2.15692 1.16593 1.65757 1.6686C1.15822 2.17127 0.877282 2.85278 0.876366 3.56367V26.4363C0.87774 27.1469 1.15888 27.828 1.65818 28.3303C2.15748 28.8326 2.83422 29.1151 3.5401 29.1161H22.4599C23.166 29.1151 23.8429 28.8323 24.3421 28.3296C24.8413 27.8269 25.1221 27.1454 25.1228 26.4346V3.56367C25.1221 2.85286 24.8413 2.17135 24.3421 1.66865C23.8429 1.16596 23.166 0.883122 22.4599 0.882199H3.5401Z" fill="#3F3F3F"/>
<path d="M4.13225 25.4713C4.33579 25.4718 4.53457 25.5332 4.70338 25.6477C4.87218 25.7622 5.0034 25.9246 5.08036 26.1142C5.15733 26.3039 5.17658 26.5123 5.13566 26.713C5.09475 26.9137 4.99552 27.0977 4.85057 27.2415C4.70561 27.3853 4.52148 27.4826 4.32153 27.5209C4.12159 27.5591 3.91485 27.5368 3.72755 27.4566C3.54026 27.3764 3.38087 27.242 3.2696 27.0704C3.15833 26.8988 3.10021 26.6979 3.10261 26.493C3.1089 26.2215 3.21985 25.963 3.412 25.7724C3.60416 25.5817 3.86245 25.4737 4.13225 25.4713Z" fill="#3F3F3F"/>
<path d="M22.1292 25.4713C22.3327 25.472 22.5314 25.5336 22.7001 25.6481C22.8688 25.7627 22.9999 25.9251 23.0767 26.1148C23.1535 26.3045 23.1727 26.5129 23.1316 26.7136C23.0906 26.9142 22.9913 27.0981 22.8464 27.2418C22.7014 27.3855 22.5172 27.4827 22.3173 27.5209C22.1174 27.5591 21.9107 27.5367 21.7235 27.4565C21.5362 27.3763 21.3769 27.2418 21.2656 27.0703C21.1544 26.8988 21.0963 26.6978 21.0987 26.493C21.1039 26.2209 21.2146 25.9618 21.4072 25.7708C21.5998 25.5799 21.8589 25.4724 22.1292 25.4713Z" fill="#3F3F3F"/>
</svg>
