<svg width="20" height="28" viewBox="0 0 20 28" fill="none" xmlns="http://www.w3.org/2000/svg">
<path d="M16.9325 28.0001H3.06752C2.25433 27.9993 1.47466 27.6746 0.899583 27.0974C0.324504 26.5202 0.000981021 25.7375 0 24.921L0 4.57842C0.00117672 3.76205 0.324762 2.97946 0.899799 2.40226C1.47484 1.82506 2.25439 1.50037 3.06752 1.49939H4.16364V2.4667H3.06752C2.50974 2.4671 1.9749 2.68968 1.58042 3.0856C1.18594 3.48152 0.964051 4.01841 0.963463 4.57842V24.921C0.964051 25.481 1.18594 26.0179 1.58042 26.4138C1.9749 26.8098 2.50974 27.0323 3.06752 27.0327H16.9325C17.4902 27.0322 18.0249 26.8095 18.4194 26.4136C18.8138 26.0178 19.0358 25.481 19.0365 24.921V4.57842C19.0358 4.01847 18.8138 3.48169 18.4194 3.08582C18.0249 2.68994 17.4902 2.46729 16.9325 2.4667H15.3183V1.49939H16.9325C17.7456 1.50037 18.5252 1.82506 19.1002 2.40226C19.6752 2.97946 19.9988 3.76205 20 4.57842V24.921C19.999 25.7375 19.6755 26.5202 19.1004 27.0974C18.5253 27.6746 17.7457 27.9993 16.9325 28.0001Z" fill="#3F3F3F"/>
<path d="M15.999 11.6167H10.2679C10.1401 11.6167 10.0176 11.5658 9.92723 11.4751C9.83689 11.3844 9.78613 11.2613 9.78613 11.1331C9.78613 11.0048 9.83689 10.8818 9.92723 10.7911C10.0176 10.7004 10.1401 10.6494 10.2679 10.6494H15.999C16.1267 10.6494 16.2493 10.7004 16.3396 10.7911C16.43 10.8818 16.4807 11.0048 16.4807 11.1331C16.4807 11.2613 16.43 11.3844 16.3396 11.4751C16.2493 11.5658 16.1267 11.6167 15.999 11.6167Z" fill="#4BA0DF"/>
<path d="M15.999 14.7471H10.2679C10.1401 14.7471 10.0176 14.6961 9.92723 14.6054C9.83689 14.5147 9.78613 14.3917 9.78613 14.2634C9.78613 14.1352 9.83689 14.0121 9.92723 13.9214C10.0176 13.8307 10.1401 13.7798 10.2679 13.7798H15.999C16.1267 13.7798 16.2493 13.8307 16.3396 13.9214C16.43 14.0121 16.4807 14.1352 16.4807 14.2634C16.4807 14.3917 16.43 14.5147 16.3396 14.6054C16.2493 14.6961 16.1267 14.7471 15.999 14.7471Z" fill="#4BA0DF"/>
<path d="M15.999 20.7168H10.2679C10.1401 20.7168 10.0176 20.6659 9.92723 20.5752C9.83689 20.4845 9.78613 20.3614 9.78613 20.2332C9.78613 20.1049 9.83689 19.9819 9.92723 19.8912C10.0176 19.8005 10.1401 19.7495 10.2679 19.7495H15.999C16.1267 19.7495 16.2493 19.8005 16.3396 19.8912C16.43 19.9819 16.4807 20.1049 16.4807 20.2332C16.4807 20.3614 16.43 20.4845 16.3396 20.5752C16.2493 20.6659 16.1267 20.7168 15.999 20.7168Z" fill="#4BA0DF"/>
<path d="M4.68508 12.2775C4.55868 12.2778 4.43725 12.2281 4.34713 12.1391L3.22951 11.0326C3.18285 10.9885 3.14543 10.9354 3.11945 10.8766C3.09347 10.8177 3.07945 10.7543 3.07821 10.6899C3.07698 10.6255 3.08856 10.5616 3.11226 10.5018C3.13597 10.442 3.17133 10.3875 3.21627 10.3416C3.26121 10.2957 3.31483 10.2592 3.37398 10.2344C3.43313 10.2096 3.49662 10.1968 3.56074 10.1969C3.62485 10.1971 3.6883 10.21 3.74736 10.2351C3.80642 10.2601 3.8599 10.2968 3.90468 10.3429L4.67396 11.1018L6.37411 9.31974C6.4179 9.27382 6.47028 9.237 6.52825 9.2114C6.58622 9.1858 6.64864 9.17191 6.71195 9.17052C6.77527 9.16914 6.83823 9.18029 6.89725 9.20334C6.95628 9.22639 7.0102 9.26089 7.05594 9.30486C7.10168 9.34883 7.13835 9.40142 7.16385 9.45962C7.18935 9.51782 7.20319 9.58049 7.20456 9.64406C7.20594 9.70763 7.19483 9.77084 7.17188 9.8301C7.14892 9.88936 7.11456 9.94349 7.07076 9.98942L5.03341 12.1242C4.98929 12.1705 4.93641 12.2075 4.87788 12.2331C4.81934 12.2586 4.75632 12.2722 4.69249 12.273L4.68508 12.2775Z" fill="#4BA0DF"/>
<path d="M14.7483 3.96598H5.25222C4.90443 3.96559 4.571 3.82671 4.32508 3.5798C4.07915 3.33289 3.94082 2.99813 3.94043 2.64895V1.31703C3.94082 0.967856 4.07915 0.633092 4.32508 0.386186C4.571 0.139279 4.90443 0.000393885 5.25222 0L14.7483 0C15.096 0.000393885 15.4295 0.139279 15.6754 0.386186C15.9213 0.633092 16.0597 0.967856 16.06 1.31703V2.64895C16.0597 2.99813 15.9213 3.33289 15.6754 3.5798C15.4295 3.82671 15.096 3.96559 14.7483 3.96598ZM5.25222 0.967313C5.1599 0.96751 5.07141 1.00442 5.00613 1.06996C4.94085 1.1355 4.90409 1.22434 4.90389 1.31703V2.64895C4.90409 2.74164 4.94085 2.83048 5.00613 2.89602C5.07141 2.96157 5.1599 2.99847 5.25222 2.99867H14.7483C14.8406 2.99847 14.9291 2.96157 14.9943 2.89602C15.0596 2.83048 15.0964 2.74164 15.0966 2.64895V1.31703C15.0964 1.22434 15.0596 1.1355 14.9943 1.06996C14.9291 1.00442 14.8406 0.96751 14.7483 0.967313H5.25222Z" fill="#3F3F3F"/>
<path d="M4.68508 17.0068C4.55868 17.0071 4.43725 16.9574 4.34713 16.8684L3.22951 15.7657C3.18285 15.7215 3.14543 15.6685 3.11945 15.6096C3.09347 15.5508 3.07945 15.4873 3.07821 15.4229C3.07698 15.3586 3.08856 15.2946 3.11226 15.2348C3.13597 15.175 3.17133 15.1205 3.21627 15.0746C3.26121 15.0287 3.31483 14.9923 3.37398 14.9674C3.43313 14.9426 3.49662 14.9299 3.56074 14.93C3.62485 14.9301 3.6883 14.9431 3.74736 14.9681C3.80642 14.9932 3.8599 15.0298 3.90468 15.0759L4.67396 15.8349L6.37411 14.0528C6.4179 14.0068 6.47028 13.97 6.52825 13.9444C6.58622 13.9188 6.64864 13.9049 6.71195 13.9036C6.77527 13.9022 6.83823 13.9133 6.89725 13.9364C6.95628 13.9594 7.0102 13.9939 7.05594 14.0379C7.10168 14.0819 7.13835 14.1345 7.16385 14.1927C7.18935 14.2509 7.20319 14.3135 7.20456 14.3771C7.20594 14.4407 7.19483 14.5039 7.17188 14.5631C7.14892 14.6224 7.11456 14.6765 7.07076 14.7225L5.03341 16.8572C4.98919 16.9034 4.93629 16.9403 4.87778 16.9659C4.81926 16.9914 4.75629 17.0051 4.69249 17.0061L4.68508 17.0068Z" fill="#4BA0DF"/>
<path d="M4.68428 21.5837C4.55791 21.5839 4.43653 21.5342 4.34632 21.4453L3.22871 20.3426C3.14072 20.252 3.09157 20.1305 3.0918 20.004C3.09203 19.8774 3.14162 19.7561 3.22994 19.6658C3.31826 19.5756 3.43828 19.5237 3.56426 19.5213C3.69024 19.5188 3.81216 19.5661 3.90387 19.6528L4.65982 20.3969L6.26213 18.585C6.34758 18.4915 6.46622 18.4355 6.59246 18.429C6.7187 18.4225 6.84243 18.4661 6.93696 18.5503C7.03148 18.6346 7.08923 18.7528 7.09775 18.8794C7.10627 19.006 7.06488 19.1309 6.98251 19.2272L5.04446 21.4215C5.00109 21.4705 4.94824 21.5102 4.88912 21.5381C4.83001 21.566 4.76586 21.5815 4.70058 21.5837H4.68428Z" fill="#4BA0DF"/>
<path d="M15.999 17.6765H10.2679C10.1401 17.6765 10.0176 17.6256 9.92723 17.5349C9.83689 17.4442 9.78613 17.3212 9.78613 17.1929C9.78613 17.0646 9.83689 16.9416 9.92723 16.8509C10.0176 16.7602 10.1401 16.7092 10.2679 16.7092H15.999C16.1267 16.7092 16.2493 16.7602 16.3396 16.8509C16.43 16.9416 16.4807 17.0646 16.4807 17.1929C16.4807 17.3212 16.43 17.4442 16.3396 17.5349C16.2493 17.6256 16.1267 17.6765 15.999 17.6765Z" fill="#4BA0DF"/>
</svg>
