<svg width="20" height="23" viewBox="0 0 20 23" fill="none" xmlns="http://www.w3.org/2000/svg">
<path d="M12.3843 13.9992C12.706 14.1301 13.0203 14.28 13.3257 14.4479C13.7043 14.656 13.8491 15.1442 13.6491 15.5383C13.4492 15.9324 12.9802 16.0831 12.6016 15.875C11.5127 15.2763 10.2978 14.959 9.03728 14.959C5.36064 14.959 2.22442 17.681 1.53648 21.3903C1.45532 21.8279 1.04875 22.1142 0.628395 22.0297C0.208012 21.9452 -0.0669568 21.522 0.0141995 21.0844C0.622242 17.8059 2.81721 15.1697 5.69155 13.9999C3.59927 12.7797 2.18518 10.4505 2.18518 7.77758C2.18518 3.84054 5.2531 0.64917 9.03731 0.64917C12.8215 0.64917 15.8894 3.84057 15.8894 7.77758C15.8894 10.45 14.4758 12.7788 12.3843 13.9992ZM14.339 7.77758C14.339 4.73215 11.9654 2.26309 9.03731 2.26309C6.10912 2.26309 3.73557 4.73212 3.73557 7.77758C3.73557 10.823 6.10912 13.2921 9.03731 13.2921C11.9654 13.2921 14.339 10.823 14.339 7.77758ZM14.6861 17.6481V15.2279C14.6858 15.0846 14.7224 14.9439 14.7919 14.8202C14.8593 14.7005 14.9551 14.6008 15.0701 14.5306C15.1889 14.4582 15.3242 14.4202 15.4618 14.4205C15.5995 14.4202 15.7347 14.4582 15.8535 14.5306C15.9685 14.6008 16.0643 14.7005 16.1317 14.8202C16.2012 14.9439 16.2377 15.0846 16.2375 15.2279V17.6481H18.5393C18.9674 17.6481 19.3144 18.0094 19.3144 18.455C19.3144 18.9007 18.9674 19.2619 18.5393 19.2619H16.2375V21.6552C16.2377 21.7985 16.2012 21.9392 16.1316 22.0629C16.0643 22.1826 15.9685 22.2824 15.8535 22.3525C15.7347 22.4249 15.5995 22.4629 15.4618 22.4627C15.3242 22.4629 15.1889 22.4249 15.0701 22.3525C14.9551 22.2824 14.8593 22.1826 14.7919 22.0629C14.7224 21.9392 14.6858 21.7985 14.6861 21.6552V19.2619H12.3585C11.9304 19.2619 11.5833 18.9007 11.5833 18.455C11.5833 18.0094 11.9304 17.6481 12.3585 17.6481H14.6861Z" fill="#3D3D3D"/>
</svg>
