<svg width="31" height="36" viewBox="0 0 31 36" fill="none" xmlns="http://www.w3.org/2000/svg">
<path d="M16.0497 0.381836C17.1238 0.627588 18.2228 0.796024 19.2693 1.1329C24.6924 2.88629 28.5223 8.09126 28.7515 13.8071C28.7929 14.8122 29.2375 15.809 29.5301 16.7975C29.9719 18.2886 30.4496 19.7686 30.9108 21.2569C31.2421 22.3614 30.6346 23.1401 29.4915 23.1484C28.7791 23.1484 28.0667 23.1484 27.2825 23.1484C27.2825 24.0127 27.3294 24.8327 27.2825 25.6335C27.2355 26.4343 27.1858 27.2654 26.9014 27.9889C26.6218 28.7722 26.1153 29.4547 25.4466 29.9494C24.7778 30.444 23.9771 30.7285 23.1461 30.7667C21.859 30.8438 20.5687 30.8557 19.2804 30.8026C18.8386 30.8026 18.6453 30.9324 18.5376 31.3548C18.2946 32.3231 18.024 33.2859 17.7258 34.2431C17.5864 34.5687 17.4163 34.8803 17.2177 35.1736H16.6793C16.2347 34.8782 16.1988 34.4889 16.3507 34.0056C16.671 32.984 16.9526 31.9513 17.2647 30.8688C17.0631 30.8357 16.9167 30.7998 16.7649 30.786C15.1654 30.644 13.6586 29.9737 12.4822 28.8807C12.0045 28.4445 11.9299 28.0689 12.2198 27.7348C12.5098 27.4007 12.9184 27.4366 13.3851 27.8618C14.5255 28.9214 16.0313 29.4992 17.5877 29.4744C19.2141 29.4744 20.8432 29.4744 22.4724 29.4744C24.5295 29.4744 25.9019 28.0938 25.9101 26.0339C25.9101 24.9791 25.9101 23.9243 25.9101 22.8667C25.9101 21.95 26.0731 21.7898 27.0146 21.7898C27.843 21.7898 28.6907 21.7898 29.6157 21.7898C29.4584 21.2376 29.3396 20.7792 29.1822 20.3098C28.884 19.3378 28.5941 18.3604 28.2765 17.3912C27.7518 15.7599 27.382 14.0829 27.172 12.3822C26.3326 5.78285 19.7581 0.887146 13.1725 1.8453C11.5398 2.07293 9.96225 2.59597 8.517 3.38884C8.24491 3.53452 7.92613 3.5663 7.63064 3.4772C7.14189 3.26735 7.23025 2.59084 7.76594 2.2871C9.18188 1.45034 10.7376 0.87687 12.3579 0.594453L13.5646 0.381836H16.0497Z" fill="black"/>
<path d="M2.93283 35.1739C2.54901 34.873 2.49379 34.5057 2.607 34.0363C3.02947 32.316 3.48784 30.6041 3.79434 28.8645C4.20853 26.5036 3.7612 24.2449 2.71745 22.0911C1.35137 19.3763 0.722896 16.3501 0.895021 13.3158C1.03945 11.056 1.74661 8.86806 2.95216 6.95114C3.22828 6.48449 3.62038 6.35471 3.97106 6.59494C4.37696 6.87107 4.36316 7.23832 4.12845 7.62489C1.88907 11.2808 1.7372 15.1548 3.00738 19.1393C3.38015 20.3073 3.94897 21.4146 4.40181 22.5605C5.38294 25.0193 5.56268 27.7251 4.91541 30.292C4.58682 31.645 4.27204 33.0036 3.91859 34.3511C3.80379 34.6444 3.65357 34.9226 3.47127 35.1795L2.93283 35.1739Z" fill="black"/>
<path d="M11.1553 7.69358L12.5967 7.0861C12.5967 6.80998 12.5967 6.53385 12.5967 6.25773C12.5827 6.15892 12.5911 6.05824 12.6213 5.96312C12.6515 5.86801 12.7026 5.78091 12.7711 5.70825C12.8395 5.6356 12.9233 5.57927 13.0165 5.54342C13.1096 5.50757 13.2096 5.49312 13.3091 5.50114C14.2921 5.48457 15.2751 5.47905 16.2581 5.50114C16.7882 5.50114 16.976 5.7607 16.9981 6.34609C16.9981 6.60564 16.9484 6.99774 17.0892 7.10267C17.4459 7.33641 17.8415 7.50472 18.2572 7.5997C18.3704 7.63007 18.5748 7.41469 18.7073 7.28491C19.3949 6.61669 19.613 6.61945 20.295 7.31253C20.8473 7.86478 21.3995 8.41703 21.9518 8.96928C22.4157 9.43593 22.4101 9.77556 21.9518 10.2533C21.7833 10.43 21.4851 10.6564 21.5127 10.8055C21.6038 11.2237 21.7654 11.6233 21.9904 11.9873C22.0512 12.0895 22.3466 12.0784 22.5427 12.0812C23.4649 12.0812 23.6472 12.2579 23.6472 13.1857C23.6472 13.9727 23.6472 14.7596 23.6472 15.5466C23.6472 16.2728 23.4401 16.4661 22.7305 16.4854C22.4875 16.4854 22.1202 16.4523 22.0291 16.5848C21.7872 16.9478 21.6141 17.3521 21.5183 17.7777C21.4879 17.9075 21.7254 18.1201 21.8689 18.2692C22.4626 18.8849 22.4626 19.1445 21.8689 19.7382C21.2753 20.3318 20.7037 20.9007 20.1211 21.4805C19.6517 21.9472 19.3534 21.9472 18.8896 21.5081C18.699 21.3259 18.4643 21.0111 18.2876 21.036C17.8692 21.1221 17.468 21.277 17.1003 21.4943C17.0147 21.5385 17.0091 21.7705 17.0064 21.9334C16.9815 23.0544 16.8932 23.1428 15.7638 23.1428C15.0293 23.1428 14.2976 23.1428 13.5548 23.1428C12.812 23.1428 12.6077 22.9412 12.5911 22.1957C12.5911 21.9555 12.616 21.591 12.4834 21.5026C12.1262 21.2661 11.7238 21.1063 11.3016 21.0332C11.1415 21.0056 10.915 21.3093 10.7494 21.4695C10.2441 21.9527 9.96518 21.9582 9.48196 21.4695L7.65677 19.6553C7.17355 19.1776 7.17079 18.8573 7.61535 18.3741C7.79207 18.1836 8.10133 17.9434 8.07372 17.7722C7.99321 17.3511 7.82786 16.9509 7.58774 16.5959C7.50766 16.4744 7.16526 16.4992 6.9416 16.4965C6.15741 16.4799 5.96688 16.2976 5.96412 15.5079C5.96136 14.7182 5.96412 13.8512 5.96412 13.0394C5.96412 12.3297 6.18778 12.1143 6.88914 12.0923C7.13489 12.0923 7.5049 12.1309 7.59602 11.9984C7.82292 11.6367 7.98895 11.2403 8.08752 10.8248C8.1179 10.7199 7.92185 10.5294 7.8114 10.4079C7.1128 9.71206 7.11556 9.49392 7.83073 8.79256C8.3526 8.28172 8.86344 7.75433 9.37979 7.23521C9.97898 6.63049 10.2441 6.62497 10.846 7.23521C10.9622 7.37877 11.0656 7.53213 11.1553 7.69358ZM8.94627 9.62646C9.06777 9.75623 9.15061 9.85012 9.2362 9.93848C9.80226 10.5211 9.80778 10.6012 9.42121 11.3191C9.22849 11.622 9.08584 11.9539 8.99874 12.3021C8.84963 13.205 8.37193 13.6165 7.4552 13.4977C7.43034 13.4977 7.39997 13.5364 7.36407 13.564V15.1186C7.51006 15.1431 7.65786 15.1551 7.80587 15.1545C8.40231 15.0993 8.75022 15.3395 8.87448 15.9442C8.93318 16.2617 9.04521 16.567 9.20583 16.8471C9.69733 17.6396 9.97346 18.3824 8.9518 18.9402L10.1032 20.1689C10.2247 20.0585 10.3159 19.9756 10.4042 19.8928C11.0006 19.3212 11.078 19.3185 11.8014 19.6995C12.1039 19.891 12.4347 20.0336 12.7817 20.122C13.6873 20.2656 14.096 20.7405 13.9828 21.6572C13.9828 21.6821 14.0159 21.7125 14.0325 21.7373H15.6119C15.6119 21.5827 15.6285 21.4612 15.6313 21.3673C15.6478 20.5389 15.7113 20.4754 16.5232 20.2242C16.881 20.1122 17.2307 19.9757 17.5697 19.8155C18.572 19.3461 18.5665 19.3405 19.3976 20.0916C19.4197 20.1137 19.4611 20.1165 19.5164 20.133L20.6595 19.0285C20.538 18.896 20.4579 18.8021 20.3834 18.7137C19.8146 18.1311 19.809 18.0455 20.1873 17.3331C20.3663 17.0432 20.5021 16.7288 20.5905 16.3998C20.7534 15.5079 21.1897 15.0192 22.1534 15.1572C22.181 15.1572 22.2113 15.1214 22.2362 15.1075V13.4922C22.0678 13.4922 21.9435 13.4756 21.8192 13.4729C21.0544 13.4729 20.9688 13.3928 20.7341 12.6445C20.6623 12.3494 20.5557 12.0639 20.4165 11.794C19.9416 11.0126 19.5881 10.2671 20.6926 9.6734L19.4887 8.46949C19.3617 8.5827 19.2568 8.67382 19.1574 8.77323C18.6051 9.29787 18.4864 9.30891 17.7989 8.94166C17.5399 8.78091 17.2615 8.65379 16.9705 8.56337C16.0703 8.35076 15.3303 8.0415 15.6561 6.87349H13.9828C13.9828 7.05297 13.9635 7.19655 13.9607 7.33738C13.9441 8.0553 13.853 8.16575 13.1323 8.37561C12.7549 8.4943 12.3859 8.63821 12.0278 8.80636C11.0117 9.28406 11.0145 9.29234 10.1585 8.53024C10.1364 8.50815 10.095 8.50815 10.037 8.49158L8.94627 9.62646Z" fill="black"/>
<path d="M5.55672 4.12066C5.64552 4.12027 5.73349 4.13766 5.81547 4.1718C5.89744 4.20594 5.97175 4.25614 6.03402 4.31944C6.09629 4.38274 6.14527 4.45786 6.17806 4.54038C6.21085 4.6229 6.22679 4.71115 6.22495 4.79993C6.2287 4.88537 6.21501 4.97067 6.18471 5.05064C6.15441 5.13061 6.10813 5.20357 6.0487 5.26507C5.98927 5.32656 5.91794 5.37531 5.83905 5.40833C5.76016 5.44134 5.67537 5.45794 5.58986 5.45711C5.49898 5.46766 5.4069 5.45828 5.32002 5.42961C5.23314 5.40095 5.15355 5.3537 5.0868 5.29115C5.02004 5.22859 4.96771 5.15224 4.93347 5.06741C4.89922 4.98258 4.88388 4.8913 4.8885 4.79993C4.88588 4.71095 4.9013 4.62236 4.93381 4.5395C4.96633 4.45663 5.01527 4.3812 5.0777 4.31774C5.14012 4.25428 5.21474 4.20411 5.29707 4.17024C5.37939 4.13637 5.46771 4.11951 5.55672 4.12066Z" fill="black"/>
<path d="M14.8038 18.3104C14.0145 18.3082 13.2435 18.0723 12.5882 17.6324C11.9328 17.1926 11.4224 16.5684 11.1214 15.8388C10.8203 15.1092 10.7421 14.3067 10.8967 13.5327C11.0512 12.7586 11.4315 12.0477 11.9896 11.4896C12.5477 10.9315 13.2586 10.5512 14.0327 10.3967C14.8067 10.2421 15.6092 10.3203 16.3388 10.6214C17.0684 10.9224 17.6926 11.4328 18.1324 12.0882C18.5723 12.7435 18.8082 13.5145 18.8104 14.3038C18.8024 15.364 18.3778 16.3784 17.6281 17.1281C16.8784 17.8778 15.864 18.3024 14.8038 18.3104ZM14.7872 16.9298C15.1315 16.933 15.473 16.8684 15.7922 16.7395C16.1114 16.6106 16.402 16.4201 16.6475 16.1787C16.8929 15.9374 17.0884 15.65 17.2226 15.333C17.3568 15.016 17.4272 14.6757 17.4298 14.3314C17.4542 13.9727 17.4047 13.6128 17.2845 13.274C17.1643 12.9351 16.9758 12.6246 16.7308 12.3615C16.4857 12.0984 16.1893 11.8883 15.8599 11.7443C15.5304 11.6004 15.1749 11.5255 14.8154 11.5243C14.4559 11.5232 14.0999 11.5958 13.7696 11.7377C13.4392 11.8796 13.1415 12.0878 12.8948 12.3494C12.6481 12.6109 12.4577 12.9203 12.3353 13.2584C12.213 13.5964 12.1612 13.956 12.1834 14.3149C12.1797 14.6592 12.2444 15.0009 12.3736 15.3202C12.5027 15.6395 12.6939 15.93 12.936 16.1749C13.1782 16.4199 13.4664 16.6144 13.7842 16.7473C14.1019 16.8802 14.4428 16.9487 14.7872 16.9491V16.9298Z" fill="black"/>
</svg>
