<svg width="31" height="32" viewBox="0 0 31 32" fill="none" xmlns="http://www.w3.org/2000/svg">
<path d="M5.08452 12.5122L5.75458 10.9666C5.8178 10.8195 5.84262 10.658 5.82658 10.4981C5.81054 10.3382 5.7542 10.1853 5.66315 10.0547L4.18792 7.94702C4.06989 7.77903 4.01052 7.57488 4.01944 7.36774C4.02835 7.16061 4.10505 6.96267 4.23705 6.80609L6.35095 4.28395C6.49405 4.11377 6.69269 4.00338 6.90939 3.97362C7.1261 3.94385 7.34589 3.99676 7.52732 4.12236L9.87049 5.74384C9.9972 5.83092 10.1433 5.88344 10.2951 5.89647C10.4469 5.90949 10.5995 5.8826 10.7384 5.81831L12.0867 5.19023C12.2215 5.12746 12.339 5.03115 12.4286 4.90997C12.5181 4.7888 12.577 4.64657 12.5999 4.49612L13.0461 1.64097C13.0796 1.42465 13.1869 1.22772 13.3487 1.08555C13.5106 0.943381 13.7163 0.865307 13.9291 0.865357H17.3012C17.5116 0.865138 17.7153 0.941428 17.8763 1.08076C18.0374 1.2201 18.1454 1.41353 18.1815 1.62692L18.6905 4.57761C18.7149 4.71901 18.7711 4.85259 18.8545 4.96772C18.9379 5.08285 19.0462 5.17636 19.1709 5.24082L20.4455 5.89699C20.5848 5.96877 20.74 6.00186 20.8955 5.99299C21.0511 5.98412 21.2017 5.93359 21.3325 5.84641L23.9091 4.12939C24.0844 4.01315 24.2936 3.96358 24.5007 3.98923C24.7077 4.01488 24.8996 4.11415 25.0431 4.2699L27.3631 6.77096C27.5106 6.93067 27.5977 7.13943 27.6087 7.3595C27.6197 7.57957 27.5539 7.79644 27.4231 7.97091L25.8374 10.0898C25.7479 10.2101 25.6886 10.3512 25.6648 10.5007C25.641 10.6502 25.6534 10.8035 25.7009 10.9469L26.184 12.4293C26.2358 12.5872 26.3281 12.7277 26.4511 12.8361C26.5741 12.9444 26.7232 13.0165 26.8827 13.0447L29.7117 13.5365C29.9202 13.573 30.1094 13.6843 30.2458 13.8507C30.3822 14.0171 30.4569 14.2278 30.4569 14.4456V17.867C30.4571 18.0884 30.3798 18.3024 30.2392 18.4699C30.0986 18.6374 29.9041 18.7471 29.6913 18.7789L26.951 19.192C26.7861 19.217 26.6313 19.289 26.504 19.3997C26.3767 19.5104 26.282 19.6555 26.2304 19.8187L25.7828 21.2322C25.7428 21.359 25.73 21.4932 25.7451 21.6256C25.7601 21.758 25.8028 21.8855 25.8701 21.9994L27.329 24.4484C27.4306 24.6198 27.4752 24.8206 27.456 25.0204C27.4368 25.2202 27.3548 25.4081 27.2225 25.5556L24.9995 28.0258C24.844 28.1989 24.6301 28.3041 24.4016 28.3198C24.1732 28.3355 23.9476 28.2604 23.7712 28.1101L21.7856 26.424C21.6632 26.3201 21.5163 26.2515 21.3597 26.2251C21.2032 26.1987 21.0427 26.2154 20.8945 26.2736L19.1013 26.9846C18.9518 27.044 18.8204 27.1434 18.7208 27.2726C18.6213 27.4018 18.5571 27.5561 18.5349 27.7195L18.1801 30.3892C18.1504 30.6097 18.0443 30.8117 17.8812 30.9578C17.7182 31.104 17.5092 31.1845 17.293 31.1844H14.4272C14.227 31.1843 14.0327 31.115 13.8753 30.9876C13.7179 30.8602 13.6066 30.6822 13.5593 30.4819L12.8892 27.7518C12.8572 27.6207 12.7976 27.4985 12.7146 27.3939C12.6315 27.2892 12.5272 27.2047 12.4088 27.1462L10.7971 26.3523C10.6559 26.2826 10.4993 26.2524 10.3431 26.2647C10.1869 26.2771 10.0366 26.3315 9.90734 26.4226L7.58736 28.0483C7.41336 28.1707 7.20299 28.2259 6.9933 28.2043C6.78362 28.1828 6.58805 28.0857 6.44102 27.9303L4.30119 25.6638C4.15375 25.5079 4.06475 25.3032 4.05001 25.0861C4.03527 24.869 4.09574 24.6535 4.22067 24.4779L5.81327 22.2298C5.90719 22.0978 5.96519 21.9424 5.98126 21.7796C5.99734 21.6168 5.9709 21.4526 5.9047 21.3038L5.1896 19.6936C5.13144 19.5628 5.04439 19.4478 4.9354 19.3578C4.8264 19.2677 4.69848 19.2052 4.56184 19.1751L1.70827 18.547C1.50773 18.5029 1.32796 18.3893 1.19904 18.2251C1.07012 18.0609 0.999855 17.8561 1 17.645V14.4948C1.00025 14.2808 1.07266 14.0737 1.20483 13.9086C1.337 13.7436 1.52074 13.6309 1.72465 13.5899L4.43629 13.0503C4.5786 13.0214 4.71196 12.9573 4.82488 12.8636C4.9378 12.7698 5.0269 12.6492 5.08452 12.5122Z" stroke="white" stroke-miterlimit="10"/>
<path d="M21.2496 19.6417C20.1957 20.9712 18.6965 21.8463 17.0473 22.0947C15.3981 22.3431 13.7183 21.9468 12.3387 20.9838C10.959 20.0209 9.97954 18.561 9.593 16.8917C9.20647 15.2223 9.44091 13.4645 10.2502 11.9642" stroke="white" stroke-linecap="round" stroke-linejoin="round"/>
<path d="M10.6895 11.6846C11.7686 10.407 13.2681 9.58497 14.9 9.37617C16.5319 9.16738 18.1812 9.58656 19.5312 10.5533C20.8813 11.5199 21.837 12.966 22.2148 14.6138C22.5926 16.2617 22.3659 17.9951 21.5783 19.4814" stroke="white" stroke-miterlimit="10" stroke-linecap="round"/>
<path d="M21.382 21.9061V20.0927L19.6748 20.2571" stroke="white" stroke-linecap="round" stroke-linejoin="round"/>
<path d="M10.2216 10.3385L10.2012 12.0845L11.8961 11.8076" stroke="white" stroke-linecap="round" stroke-linejoin="round"/>
<path d="M12.5264 16.1935L14.976 18.8056L19.2638 14.6704L18.2895 13.4465L15.1943 16.4689L13.7 14.8193L12.5264 16.1935Z" stroke="white" stroke-linecap="round" stroke-linejoin="round"/>
</svg>
