<svg width="36" height="20" viewBox="0 0 36 20" fill="none" xmlns="http://www.w3.org/2000/svg">
<path d="M17.7288 1.37036C29.0438 1.37036 34.2927 10.3991 34.2927 10.3991C34.2927 10.3991 28.8189 19.2318 17.5009 19.2318C6.18286 19.2318 1 10.3991 1 10.3991C1 10.3991 6.41381 1.37036 17.7288 1.37036Z" stroke="white" stroke-width="1.5" stroke-linejoin="round"/>
<path d="M17.6459 16.2023C21.0521 16.2023 23.8133 13.5603 23.8133 10.3011C23.8133 7.04196 21.0521 4.3999 17.6459 4.3999C14.2398 4.3999 11.4785 7.04196 11.4785 10.3011C11.4785 13.5603 14.2398 16.2023 17.6459 16.2023Z" stroke="white" stroke-width="1.5" stroke-miterlimit="10"/>
<path d="M15.2025 8.38319C15.6166 7.9003 16.1767 7.55191 16.806 7.38589C17.4353 7.21987 18.1029 7.24436 18.7171 7.45599C19.3313 7.66762 19.8619 8.05601 20.2361 8.56781C20.6103 9.07961 20.8097 9.68972 20.8069 10.3143C20.8041 10.9389 20.5993 11.5474 20.2206 12.0561C19.8418 12.5649 19.3078 12.9489 18.6917 13.1556C18.0757 13.3622 17.4079 13.3812 16.7801 13.2101C16.1523 13.039 15.5953 12.686 15.1855 12.1998" stroke="white" stroke-width="1.5" stroke-miterlimit="10" stroke-linecap="round"/>
</svg>
