<svg width="32" height="32" viewBox="0 0 32 32" fill="none" xmlns="http://www.w3.org/2000/svg">
<g clip-path="url(#clip0_912_64)">
<path d="M18.4998 32H13.5133C13.3765 31.9371 13.2578 31.8405 13.1683 31.7193C13.0788 31.5982 13.0215 31.4563 13.0016 31.307C12.8528 30.6367 12.6857 29.9708 12.5003 29.3093C12.458 29.1723 12.3638 29.0574 12.2378 28.989C11.3403 28.6005 10.4322 28.2382 9.53465 27.855C9.462 27.8182 9.38054 27.8024 9.29942 27.8094C9.2183 27.8163 9.14071 27.8458 9.07537 27.8943C8.49274 28.254 7.90224 28.6031 7.31174 28.9444C6.82884 29.2331 6.61626 29.2069 6.21209 28.8026L3.18609 25.81C2.77405 25.3979 2.75305 25.201 3.06012 24.676C3.41179 24.0879 3.77397 23.5025 4.1099 22.9066C4.14118 22.8469 4.1603 22.7816 4.16616 22.7145C4.17201 22.6474 4.16449 22.5797 4.14402 22.5155C3.77834 21.5967 3.40042 20.6841 3.01025 19.7775C2.94085 19.6514 2.82507 19.5572 2.68744 19.515C2.0287 19.3313 1.37522 19.1659 0.692857 19.011C0.543199 18.9933 0.400691 18.9371 0.279253 18.8478C0.157814 18.7585 0.0615975 18.6393 0 18.5017L0 13.5009C0.0620367 13.3631 0.158716 13.2438 0.280607 13.1545C0.402498 13.0653 0.545438 13.0092 0.695481 12.9916C1.36472 12.8394 2.03133 12.674 2.69007 12.4876C2.82769 12.4454 2.94347 12.3512 3.01288 12.2251C3.4013 11.3273 3.76085 10.419 4.14664 9.52125C4.18257 9.44882 4.1979 9.3679 4.19096 9.28734C4.18402 9.20679 4.15507 9.12969 4.10727 9.06448C3.73985 8.47121 3.38292 7.87268 3.026 7.27416C2.76355 6.83577 2.7898 6.59951 3.1441 6.24512L6.23571 3.15012C6.58214 2.80623 6.82359 2.77736 7.23825 3.02412C7.84713 3.38638 8.45337 3.74865 9.05438 4.12141C9.12059 4.16834 9.19834 4.19632 9.27927 4.20233C9.3602 4.20834 9.44124 4.19217 9.51366 4.15554C10.4042 3.77577 11.2974 3.40651 12.1932 3.04774C12.2752 3.01987 12.3478 2.96976 12.4029 2.90301C12.4581 2.83626 12.4936 2.7555 12.5055 2.66973C12.6604 2.00295 12.8336 1.3388 12.9989 0.672026C13.1223 0.149631 13.3086 0 13.8256 0H18.1691C18.694 0 18.8698 0.147006 18.9958 0.658901C19.1638 1.32568 19.3396 1.98983 19.4892 2.65923C19.5046 2.74922 19.5446 2.83317 19.6049 2.90176C19.6651 2.97035 19.7432 3.02088 19.8304 3.04774C20.7647 3.42576 21.699 3.80902 22.6254 4.20541C22.7011 4.24989 22.7902 4.26562 22.8765 4.24971C22.9628 4.2338 23.0404 4.18732 23.0952 4.11879C24.2237 2.98212 25.3523 1.85857 26.4808 0.735029C27.4623 -0.244135 28.6564 -0.241509 29.6301 0.735029C30.155 1.26005 30.6799 1.78507 31.2232 2.32584C32.2388 3.34438 32.2414 4.5178 31.2232 5.53109C30.1086 6.66513 28.988 7.79655 27.8612 8.92535C27.7991 8.96853 27.7551 9.03314 27.7377 9.10678C27.7202 9.18041 27.7306 9.25789 27.7668 9.32436C28.1788 10.2904 28.5698 11.2643 28.9897 12.2277C29.0237 12.2906 29.0696 12.3461 29.125 12.3911C29.1804 12.4362 29.2441 12.4698 29.3126 12.4902C29.9844 12.674 30.6642 12.8341 31.3386 13.0153C31.8478 13.1413 31.9974 13.325 31.9974 13.8422C31.9974 15.2912 31.9974 16.7394 31.9974 18.1867C31.9974 18.7117 31.8504 18.885 31.336 19.011C30.6615 19.1816 29.9818 19.3391 29.3126 19.536C29.1741 19.5779 29.0574 19.672 28.9871 19.7985C28.5952 20.7033 28.2173 21.6151 27.8534 22.5339C27.8114 22.6639 27.8217 22.8051 27.8822 22.9276C28.2392 23.5498 28.6197 24.1614 28.9845 24.7652C29.2312 25.18 29.2023 25.4189 28.8585 25.7654C27.828 26.7997 26.7966 27.8305 25.7643 28.8578C25.41 29.2121 25.1738 29.2384 24.7381 28.9785C24.1371 28.6215 23.5388 28.2645 22.9456 27.897C22.8806 27.8489 22.8035 27.8198 22.7229 27.8128C22.6423 27.8059 22.5613 27.8214 22.489 27.8576C21.5888 28.2409 20.6807 28.6031 19.7858 28.9916C19.6596 29.0598 19.5654 29.1748 19.5233 29.3119C19.3396 29.9734 19.1743 30.6244 19.0221 31.307C19.0014 31.4575 18.9425 31.6002 18.8511 31.7215C18.7597 31.8428 18.6387 31.9387 18.4998 32ZM21.9431 5.27383C20.9248 4.85119 19.9485 4.4338 18.9643 4.04266C18.8119 3.99026 18.6764 3.89777 18.572 3.7749C18.4676 3.65203 18.3983 3.50332 18.3712 3.34438C18.2137 2.64873 18.03 1.95833 17.8463 1.26267H14.1379C13.9621 1.9767 13.7836 2.68023 13.6131 3.38638C13.5865 3.53001 13.523 3.6642 13.4286 3.77564C13.3342 3.88708 13.2123 3.97189 13.075 4.02166C11.9115 4.49068 10.7506 4.97194 9.59239 5.46546C9.46103 5.52761 9.31555 5.55379 9.17078 5.54134C9.02601 5.52889 8.88713 5.47825 8.76831 5.39459C8.15156 5.0087 7.52432 4.64381 6.94956 4.29992L4.29886 6.9539C4.64791 7.53404 5.01009 8.15619 5.39063 8.76259C5.47596 8.88632 5.52699 9.03045 5.53851 9.18032C5.55004 9.33018 5.52165 9.48043 5.45625 9.61575C4.97859 10.7305 4.51407 11.855 4.06266 12.989C4.00903 13.1587 3.90957 13.3103 3.77527 13.427C3.64097 13.5437 3.47704 13.6211 3.30157 13.6505C2.61658 13.7975 1.93947 13.9865 1.26499 14.1572V17.8507C1.96572 18.024 2.64808 18.2077 3.33831 18.3626C3.50164 18.391 3.65424 18.4631 3.77992 18.5713C3.90559 18.6794 3.99967 18.8196 4.05216 18.9769C4.50007 20.0969 4.96197 21.2117 5.43787 22.3212C5.51393 22.4743 5.54657 22.6453 5.53222 22.8156C5.51788 22.986 5.4571 23.1491 5.35652 23.2873C4.98647 23.8884 4.62692 24.5027 4.28574 25.0697L6.92857 27.7158C7.51907 27.3614 8.13844 27.0018 8.74469 26.6185C8.87221 26.5295 9.02123 26.4762 9.1763 26.4642C9.33136 26.4522 9.48681 26.4819 9.62651 26.5503C10.755 27.0298 11.8923 27.4988 13.0383 27.9573C13.1905 28.0089 13.3261 28.1004 13.4309 28.2223C13.5357 28.3443 13.6059 28.4921 13.6341 28.6504C13.7941 29.346 13.9752 30.039 14.1589 30.7504H17.8594C18.0353 30.039 18.2164 29.3381 18.3843 28.632C18.4119 28.4839 18.4782 28.3456 18.5763 28.2313C18.6745 28.117 18.8011 28.0306 18.9433 27.981C20.1007 27.5163 21.2528 27.0359 22.4024 26.5503C22.533 26.487 22.6781 26.4595 22.8229 26.4706C22.9677 26.4816 23.1069 26.5309 23.2264 26.6133C23.8432 26.9992 24.4704 27.3641 25.0636 27.7211L27.709 25.0697C27.3573 24.4843 26.9978 23.8622 26.6146 23.2558C26.5259 23.128 26.4732 22.9786 26.4621 22.8234C26.451 22.6682 26.482 22.5129 26.5516 22.3737C27.0293 21.252 27.4947 20.1275 27.9478 19.0005C28.0029 18.839 28.1008 18.6954 28.2312 18.5854C28.3616 18.4753 28.5195 18.4028 28.6879 18.3757C29.3755 18.2261 30.0553 18.0397 30.735 17.8691V14.1388C30.2705 14.0259 29.8138 13.9209 29.365 13.8002C27.9583 13.4221 28.2549 13.7188 27.6828 12.3537C27.3652 11.6003 27.0529 10.8443 26.7248 10.0568C26.2 10.5818 25.7223 11.0517 25.2499 11.5478C25.1948 11.603 25.2079 11.7526 25.2342 11.8445C25.473 12.6714 25.7932 13.4825 25.9533 14.3226C26.3988 16.564 26.0086 18.891 24.8562 20.8643C23.0532 24.0144 20.308 25.8153 16.6601 26.0804C13.6131 26.3009 10.9387 25.3112 8.83392 23.114C5.8158 19.9508 5.12294 16.2494 6.6425 12.149C6.81728 11.7149 7.02614 11.2953 7.26712 10.8942C7.32565 10.7752 7.42333 10.68 7.54377 10.6245C7.6642 10.5691 7.80005 10.5568 7.92848 10.5897C8.05747 10.611 8.17498 10.6767 8.26073 10.7754C8.34649 10.8741 8.39513 10.9997 8.39826 11.1304C8.38995 11.3151 8.33777 11.495 8.24604 11.6555C7.64081 12.7403 7.27145 13.9408 7.16214 15.1783C7.036 16.3582 7.15759 17.5514 7.51914 18.6815C7.88068 19.8116 8.47421 20.8537 9.26171 21.7411C11.4059 24.1982 14.1406 25.2194 17.3765 24.739C19.9695 24.3557 21.9877 23.0038 23.4128 20.8249C24.6604 18.9689 25.1314 16.6978 24.725 14.4984C24.6148 13.8605 24.4048 13.2436 24.2421 12.6162L24.1266 12.6005C24.0558 12.6897 23.9902 12.7842 23.9114 12.863C22.0192 14.7662 20.1086 16.6405 18.2426 18.5595C17.6524 19.187 16.913 19.6549 16.0932 19.9193C14.5001 20.4443 12.9438 21.0192 11.3691 21.5783C11.3396 21.589 11.3107 21.6013 11.2825 21.6151C11.1556 21.6816 11.0107 21.7057 10.8691 21.684C10.7274 21.6623 10.5964 21.5958 10.4952 21.4943C10.4021 21.3944 10.3421 21.2682 10.3233 21.1329C10.3045 20.9976 10.3279 20.8598 10.3902 20.7383C11.0752 18.8089 11.7549 16.8768 12.4504 14.9631C12.5329 14.7645 12.6563 14.5856 12.8126 14.4381C14.9069 12.3065 21.4287 5.77523 21.9431 5.27383ZM16.9566 17.9636L27.9347 6.99852C27.6119 6.67039 25.3339 4.37342 25.0137 4.04266L14.054 15.0077C14.3794 15.3358 16.6312 17.6486 16.9592 17.9636H16.9566ZM28.9215 6.08236C29.4464 5.55734 29.9713 5.05332 30.4962 4.5073C30.5772 4.43586 30.642 4.348 30.6865 4.24956C30.7309 4.15112 30.7539 4.04435 30.7539 3.93634C30.7539 3.82833 30.7309 3.72156 30.6865 3.62312C30.642 3.52468 30.5772 3.43682 30.4962 3.36538C29.8821 2.72748 29.2469 2.10008 28.6066 1.47531C28.4754 1.33629 28.2953 1.25366 28.1044 1.24485C27.9134 1.23604 27.7265 1.30172 27.583 1.42806C27.0109 1.96883 26.4729 2.54372 25.9323 3.09237L28.9215 6.08236ZM13.3086 16.2336C13.1905 16.567 13.0462 16.9162 12.9438 17.2837C12.9343 17.3257 12.9341 17.3694 12.9431 17.4115C12.9522 17.4537 12.9703 17.4934 12.9963 17.5278C13.481 18.0266 13.9735 18.5192 14.4739 19.0057C14.5068 19.0338 14.5455 19.0542 14.5873 19.0655C14.629 19.0769 14.6727 19.0789 14.7153 19.0714C15.0775 18.9585 15.4318 18.822 15.7651 18.7039L13.3086 16.2336ZM12.4137 18.7511L11.9675 20.0374L13.222 19.5911L12.4137 18.7511Z" fill="black"/>
<path d="M9.89671 9.29293C9.88939 9.45969 9.81883 9.61739 9.69938 9.73395C9.57993 9.8505 9.42056 9.91715 9.25371 9.92033C9.08701 9.91511 8.92921 9.84386 8.81502 9.72226C8.70084 9.60066 8.63962 9.43867 8.64484 9.27193C8.65006 9.10519 8.72129 8.94734 8.84286 8.83313C8.96443 8.71892 9.12638 8.65768 9.29308 8.66291C9.37418 8.66427 9.45421 8.68168 9.52855 8.71415C9.60288 8.74662 9.67005 8.7935 9.72618 8.85207C9.7823 8.91065 9.82627 8.97977 9.85553 9.05544C9.8848 9.13111 9.8988 9.21182 9.89671 9.29293Z" fill="black"/>
<path d="M24.5732 10.6152L20.7002 6.74121L19.7222 7.71944L23.5952 11.5934L24.5732 10.6152Z" fill="black"/>
</g>
<defs>
<clipPath id="clip0_912_64">
<rect width="32" height="32" fill="white"/>
</clipPath>
</defs>
</svg>
