<svg width="26" height="35" viewBox="0 0 26 35" fill="none" xmlns="http://www.w3.org/2000/svg">
<path d="M12.2389 34.8835C11.4523 34.6214 10.6212 34.409 9.85302 34.076C8.80429 33.6172 8.05707 32.7389 7.28101 31.9288C6.28209 30.88 5.23598 29.8785 4.3734 28.7327C3.84904 28.0458 3.62094 27.1387 3.32467 26.3023C3.14115 25.778 3.36138 25.4214 3.77301 25.3322C4.18463 25.2431 4.50187 25.5079 4.60675 26.0192C4.83847 27.128 5.38778 28.1456 6.18771 28.9477C7.20497 29.9965 8.23011 31.0295 9.28146 32.0441C9.77324 32.5313 10.3566 32.9163 10.998 33.1769C11.6393 33.4375 12.3259 33.5686 13.0181 33.5625C13.7103 33.5564 14.3945 33.4133 15.0312 33.1414C15.6678 32.8696 16.2443 32.4744 16.7274 31.9786C19.2129 29.4931 21.6801 26.9971 24.1603 24.4906C24.3412 24.3277 24.4798 24.1232 24.5643 23.8949C24.6487 23.6666 24.6766 23.4212 24.6454 23.1797C24.6189 22.9671 24.5396 22.7645 24.4146 22.5905C24.2897 22.4164 24.1231 22.2765 23.9302 22.1834C23.7372 22.0903 23.524 22.047 23.31 22.0576C23.096 22.0681 22.8881 22.1321 22.7052 22.2437C22.5531 22.3329 22.4168 22.443 22.2752 22.5452C22.2155 22.6003 22.1453 22.6427 22.0689 22.6699C21.9924 22.6972 21.9112 22.7087 21.8301 22.7038C21.7491 22.6989 21.6699 22.6777 21.5973 22.6414C21.5246 22.6052 21.46 22.5546 21.4074 22.4928C21.3437 22.4364 21.2924 22.3674 21.2568 22.2902C21.2212 22.2129 21.202 22.1291 21.2005 22.044C21.199 21.9589 21.2153 21.8745 21.2482 21.796C21.2811 21.7176 21.3299 21.6468 21.3917 21.5883C21.5883 21.3549 21.8164 21.1478 22.0261 20.925C22.5505 20.3796 22.6134 19.6927 22.2071 19.1841C21.8007 18.6754 21.1059 18.5653 20.4609 18.9848C20.1789 19.19 19.9157 19.4199 19.6744 19.6717C19.3099 20.0099 18.9088 20.0493 18.6256 19.7582C18.3425 19.4672 18.3871 19.0871 18.7095 18.7462C18.9009 18.5443 19.1107 18.3608 19.2942 18.1563C19.5466 17.8872 19.6851 17.5308 19.6807 17.1618C19.6763 16.7929 19.5294 16.4399 19.2706 16.1768C18.7908 15.7154 17.9807 15.7757 17.417 16.3158C17.2151 16.5098 17.029 16.7143 16.8218 16.9005C16.4731 17.2125 16.0903 17.2125 15.8177 16.9162C15.545 16.6199 15.5869 16.2791 15.9121 15.9487C17.431 14.4141 18.9516 12.8803 20.474 11.3474C21.5717 10.2375 22.6702 9.12937 23.7697 8.02296C23.9531 7.84431 24.1231 7.6524 24.2783 7.44878C24.482 7.1771 24.5723 6.83698 24.5303 6.50004C24.4882 6.16309 24.317 5.85562 24.0528 5.64234C23.8063 5.43022 23.4897 5.31731 23.1646 5.32555C22.8395 5.33379 22.529 5.46258 22.2936 5.68691C21.2816 6.67534 20.2879 7.68474 19.289 8.6889C16.2092 11.7896 13.132 14.8895 10.0575 17.9885C9.65376 18.3923 9.38895 18.4316 8.88556 18.1537C8.12427 17.7053 7.52275 17.0295 7.16565 16.2214C6.7647 15.3787 6.4145 14.5129 6.11692 13.6284C5.50079 11.8718 4.38651 10.6422 2.56435 10.1257C2.27885 10.0663 1.98987 10.0251 1.69914 10.0024C1.8381 10.3459 1.92462 10.5687 2.01376 10.789C2.72166 12.5141 3.53704 14.1974 4.11122 15.9749C4.49663 17.1784 4.53071 18.4945 4.71424 19.7609C4.72556 19.8623 4.72114 19.9649 4.70113 20.065C4.67647 20.2327 4.59204 20.3858 4.4634 20.4961C4.33476 20.6064 4.17058 20.6666 4.00111 20.6654C3.83119 20.652 3.67311 20.5731 3.56014 20.4455C3.44718 20.3179 3.38814 20.1514 3.39546 19.9811C3.45314 17.7814 2.76885 15.7573 1.92724 13.7726C1.53397 12.876 1.10923 11.995 0.681876 11.1193C0.388231 10.5032 0.259762 9.88707 0.705472 9.30241C1.15118 8.71774 1.80664 8.59714 2.48307 8.7492C4.71686 9.25521 6.2952 10.5556 7.16565 12.6819C7.61136 13.7752 8.05707 14.8659 8.54473 15.9409C8.75269 16.2852 8.99609 16.6068 9.27097 16.9005C9.85826 16.3053 10.3931 15.7573 10.9332 15.212C14.3608 11.7669 17.7884 8.32184 21.216 4.87677C22.4823 3.61567 24.294 3.74414 25.3428 5.11535C25.6821 5.56063 25.8659 6.105 25.8659 6.66485C25.8659 7.2247 25.6821 7.76907 25.3428 8.21435C24.7345 8.96943 24.0161 9.64587 23.3371 10.3328C22.0261 11.6647 20.7152 12.9861 19.4043 14.3127C19.3257 14.394 19.2523 14.4858 19.1579 14.5906C20.3351 15.136 21.022 15.9959 21.0325 17.3488C21.4494 17.3432 21.8625 17.4295 22.2422 17.6017C22.622 17.7739 22.9591 18.0277 23.2296 18.3451C23.4874 18.6507 23.667 19.0145 23.7529 19.405C23.8388 19.7956 23.8283 20.2011 23.7225 20.5867C24.2678 20.9171 24.8289 21.1373 25.2326 21.5254C25.7245 22.0264 26.0001 22.7004 26.0001 23.4026C26.0001 24.1047 25.7245 24.7788 25.2326 25.2798C23.9217 26.651 22.5741 27.9855 21.237 29.3331C20.107 30.4736 18.9586 31.5958 17.8443 32.7415C16.8053 33.8675 15.4081 34.5985 13.8906 34.8101C13.8346 34.8247 13.7808 34.8467 13.7307 34.8757L12.2389 34.8835Z" fill="black"/>
<path d="M12.0691 3.69971C12.0691 4.38663 12.0691 5.07092 12.0691 5.75522C12.0691 6.23763 11.8226 6.51293 11.4189 6.51817C11.0151 6.52341 10.7529 6.24026 10.7529 5.77095C10.7529 4.40236 10.7529 3.03376 10.7529 1.66517C10.7529 1.19587 11.0151 0.8996 11.4031 0.894356C11.7912 0.889113 12.0612 1.18276 12.0665 1.64682C12.0743 2.33112 12.0691 3.01541 12.0691 3.69971Z" fill="black"/>
<path d="M17.4622 2.12918C17.3986 2.31564 17.3251 2.49856 17.242 2.67714C16.632 3.80452 16.0202 4.92841 15.4067 6.0488C15.1629 6.49189 14.8011 6.63609 14.4419 6.44994C14.0827 6.26379 13.9752 5.87576 14.2164 5.43005C14.8404 4.27907 15.4696 3.13334 16.0962 1.98235C16.2798 1.64152 16.5734 1.45799 16.9247 1.6153C17.1423 1.70968 17.2892 1.964 17.4622 2.12918Z" fill="black"/>
<path d="M6.27189 1.57616C6.44209 1.67517 6.59163 1.80602 6.71235 1.96157C7.37305 3.12566 8.02327 4.30024 8.64464 5.48006C8.85963 5.87858 8.76524 6.24563 8.44014 6.43178C8.35814 6.48029 8.26666 6.51057 8.17191 6.52055C8.07717 6.53053 7.98138 6.51999 7.89108 6.48964C7.80077 6.45929 7.71806 6.40984 7.64858 6.34466C7.5791 6.27948 7.52447 6.2001 7.48841 6.11192C6.82509 4.94259 6.18799 3.7785 5.55351 2.58819C5.27559 2.06907 5.57972 1.55781 6.27189 1.57616Z" fill="black"/>
<path d="M3.80724 22.3277C3.89431 22.3272 3.98056 22.3446 4.06066 22.3787C4.14076 22.4128 4.21301 22.463 4.27296 22.5262C4.33291 22.5893 4.37928 22.6641 4.40921 22.7458C4.43913 22.8276 4.45199 22.9146 4.44697 23.0015C4.44428 23.0883 4.42437 23.1737 4.38841 23.2527C4.35245 23.3317 4.30114 23.4028 4.23748 23.4619C4.17382 23.5209 4.09906 23.5667 4.01755 23.5966C3.93604 23.6265 3.84941 23.6399 3.76267 23.636C3.59456 23.626 3.43653 23.5525 3.32065 23.4303C3.20477 23.3081 3.13971 23.1464 3.13868 22.9779C3.13828 22.8909 3.15544 22.8046 3.18913 22.7244C3.22282 22.6441 3.27235 22.5714 3.33476 22.5107C3.39717 22.45 3.47118 22.4026 3.55236 22.3711C3.63354 22.3397 3.72023 22.3249 3.80724 22.3277Z" fill="black"/>
</svg>
