<svg width="29" height="23" viewBox="0 0 29 23" fill="none" xmlns="http://www.w3.org/2000/svg">
<path d="M10.6182 4.05469H28.146" stroke="white" stroke-width="1.5" stroke-linecap="round" stroke-linejoin="round"/>
<path d="M1.14648 4.05469H4.50213" stroke="white" stroke-width="1.5" stroke-linecap="round" stroke-linejoin="round"/>
<path d="M24.6758 11.3511H28.1466" stroke="white" stroke-width="1.5" stroke-linecap="round" stroke-linejoin="round"/>
<path d="M1.14648 11.3511H18.4745" stroke="white" stroke-width="1.5" stroke-linecap="round" stroke-linejoin="round"/>
<path d="M10.7354 19.0769H28.145" stroke="white" stroke-width="1.5" stroke-linecap="round" stroke-linejoin="round"/>
<path d="M1.14648 19.0769H4.73108" stroke="white" stroke-width="1.5" stroke-linecap="round" stroke-linejoin="round"/>
<path d="M7.55817 7.07932C9.1835 7.07932 10.5011 5.73842 10.5011 4.08434C10.5011 2.43026 9.1835 1.08936 7.55817 1.08936C5.93283 1.08936 4.61523 2.43026 4.61523 4.08434C4.61523 5.73842 5.93283 7.07932 7.55817 7.07932Z" stroke="white" stroke-width="1.5" stroke-linejoin="round"/>
<path d="M21.5679 14.3254C23.1933 14.3254 24.5109 12.9845 24.5109 11.3304C24.5109 9.67635 23.1933 8.33545 21.5679 8.33545C19.9426 8.33545 18.625 9.67635 18.625 11.3304C18.625 12.9845 19.9426 14.3254 21.5679 14.3254Z" stroke="white" stroke-width="1.5" stroke-linejoin="round"/>
<path d="M7.67535 22.1118C9.30069 22.1118 10.6183 20.7709 10.6183 19.1168C10.6183 17.4627 9.30069 16.1218 7.67535 16.1218C6.05002 16.1218 4.73242 17.4627 4.73242 19.1168C4.73242 20.7709 6.05002 22.1118 7.67535 22.1118Z" stroke="white" stroke-width="1.5" stroke-linejoin="round"/>
</svg>
