<svg width="27" height="36" viewBox="0 0 27 36" fill="none" xmlns="http://www.w3.org/2000/svg">
<path d="M13.4349 0.253662C13.4892 1.12101 13.5714 1.99703 13.5731 2.86785C13.5731 3.04132 13.2556 3.34142 13.0795 3.34316C12.9035 3.34489 12.5859 3.03785 12.5859 2.86785C12.5859 2.0005 12.6682 1.13315 12.7225 0.253662L13.4349 0.253662Z" fill="white"/>
<path d="M21.8636 14.7595C21.9009 16.2353 21.5106 17.688 20.7449 18.9239C19.2015 21.44 18.4274 24.3949 18.527 27.3897C18.5501 28.2156 18.2901 28.8645 17.6205 29.3591C17.4181 29.51 17.2915 29.8987 17.2767 30.185C17.2487 31.0526 16.9822 31.7137 16.2698 32.2012C16.1604 32.2999 16.0711 32.4208 16.0072 32.5568C15.9433 32.6928 15.9062 32.841 15.8979 32.9925C15.8107 34.5541 15.1428 35.2481 13.639 35.262C13.2606 35.262 12.8822 35.262 12.5038 35.262C11.1629 35.2412 10.4998 34.5298 10.3863 33.1261C10.3392 32.7369 10.1576 32.3798 9.87628 32.1231C9.30044 31.639 9.00101 31.0664 9.05366 30.3047C9.08327 29.8328 8.88913 29.595 8.56008 29.2636C8.14054 28.842 7.70619 28.1583 7.71113 27.5927C7.74074 24.3653 6.88027 21.478 5.34525 18.6879C2.48579 13.4946 5.7072 6.57658 11.4031 5.43833C16.8703 4.33824 21.8636 8.67437 21.8636 14.7595ZM17.5744 25.6632C17.6584 22.6787 18.787 20.1836 20.1559 17.7665C20.4849 17.1957 20.582 16.4825 20.814 15.7277C20.1559 15.7277 19.6623 15.7416 19.1687 15.7277C18.3872 15.7 18.2112 15.431 18.5501 14.7179C18.8643 14.0533 18.8364 13.4616 18.2918 12.9827C17.8081 12.5542 17.2569 12.568 16.7748 12.9827C16.2286 13.4564 16.176 14.036 16.5067 14.7179C16.8555 15.4258 16.6712 15.7121 15.8946 15.733C15.151 15.752 14.4057 15.733 13.6571 15.733V17.4854C15.4142 17.4664 16.4228 18.2992 16.4655 19.7897C16.51 21.3184 15.5936 22.1495 13.6554 22.3109V25.625C13.8331 25.6406 13.9713 25.6615 14.1112 25.6615C15.2135 25.6649 16.3175 25.6632 17.5679 25.6632H17.5744ZM10.9112 15.7555C10.9112 17.6173 10.0885 18.7365 8.7098 18.7816C7.33107 18.8267 6.49034 17.7995 6.32911 15.7746H5.24653C5.72695 16.8938 6.16623 17.8741 6.57096 18.8701C7.16161 20.3241 7.77858 21.7713 8.28203 23.2618C8.52882 23.9923 8.54363 24.8112 8.66537 25.6042H12.5613C12.5613 24.2317 12.5498 22.9182 12.5613 21.6134C12.5712 20.803 12.8279 20.6313 13.5238 20.9575C14.1457 21.249 14.7989 21.3045 15.1428 20.6538C15.355 20.2565 15.3863 19.5451 15.1839 19.1564C14.8334 18.4814 14.177 18.4762 13.5057 18.8094C12.8345 19.1425 12.5745 18.9464 12.5597 18.1153C12.5465 17.331 12.5597 16.5537 12.5597 15.7572L10.9112 15.7555ZM15.2546 14.5843C15.3073 12.686 16.0674 11.6675 17.4461 11.6137C18.8758 11.5565 19.6902 12.5403 19.8614 14.5635H20.7481C21.064 10.4997 17.4691 6.40827 13.6851 6.44992C13.6679 6.4751 13.6551 6.5033 13.6472 6.5332C13.6357 7.26717 13.6341 8.00287 13.6143 8.73684C13.5913 9.60441 13.3593 9.76231 12.6058 9.3962C11.9658 9.08387 11.3192 9.10296 11.0049 9.75364C10.9078 9.99065 10.8588 10.2465 10.861 10.5047C10.8633 10.7629 10.9168 11.0177 11.0181 11.2528C11.3471 11.8983 11.9806 11.9174 12.6206 11.5998C13.3593 11.2268 13.5962 11.3986 13.6077 12.28C13.6192 13.0365 13.6077 13.7948 13.6077 14.5878L15.2546 14.5843ZM12.5235 6.41174C8.4844 6.62343 4.90103 10.7756 5.47687 14.6242C5.9507 14.6242 6.43934 14.6138 6.92634 14.6242C7.82136 14.645 7.9464 14.8532 7.58444 15.7243C7.31791 16.3611 7.3722 16.9389 7.89539 17.3813C8.38897 17.8012 8.93191 17.7804 9.41397 17.364C9.93058 16.9163 9.99474 16.3541 9.70682 15.7104C9.3317 14.8758 9.48636 14.6381 10.3814 14.6242C11.0954 14.6138 11.8111 14.6242 12.512 14.6242V12.8717C10.7631 12.8943 9.78909 12.1048 9.71505 10.642C9.6295 9.0804 10.5229 8.251 12.5235 8.03931V6.41174ZM8.73941 26.8153C8.62095 28.2833 8.77725 28.4776 10.0556 28.4793C12.0903 28.4793 14.126 28.4793 16.1628 28.4793C17.4033 28.4793 17.5958 28.2225 17.4083 26.8153H8.73941ZM16.1562 29.6523H10.1461C9.96348 31.0404 10.1905 31.3423 11.4031 31.3493C12.5339 31.3493 13.6637 31.3493 14.7923 31.3493C16.0707 31.3458 16.301 31.0647 16.1529 29.6523H16.1562ZM14.7709 32.4841H11.5495C11.3389 33.8722 11.561 34.1585 12.7719 34.1654H13.4728C14.6903 34.1602 14.8877 33.9156 14.7676 32.4841H14.7709Z" fill="white"/>
<path d="M5.27734 2.85624C5.46161 2.63073 5.56362 2.39828 5.71498 2.35144C5.80704 2.33218 5.90214 2.33646 5.99232 2.36393C6.08249 2.39139 6.1651 2.44124 6.23324 2.5093C6.62178 3.11515 6.97295 3.74672 7.28456 4.40012C7.35366 4.54757 7.23849 4.88063 7.10522 5.01941C7.01144 5.12002 6.63468 5.12002 6.57381 5.01941C6.1263 4.34114 5.71827 3.61257 5.27734 2.85624Z" fill="white"/>
<path d="M20.876 2.88912C20.4515 3.6281 20.0698 4.34106 19.6272 5.01065C19.5598 5.11473 19.1518 5.10606 19.0267 4.99504C18.9562 4.90928 18.9072 4.80614 18.8845 4.69516C18.8618 4.58418 18.866 4.46895 18.8968 4.36014C19.1917 3.73235 19.5298 3.12821 19.9086 2.55258C20.0007 2.41207 20.315 2.34095 20.4959 2.37911C20.6309 2.41728 20.723 2.68269 20.876 2.88912Z" fill="white"/>
<path d="M0.639555 7.73901C1.36676 8.24555 2.06435 8.71391 2.73068 9.22738C2.79813 9.27942 2.7389 9.66106 2.63032 9.78075C2.55894 9.84665 2.47327 9.893 2.38087 9.91569C2.28847 9.93838 2.19219 9.93672 2.10054 9.91085C1.48096 9.57669 0.880007 9.20544 0.300632 8.79891C0.2358 8.72386 0.189089 8.63342 0.164458 8.53528C0.139827 8.43714 0.138003 8.33418 0.15914 8.23514C0.200271 8.07554 0.410864 7.96105 0.639555 7.73901Z" fill="white"/>
<path d="M26.141 8.25781C26.0258 8.51107 26.0011 8.70015 25.9024 8.76607C25.292 9.17199 24.6767 9.57444 24.0334 9.91618C23.9051 9.98383 23.5859 9.82944 23.4674 9.67852C23.3819 9.56924 23.4115 9.18067 23.5086 9.11648C24.1609 8.67354 24.8378 8.27211 25.5355 7.91434C25.6573 7.85536 25.9238 8.12424 26.141 8.25781Z" fill="white"/>
</svg>
