<svg width="23" height="20" viewBox="0 0 23 20" fill="none" xmlns="http://www.w3.org/2000/svg">
<path d="M7.18907 4.02707L6.56066 3.34473C6.47687 3.25375 6.38051 3.20827 6.27158 3.20827C6.16266 3.20827 6.0663 3.25375 5.98251 3.34473L0.125683 9.70408C0.0418944 9.79506 0 9.89968 0 10.018C0 10.1362 0.0418944 10.2408 0.125683 10.3318L5.98251 16.6912C6.0663 16.7822 6.16266 16.8276 6.27158 16.8276C6.38051 16.8276 6.47687 16.7822 6.56066 16.6912L7.18907 16.0088C7.27286 15.9179 7.31475 15.8132 7.31475 15.695C7.31475 15.5767 7.27286 15.4721 7.18907 15.3811L2.24973 10.018L7.18907 4.65481C7.27286 4.56383 7.31475 4.45921 7.31475 4.34094C7.31475 4.22267 7.27286 4.11804 7.18907 4.02707ZM14.6169 18.5881L9.92896 0.970211C9.89545 0.85194 9.83051 0.763237 9.73415 0.7041C9.6378 0.644964 9.53934 0.633593 9.4388 0.669985L8.65956 0.901978C8.55064 0.938368 8.46894 1.00888 8.41448 1.1135C8.36002 1.21812 8.34954 1.32957 8.38306 1.44784L13.071 19.0657C13.1046 19.184 13.1695 19.2727 13.2658 19.3318C13.3622 19.3909 13.4607 19.4023 13.5612 19.3659L14.3404 19.1339C14.4494 19.0975 14.5311 19.027 14.5855 18.9224C14.64 18.8178 14.6505 18.7063 14.6169 18.5881ZM22.8743 9.70408L17.0175 3.34473C16.9337 3.25375 16.8373 3.20827 16.7284 3.20827C16.6195 3.20827 16.5231 3.25375 16.4393 3.34473L15.8109 4.02707C15.7271 4.11804 15.6852 4.22267 15.6852 4.34094C15.6852 4.45921 15.7271 4.56383 15.8109 4.65481L20.7503 10.018L15.8109 15.3811C15.7271 15.4721 15.6852 15.5767 15.6852 15.695C15.6852 15.8132 15.7271 15.9179 15.8109 16.0088L16.4393 16.6912C16.5231 16.7822 16.6195 16.8276 16.7284 16.8276C16.8373 16.8276 16.9337 16.7822 17.0175 16.6912L22.8743 10.3318C22.9581 10.2408 23 10.1362 23 10.018C23 9.89968 22.9581 9.79506 22.8743 9.70408Z" fill="#595959"/>
</svg>
