<svg xmlns="http://www.w3.org/2000/svg" viewBox="0 0 141.24 78.06"><g id="Слой_2" data-name="Слой 2"><g id="Слой_1-2" data-name="Слой 1"><path d="M141.24,26.69c-.36,1.64-.63,3.3-1.1,4.9a24.59,24.59,0,0,1-23.63,17.8c-8.57.06-17.15,0-25.72,0H89.06l-.12.37c.64.44,1.26.9,1.92,1.32,1.23.78,2.51,1.5,3.73,2.31,2,1.31,2,3.39,0,4.76a5.19,5.19,0,0,1-1,.6c-1.51.61-1.52,1.46-.67,2.73,1.39,2.07,2.65,4.23,3.94,6.36,1.1,1.81.81,3.13-1,4.27-2.84,1.79-5.7,3.56-8.6,5.27-2,1.17-3.27.78-4.47-1.2l-4.78-7.75c-1,.57-1.84,1.1-2.73,1.57-2.06,1.09-3.89.21-4.12-2.11q-.83-8.41-1.47-16.86c-.1-1.37-.62-1.67-1.9-1.67q-21.5.06-43,0A24.68,24.68,0,0,1,1.15,32.12C-3.74,16.58,7.53.51,23.81.13,35.1-.12,46.39.07,57.68.08c1.94,0,3.08,1,3.1,2.6s-1.17,2.68-3.19,2.69c-11,0-21.92,0-32.89,0A19.29,19.29,0,0,0,5.53,21.79C3.73,33.16,12.57,43.93,24,44c14.54.14,29.09,0,43.64,0,.37,0,.74-.06,1.21-.1,0-.47.09-.89.1-1.3.06-2.52,2-3.66,4.26-2.42A28.34,28.34,0,0,1,77,42.56c1.75,1.37,3.68,1.56,5.8,1.54,11.29-.06,22.58,0,33.87-.05A19.33,19.33,0,0,0,116.9,5.4c-10.85-.09-21.71,0-32.57,0-2.7,0-4-.9-4-2.73S81.61.07,84.29.07c10.48,0,20.95,0,31.43,0,13.3,0,23.1,8.46,25.2,21.64a8.34,8.34,0,0,0,.32,1.08ZM76.05,63a3.26,3.26,0,0,0,.64-.07c2.93-1.26,3.5-1.1,5.14,1.53,1.49,2.38,3,4.77,4.54,7.33l4.86-3c-1.52-2.47-2.94-4.76-4.34-7.06-1.81-3-1.7-3.56,1-5.66.06-.05,0-.19.12-.47L74.7,47.38C75.17,52.84,75.6,57.83,76.05,63Z"/><path d="M31.37,23.92c.83-2.31,1.53-4.28,2.24-6.24.57-1.57.89-3.46,3.07-3.5s2.64,1.87,3.2,3.53a36.68,36.68,0,0,0,2.37,5.8c.82-2.28,1.65-4.55,2.45-6.83.69-1.93,1.92-2.73,3.51-2.27s2.13,2,1.48,3.88c-1.64,4.83-3.33,9.63-5,14.44a2.71,2.71,0,0,1-5.29,0,53,53,0,0,0-2.9-7.21c-.62,1.7-1.24,3.39-1.85,5.09-.3.81-.57,1.63-.89,2.44a2.51,2.51,0,0,1-2.61,1.8,2.58,2.58,0,0,1-2.5-1.95c-1.32-3.8-2.6-7.6-3.91-11.39-.38-1.13-.82-2.24-1.18-3.38C23,16.41,23.62,15,25,14.46a2.65,2.65,0,0,1,3.48,1.81c.8,2.08,1.49,4.19,2.24,6.29C30.88,22.89,31.05,23.21,31.37,23.92Z"/><path d="M95.54,23.49l2.31-6.37c.19-.51.25-1.18.61-1.48.75-.6,1.73-1.46,2.5-1.35a3.65,3.65,0,0,1,2.34,1.85,49.38,49.38,0,0,1,1.94,5.52,3.85,3.85,0,0,0,1.05,1.73c.48-1.29,1-2.57,1.43-3.86s.8-2.49,1.33-3.67a2.61,2.61,0,0,1,3.41-1.38,2.57,2.57,0,0,1,1.46,3.23C112.18,22.84,110.45,28,108.53,33a3.79,3.79,0,0,1-2.44,1.72c-1.25.32-2.14-.59-2.57-1.76-.7-1.94-1.34-3.9-2-5.84-.19-.55-.42-1.08-.82-2.11l-2.18,6c-.21.56-.43,1.12-.61,1.69a2.61,2.61,0,0,1-2.56,2.09,2.66,2.66,0,0,1-2.72-2.12q-1.87-5.46-3.76-10.91c-.44-1.28-.92-2.55-1.28-3.86-.47-1.73.24-3.15,1.68-3.53a2.74,2.74,0,0,1,3.38,2l2.43,7Z"/><path d="M63.51,23.56c.85-2.33,1.74-4.65,2.54-7,.46-1.36,1.18-2.39,2.7-2.39s2.28,1,2.73,2.37c.74,2.31,1.58,4.6,2.51,7.31.38-.81.65-1.29.83-1.79.68-1.89,1.3-3.8,2-5.68s2-2.47,3.56-1.92,2,1.94,1.41,3.68C80.1,23.06,78.35,28,76.62,32.86a2.57,2.57,0,0,1-2.65,2,2.66,2.66,0,0,1-2.56-2.11,59.78,59.78,0,0,0-2.88-7.26c-.73,2-1.48,4-2.2,6-.56,1.57-.87,3.37-3.13,3.36s-2.47-1.8-3-3.3c-1.56-4.45-3.1-8.91-4.58-13.38-.77-2.31.71-4.3,2.82-3.7a4,4,0,0,1,2.14,2.11c1,2.28,1.69,4.67,2.5,7Z"/><path d="M121.73,35.33a3.08,3.08,0,0,1-3-3.08,2.9,2.9,0,0,1,3-3,3,3,0,0,1,3.1,3.09A3.29,3.29,0,0,1,121.73,35.33Z"/><path d="M70.5.1a2.59,2.59,0,0,1,2.66,2.5A2.6,2.6,0,1,1,70.5.1Z"/></g></g></svg>