<svg width="28" height="27" viewBox="0 0 28 27" fill="none" xmlns="http://www.w3.org/2000/svg">
<path d="M4.43044 26.8627H0.966982C0.740428 26.8623 0.523267 26.7701 0.363069 26.6063C0.202872 26.4424 0.112699 26.2204 0.112305 25.9887V17.5251C0.112699 17.2934 0.202872 17.0714 0.363069 16.9075C0.523267 16.7437 0.740428 16.6515 0.966982 16.6511H4.43044C4.65699 16.6515 4.87415 16.7437 5.03435 16.9075C5.19455 17.0714 5.28472 17.2934 5.28511 17.5251V25.9887C5.28472 26.2204 5.19455 26.4424 5.03435 26.6063C4.87415 26.7701 4.65699 26.8623 4.43044 26.8627ZM0.966982 17.2948C0.908026 17.296 0.851881 17.3208 0.810606 17.3638C0.76933 17.4069 0.746216 17.4648 0.746227 17.5251V25.9887C0.746621 26.0495 0.770525 26.1077 0.812721 26.1506C0.854917 26.1934 0.91198 26.2175 0.971457 26.2175H4.43044C4.48991 26.2175 4.54698 26.1934 4.58917 26.1506C4.63137 26.1077 4.65527 26.0495 4.65567 25.9887V17.5251C4.65567 17.464 4.63194 17.4054 4.5897 17.3622C4.54746 17.319 4.49017 17.2948 4.43044 17.2948H0.966982Z" fill="white"/>
<path d="M4.43 26.9771H0.966546C0.710323 26.9767 0.464708 26.8724 0.28353 26.6872C0.102353 26.5019 0.000394493 26.2507 0 25.9887L0 17.5251C0 17.263 0.101832 17.0116 0.283095 16.8262C0.464357 16.6409 0.710202 16.5367 0.966546 16.5367H4.43C4.68635 16.5367 4.93219 16.6409 5.11345 16.8262C5.29472 17.0116 5.39655 17.263 5.39655 17.5251V25.9887C5.39615 26.2507 5.29419 26.5019 5.11302 26.6872C4.93184 26.8724 4.68623 26.9767 4.43 26.9771ZM0.966546 16.7655C0.868607 16.7655 0.771627 16.7853 0.681144 16.8236C0.59066 16.8619 0.508445 16.9181 0.439192 16.9889C0.299329 17.1319 0.220754 17.3259 0.220754 17.5282V25.9918C0.220754 26.194 0.299329 26.388 0.439192 26.531C0.508445 26.6019 0.59066 26.658 0.681144 26.6964C0.771627 26.7347 0.868607 26.7544 0.966546 26.7544H4.43C4.52794 26.7544 4.62492 26.7347 4.7154 26.6964C4.80589 26.658 4.8881 26.6019 4.95736 26.531C5.02661 26.4602 5.08154 26.3761 5.11902 26.2836C5.1565 26.1911 5.17579 26.0919 5.17579 25.9918V17.5251C5.17579 17.3228 5.09722 17.1289 4.95736 16.9858C4.81749 16.8428 4.6278 16.7625 4.43 16.7625L0.966546 16.7655ZM4.43 26.3319H0.966546C0.8774 26.3319 0.791883 26.2958 0.728708 26.2315C0.665532 26.1672 0.629843 26.0799 0.629448 25.9887V17.5251C0.629448 17.4337 0.664964 17.346 0.728182 17.2814C0.7914 17.2167 0.877142 17.1804 0.966546 17.1804H4.43C4.47477 17.1796 4.51925 17.1879 4.56084 17.2049C4.60243 17.2218 4.6403 17.2471 4.67223 17.2792C4.70417 17.3113 4.72954 17.3495 4.74685 17.3918C4.76416 17.434 4.77307 17.4793 4.77307 17.5251V25.9887C4.77288 26.0344 4.76382 26.0795 4.74642 26.1216C4.72902 26.1636 4.70362 26.2017 4.6717 26.2337C4.63979 26.2656 4.60198 26.2907 4.56049 26.3076C4.519 26.3244 4.47465 26.3327 4.43 26.3319ZM0.966546 17.4092C0.936481 17.4092 0.907647 17.4214 0.886388 17.4431C0.865129 17.4649 0.853186 17.4944 0.853186 17.5251V25.9887C0.853578 26.0192 0.865694 26.0483 0.886911 26.0697C0.908128 26.0911 0.936738 26.1031 0.966546 26.1031H4.43C4.45981 26.1031 4.48842 26.0911 4.50964 26.0697C4.53085 26.0483 4.54297 26.0192 4.54336 25.9887V17.5251C4.54336 17.4944 4.53142 17.4649 4.51016 17.4431C4.4889 17.4214 4.46007 17.4092 4.43 17.4092H0.966546Z" fill="white"/>
<path d="M11.9197 26.8856H8.45624C8.23072 26.8836 8.01509 26.7906 7.85618 26.627C7.69727 26.4634 7.60791 26.2422 7.60753 26.0116V16.0761C7.60753 15.9908 7.64069 15.9089 7.69971 15.8485C7.75873 15.7882 7.83878 15.7543 7.92225 15.7543C8.00572 15.7543 8.08577 15.7882 8.1448 15.8485C8.20382 15.9089 8.23698 15.9908 8.23698 16.0761V26.0116C8.23737 26.0724 8.26127 26.1306 8.30347 26.1735C8.34567 26.2163 8.40273 26.2404 8.46221 26.2404H11.9197C11.9792 26.2404 12.0362 26.2163 12.0784 26.1735C12.1206 26.1306 12.1445 26.0724 12.1449 26.0116V11.8969C12.1445 11.8361 12.1206 11.7779 12.0784 11.735C12.0362 11.6922 11.9792 11.6681 11.9197 11.6681H8.45624C8.39676 11.6681 8.3397 11.6922 8.2975 11.735C8.25531 11.7779 8.2314 11.8361 8.23101 11.8969V14.3999C8.23101 14.4852 8.19785 14.5671 8.13883 14.6274C8.07981 14.6878 7.99976 14.7217 7.91629 14.7217C7.83282 14.7217 7.75277 14.6878 7.69374 14.6274C7.63472 14.5671 7.60156 14.4852 7.60156 14.3999V11.8969C7.60196 11.6653 7.69213 11.4432 7.85233 11.2794C8.01252 11.1156 8.22969 11.0234 8.45624 11.0229H11.9197C12.1462 11.0234 12.3634 11.1156 12.5236 11.2794C12.6838 11.4432 12.774 11.6653 12.7744 11.8969V26.0192C12.772 26.2496 12.681 26.4697 12.521 26.6318C12.361 26.794 12.145 26.8852 11.9197 26.8856Z" fill="white"/>
<path d="M11.9193 26.9969H8.4558C8.19958 26.9965 7.95397 26.8923 7.77279 26.707C7.59161 26.5217 7.48965 26.2706 7.48926 26.0086V16.0761C7.48926 15.9604 7.5342 15.8495 7.6142 15.7677C7.69421 15.6859 7.80271 15.6399 7.91585 15.6399C8.02899 15.6399 8.1375 15.6859 8.2175 15.7677C8.2975 15.8495 8.34244 15.9604 8.34244 16.0761V26.0116C8.34284 26.0421 8.35495 26.0712 8.37617 26.0926C8.39739 26.114 8.426 26.126 8.4558 26.126H11.9193C11.9491 26.126 11.9777 26.114 11.9989 26.0926C12.0201 26.0712 12.0322 26.0421 12.0326 26.0116V11.8969C12.0322 11.8665 12.0201 11.8374 11.9989 11.816C11.9777 11.7945 11.9491 11.7825 11.9193 11.7825H8.4558C8.426 11.7825 8.39739 11.7945 8.37617 11.816C8.35495 11.8374 8.34284 11.8665 8.34244 11.8969V14.3999C8.34244 14.5156 8.2975 14.6265 8.2175 14.7083C8.1375 14.7901 8.02899 14.8361 7.91585 14.8361C7.80271 14.8361 7.69421 14.7901 7.6142 14.7083C7.5342 14.6265 7.48926 14.5156 7.48926 14.3999V11.8969C7.48965 11.6349 7.59161 11.3838 7.77279 11.1985C7.95397 11.0132 8.19958 10.909 8.4558 10.9086H11.9193C12.1756 10.9086 12.4214 11.0127 12.6027 11.1981C12.784 11.3834 12.8858 11.6348 12.8858 11.8969V26.0192C12.8831 26.2795 12.78 26.5282 12.599 26.7112C12.4181 26.8943 12.1738 26.9969 11.9193 26.9969ZM7.91585 15.8626C7.86205 15.8626 7.81045 15.8844 7.77241 15.9233C7.73437 15.9622 7.713 16.015 7.713 16.07V26.0055C7.713 26.2078 7.79157 26.4017 7.93143 26.5448C8.0713 26.6878 8.26099 26.7681 8.45879 26.7681H11.9193C12.1171 26.7681 12.3068 26.6878 12.4466 26.5448C12.5865 26.4017 12.6651 26.2078 12.6651 26.0055V11.8969C12.6651 11.6947 12.5865 11.5007 12.4466 11.3577C12.3068 11.2147 12.1171 11.1343 11.9193 11.1343H8.4558C8.25801 11.1343 8.06831 11.2147 7.92845 11.3577C7.78859 11.5007 7.71001 11.6947 7.71001 11.8969V14.3999C7.71001 14.4549 7.73138 14.5076 7.76943 14.5465C7.80747 14.5855 7.85907 14.6073 7.91287 14.6073C7.96667 14.6073 8.01827 14.5855 8.05631 14.5465C8.09435 14.5076 8.11572 14.4549 8.11572 14.3999V11.8969C8.11612 11.8058 8.15181 11.7185 8.21498 11.6542C8.27816 11.5899 8.36367 11.5538 8.45282 11.5538H11.9193C12.0084 11.5538 12.0939 11.5899 12.1571 11.6542C12.2203 11.7185 12.256 11.8058 12.2564 11.8969V26.0192C12.256 26.1104 12.2203 26.1977 12.1571 26.262C12.0939 26.3263 12.0084 26.3624 11.9193 26.3624H8.4558C8.36666 26.3624 8.28114 26.3263 8.21797 26.262C8.15479 26.1977 8.1191 26.1104 8.11871 26.0192V16.0761C8.1195 16.0484 8.11485 16.0207 8.10501 15.9949C8.09518 15.969 8.08036 15.9454 8.06144 15.9255C8.04253 15.9056 8.01989 15.8897 7.99488 15.8789C7.96987 15.8681 7.943 15.8626 7.91585 15.8626Z" fill="white"/>
<path d="M19.5671 26.8857H16.1096C15.883 26.8853 15.6659 26.793 15.5057 26.6292C15.3455 26.4654 15.2553 26.2434 15.2549 26.0117V15.2526C15.2545 15.1375 15.2763 15.0234 15.3191 14.9169C15.3618 14.8105 15.4247 14.7137 15.5041 14.6321C15.5835 14.5505 15.6778 14.4857 15.7817 14.4414C15.8856 14.3971 15.997 14.3742 16.1096 14.374H19.573C19.7996 14.3744 20.0167 14.4666 20.1769 14.6304C20.3371 14.7943 20.4273 15.0163 20.4277 15.248V26.0117C20.4275 26.1269 20.4051 26.241 20.3617 26.3473C20.3183 26.4537 20.2548 26.5502 20.1748 26.6314C20.0949 26.7126 20 26.7768 19.8957 26.8205C19.7914 26.8641 19.6797 26.8863 19.5671 26.8857ZM16.1096 15.0177C16.05 15.0181 15.9929 15.0425 15.9507 15.0856C15.9086 15.1287 15.8847 15.187 15.8843 15.248V26.0117C15.8863 26.0714 15.9109 26.1281 15.9529 26.1696C15.9949 26.2112 16.0511 26.2344 16.1096 26.2344H19.573C19.6325 26.2344 19.6896 26.2103 19.7318 26.1675C19.774 26.1246 19.7979 26.0664 19.7983 26.0056V15.2526C19.7979 15.1916 19.774 15.1333 19.7319 15.0902C19.6897 15.047 19.6326 15.0227 19.573 15.0223L16.1096 15.0177Z" fill="white"/>
<path d="M19.5666 26.9969H16.1091C15.8529 26.9965 15.6073 26.8922 15.4261 26.707C15.2449 26.5217 15.143 26.2705 15.1426 26.0085V15.2525C15.1422 15.1223 15.1669 14.9934 15.2153 14.8731C15.2637 14.7527 15.3348 14.6433 15.4245 14.5511C15.5143 14.4588 15.621 14.3856 15.7384 14.3356C15.8559 14.2856 15.9819 14.2597 16.1091 14.2595H19.5726C19.8288 14.2599 20.0744 14.3642 20.2556 14.5495C20.4368 14.7347 20.5387 14.9859 20.5391 15.2479V26.0116C20.5385 26.1416 20.5129 26.2702 20.4637 26.3901C20.4145 26.5099 20.3427 26.6187 20.2524 26.7102C20.1621 26.8017 20.0551 26.8741 19.9374 26.9233C19.8197 26.9725 19.6937 26.9975 19.5666 26.9969ZM16.1091 14.4898C15.9113 14.4898 15.7216 14.5702 15.5818 14.7132C15.4419 14.8562 15.3633 15.0502 15.3633 15.2525V26.0162C15.3633 26.2184 15.4419 26.4124 15.5818 26.5554C15.7216 26.6984 15.9113 26.7788 16.1091 26.7788H19.5726C19.7704 26.7788 19.9601 26.6984 20.0999 26.5554C20.2398 26.4124 20.3184 26.2184 20.3184 26.0162V15.2525C20.3184 15.0502 20.2398 14.8562 20.0999 14.7132C19.9601 14.5702 19.7704 14.4898 19.5726 14.4898H16.1091ZM19.5726 26.3563H16.1091C16.02 26.3563 15.9345 26.3202 15.8713 26.2559C15.8081 26.1916 15.7724 26.1043 15.772 26.0131V15.2525C15.7714 15.2068 15.7797 15.1615 15.7964 15.1191C15.8131 15.0768 15.8378 15.0382 15.8692 15.0058C15.9005 14.9733 15.9379 14.9475 15.9791 14.9298C16.0203 14.9122 16.0645 14.9032 16.1091 14.9032H19.5726C19.6169 14.9032 19.6607 14.9121 19.7016 14.9294C19.7425 14.9467 19.7796 14.9721 19.8109 15.0041C19.8423 15.0361 19.8671 15.0741 19.884 15.116C19.901 15.1578 19.9097 15.2026 19.9097 15.2479V26.0116C19.9095 26.0572 19.9004 26.1024 19.883 26.1445C19.8656 26.1865 19.8402 26.2246 19.8083 26.2565C19.7764 26.2884 19.7386 26.3136 19.6971 26.3304C19.6556 26.3473 19.6113 26.3556 19.5666 26.3548L19.5726 26.3563ZM16.1091 15.132C16.0791 15.132 16.0502 15.1442 16.029 15.1659C16.0077 15.1877 15.9958 15.2171 15.9958 15.2479V26.0116C15.9962 26.0421 16.0083 26.0712 16.0295 26.0926C16.0507 26.114 16.0793 26.126 16.1091 26.126H19.5726C19.6024 26.126 19.631 26.114 19.6522 26.0926C19.6734 26.0712 19.6856 26.0421 19.6859 26.0116V15.2525C19.6859 15.2217 19.674 15.1922 19.6527 15.1705C19.6315 15.1488 19.6027 15.1365 19.5726 15.1365L16.1091 15.132Z" fill="white"/>
<path d="M27.033 26.8856H23.5666C23.34 26.8852 23.1229 26.793 22.9627 26.6291C22.8025 26.4653 22.7123 26.2433 22.7119 26.0116V22.1268C22.7119 22.0414 22.7451 21.9596 22.8041 21.8992C22.8631 21.8389 22.9432 21.805 23.0266 21.805C23.1101 21.805 23.1902 21.8389 23.2492 21.8992C23.3082 21.9596 23.3414 22.0414 23.3414 22.1268V26.0116C23.3433 26.0713 23.3679 26.128 23.4099 26.1695C23.4519 26.2111 23.5081 26.2343 23.5666 26.2343H27.03C27.0895 26.2343 27.1466 26.2102 27.1888 26.1674C27.231 26.1245 27.2549 26.0663 27.2553 26.0055V8.57797C27.2549 8.51701 27.231 8.45866 27.1889 8.41556C27.1467 8.37245 27.0897 8.34806 27.03 8.34766H23.5666C23.507 8.34806 23.4499 8.37245 23.4078 8.41556C23.3656 8.45866 23.3418 8.51701 23.3414 8.57797V20.3224C23.3414 20.4078 23.3082 20.4896 23.2492 20.55C23.1902 20.6103 23.1101 20.6442 23.0266 20.6442C22.9432 20.6442 22.8631 20.6103 22.8041 20.55C22.7451 20.4896 22.7119 20.4078 22.7119 20.3224V8.57797C22.7123 8.3463 22.8025 8.12424 22.9627 7.96043C23.1229 7.79661 23.34 7.7044 23.5666 7.704H27.03C27.1429 7.7032 27.2547 7.7252 27.3592 7.76874C27.4636 7.81228 27.5587 7.87651 27.6388 7.95772C27.7189 8.03894 27.7825 8.13554 27.826 8.24199C27.8695 8.34843 27.892 8.46261 27.8922 8.57797V26.0116C27.892 26.1267 27.8696 26.2406 27.8263 26.3469C27.783 26.4531 27.7196 26.5496 27.6398 26.6308C27.56 26.7119 27.4654 26.7762 27.3612 26.8199C27.2571 26.8637 27.1456 26.886 27.033 26.8856Z" fill="white"/>
<path d="M27.0336 26.9969H23.5671C23.3109 26.9965 23.0653 26.8922 22.8841 26.707C22.7029 26.5217 22.601 26.2705 22.6006 26.0085V22.1268C22.6006 22.0111 22.6455 21.9001 22.7255 21.8183C22.8055 21.7365 22.914 21.6905 23.0272 21.6905C23.1403 21.6905 23.2488 21.7365 23.3288 21.8183C23.4088 21.9001 23.4538 22.0111 23.4538 22.1268V26.0116C23.4542 26.0421 23.4663 26.0712 23.4875 26.0926C23.5087 26.114 23.5373 26.126 23.5671 26.126H27.0306C27.0604 26.126 27.089 26.114 27.1102 26.0926C27.1314 26.0712 27.1436 26.0421 27.1439 26.0116V8.57796C27.1439 8.54722 27.132 8.51773 27.1107 8.496C27.0895 8.47426 27.0607 8.46204 27.0306 8.46204H23.5671C23.5371 8.46204 23.5082 8.47426 23.487 8.496C23.4657 8.51773 23.4538 8.54722 23.4538 8.57796V20.3224C23.4538 20.4381 23.4088 20.549 23.3288 20.6309C23.2488 20.7127 23.1403 20.7586 23.0272 20.7586C22.914 20.7586 22.8055 20.7127 22.7255 20.6309C22.6455 20.549 22.6006 20.4381 22.6006 20.3224V8.57796C22.601 8.31596 22.7029 8.0648 22.8841 7.87953C23.0653 7.69426 23.3109 7.59 23.5671 7.5896H27.0306C27.2869 7.5896 27.5328 7.69373 27.714 7.87908C27.8953 8.06444 27.9971 8.31583 27.9971 8.57796V26.0116C27.9963 26.2727 27.8946 26.5228 27.714 26.7074C27.5335 26.892 27.2889 26.9961 27.0336 26.9969ZM23.0302 21.9193C22.9764 21.9193 22.9248 21.9412 22.8867 21.9801C22.8487 22.019 22.8273 22.0718 22.8273 22.1268V26.0116C22.8273 26.2138 22.9059 26.4078 23.0457 26.5508C23.1856 26.6939 23.3753 26.7742 23.5731 26.7742H27.0366C27.2343 26.7742 27.424 26.6939 27.5639 26.5508C27.7038 26.4078 27.7823 26.2138 27.7823 26.0116V8.57796C27.7823 8.3757 27.7038 8.18173 27.5639 8.03871C27.424 7.89569 27.2343 7.81534 27.0366 7.81534H23.5671C23.3693 7.81534 23.1796 7.89569 23.0398 8.03871C22.8999 8.18173 22.8213 8.3757 22.8213 8.57796V20.3224C22.8213 20.3774 22.8427 20.4302 22.8808 20.4691C22.9188 20.508 22.9704 20.5298 23.0242 20.5298C23.078 20.5298 23.1296 20.508 23.1676 20.4691C23.2057 20.4302 23.2271 20.3774 23.2271 20.3224V8.57796C23.2274 8.53269 23.2365 8.48795 23.2538 8.44628C23.2711 8.40461 23.2963 8.36683 23.3279 8.33511C23.3595 8.30338 23.3969 8.27833 23.4379 8.26137C23.479 8.24442 23.5229 8.2359 23.5671 8.23631H27.0306C27.12 8.23631 27.2057 8.27262 27.269 8.33727C27.3322 8.40191 27.3677 8.48959 27.3677 8.58101V26.0146C27.3673 26.1058 27.3316 26.1931 27.2684 26.2574C27.2052 26.3217 27.1197 26.3578 27.0306 26.3578H23.5671C23.478 26.3578 23.3925 26.3217 23.3293 26.2574C23.2661 26.1931 23.2304 26.1058 23.23 26.0146V22.1268C23.23 22.0723 23.2091 22.02 23.1717 21.9812C23.1343 21.9423 23.0834 21.9201 23.0302 21.9193Z" fill="white"/>
<path d="M8.91933 7.43901L4.74902 10.8567L5.14267 11.3589L9.31297 7.94127L8.91933 7.43901Z" fill="white"/>
<path d="M5.12676 11.5187L4.59277 10.8384L8.93775 7.27698L9.47174 7.95724L5.12676 11.5187ZM4.9075 10.8735L5.16256 11.1969L9.15702 7.92216L8.90345 7.59881L4.9075 10.8735Z" fill="white"/>
<path d="M7.76314 5.93813L3.74414 9.23181L4.13778 9.73407L8.15678 6.44039L7.76314 5.93813Z" fill="white"/>
<path d="M4.1209 9.8943L3.58691 9.21251L7.78125 5.77612L8.31523 6.45639L4.1209 9.8943ZM3.90164 9.2476L4.15521 9.57247L8.00051 6.4213L7.74694 6.101L3.90164 9.2476Z" fill="white"/>
<path d="M2.69782 14.1437C2.1907 14.1437 1.69497 13.9899 1.27332 13.7018C0.851669 13.4137 0.523031 13.0043 0.328965 12.5252C0.1349 12.0461 0.0841236 11.5189 0.183057 11.0103C0.281991 10.5017 0.526191 10.0345 0.884778 9.66784C1.24336 9.30116 1.70023 9.05145 2.1976 8.95028C2.69498 8.84912 3.21052 8.90104 3.67903 9.09948C4.14755 9.29793 4.548 9.63399 4.82974 10.0652C5.11148 10.4963 5.26185 11.0032 5.26185 11.5218C5.26106 12.2169 4.99067 12.8834 4.50999 13.3749C4.02932 13.8664 3.3776 14.1429 2.69782 14.1437ZM2.69782 9.54356C2.31431 9.54356 1.93942 9.65985 1.62054 9.87773C1.30166 10.0956 1.05313 10.4053 0.906366 10.7676C0.759603 11.1299 0.721203 11.5286 0.796022 11.9132C0.870841 12.2978 1.05552 12.6512 1.3267 12.9285C1.59788 13.2058 1.94339 13.3946 2.31953 13.4711C2.69567 13.5476 3.08555 13.5084 3.43987 13.3583C3.79418 13.2082 4.09702 12.9541 4.31009 12.628C4.52316 12.3019 4.63688 11.9186 4.63688 11.5264C4.63688 11.266 4.58672 11.0082 4.48928 10.7676C4.39183 10.527 4.249 10.3084 4.06894 10.1243C3.88888 9.94019 3.67512 9.79414 3.43987 9.69449C3.20461 9.59485 2.95246 9.54356 2.69782 9.54356Z" fill="white"/>
<path d="M2.69795 14.258C2.16852 14.2589 1.65072 14.0992 1.21009 13.7991C0.769449 13.499 0.425776 13.0719 0.222557 12.572C0.0193379 12.0721 -0.0342927 11.5218 0.0684516 10.9907C0.171196 10.4596 0.425697 9.9716 0.79975 9.58847C1.1738 9.20533 1.65059 8.94427 2.16979 8.83831C2.68899 8.73236 3.22725 8.78628 3.71647 8.99325C4.20568 9.20022 4.62387 9.55094 4.9181 10.001C5.21233 10.4511 5.36938 10.9803 5.36938 11.5217C5.36703 12.2459 5.08496 12.9398 4.58461 13.4523C4.08426 13.9648 3.40614 14.2544 2.69795 14.258ZM2.69795 9.01419C2.21296 9.01419 1.73886 9.16125 1.33561 9.43678C0.93235 9.71231 0.61805 10.1039 0.432451 10.5621C0.246853 11.0203 0.198292 11.5245 0.292909 12.0109C0.387526 12.4973 0.621072 12.9441 0.964014 13.2948C1.30695 13.6455 1.74389 13.8843 2.21956 13.981C2.69523 14.0778 3.18828 14.0281 3.63636 13.8383C4.08443 13.6486 4.46741 13.3272 4.73685 12.9148C5.0063 12.5024 5.15012 12.0176 5.15012 11.5217C5.14893 10.857 4.8902 10.2199 4.43059 9.74996C3.97098 9.27997 3.34795 9.01539 2.69795 9.01419ZM2.69795 13.6143C2.2932 13.6143 1.89754 13.4916 1.56101 13.2617C1.22447 13.0317 0.96217 12.7049 0.807279 12.3225C0.652388 11.9401 0.611861 11.5194 0.690824 11.1134C0.769787 10.7075 0.964693 10.3346 1.25089 10.042C1.5371 9.74931 1.90174 9.55001 2.29871 9.46926C2.69568 9.38852 3.10716 9.42996 3.4811 9.58835C3.85504 9.74673 4.17465 10.015 4.39952 10.3591C4.62438 10.7032 4.74441 11.1078 4.74441 11.5217C4.74362 12.0765 4.52776 12.6083 4.14414 13.0005C3.76053 13.3928 3.24047 13.6135 2.69795 13.6143ZM2.69795 9.65784C2.33746 9.65784 1.98505 9.76715 1.68531 9.97196C1.38556 10.1768 1.15194 10.4679 1.01399 10.8084C0.876029 11.149 0.839933 11.5238 0.910263 11.8853C0.980593 12.2469 1.15419 12.579 1.4091 12.8396C1.66401 13.1003 1.98879 13.2778 2.34236 13.3497C2.69593 13.4217 3.06242 13.3848 3.39548 13.2437C3.72853 13.1026 4.0132 12.8637 4.21349 12.5572C4.41377 12.2507 4.52067 11.8903 4.52067 11.5217C4.52027 11.0275 4.32811 10.5537 3.98637 10.2042C3.64463 9.85474 3.18125 9.65825 2.69795 9.65784Z" fill="white"/>
<path d="M12.0924 7.02854L11.7891 7.59253L15.5021 9.68075L15.8055 9.11676L12.0924 7.02854Z" fill="white"/>
<path d="M15.5457 9.83478L11.6348 7.63689L12.0464 6.87427L15.9604 9.07063L15.5457 9.83478ZM11.942 7.5469L15.4577 9.52973L15.662 9.16062L12.1449 7.17779L11.942 7.5469Z" fill="white"/>
<path d="M12.7103 5.13646L12.4082 5.70288L16.0205 7.71768L16.3226 7.15126L12.7103 5.13646Z" fill="white"/>
<path d="M16.0597 7.94351L12.2666 5.80816L12.6783 5.04553L16.4714 7.18088L16.0597 7.94351ZM12.5709 5.71969L15.9717 7.62626L16.1671 7.26325L12.7663 5.35668L12.5709 5.71969Z" fill="white"/>
<path d="M10.2095 8.21037C9.70242 8.21037 9.20669 8.0566 8.78504 7.7685C8.36339 7.4804 8.03475 7.07091 7.84068 6.59182C7.64662 6.11273 7.59584 5.58555 7.69478 5.07695C7.79371 4.56835 8.03791 4.10117 8.3965 3.73449C8.75508 3.36781 9.21195 3.1181 9.70932 3.01693C10.2067 2.91577 10.7222 2.96769 11.1908 3.16613C11.6593 3.36458 12.0597 3.70064 12.3415 4.13181C12.6232 4.56298 12.7736 5.0699 12.7736 5.58846C12.7728 6.28359 12.5024 6.95001 12.0217 7.44154C11.541 7.93307 10.8893 8.20956 10.2095 8.21037ZM10.2095 3.61021C9.82603 3.61021 9.45113 3.7265 9.13226 3.94438C8.81338 4.16225 8.56485 4.47193 8.41808 4.83424C8.27132 5.19656 8.23292 5.59524 8.30774 5.97987C8.38256 6.3645 8.56724 6.7178 8.83842 6.99511C9.1096 7.27241 9.45511 7.46126 9.83125 7.53776C10.2074 7.61427 10.5973 7.57501 10.9516 7.42493C11.3059 7.27485 11.6087 7.02071 11.8218 6.69464C12.0349 6.36856 12.1486 5.9852 12.1486 5.59304C12.1486 5.06716 11.9443 4.56282 11.5807 4.19097C11.217 3.81911 10.7238 3.61021 10.2095 3.61021Z" fill="white"/>
<path d="M10.2101 8.32478C9.68084 8.32478 9.16348 8.16429 8.72343 7.86363C8.28338 7.56296 7.9404 7.13561 7.73787 6.63561C7.53534 6.13562 7.48235 5.58544 7.5856 5.05465C7.68885 4.52386 7.9437 4.0363 8.31793 3.65362C8.69216 3.27094 9.16897 3.01033 9.68804 2.90475C10.2071 2.79917 10.7451 2.85336 11.2341 3.06046C11.7231 3.26757 12.141 3.61829 12.435 4.06827C12.729 4.51825 12.886 5.04729 12.886 5.58848C12.8836 6.31344 12.6009 7.00803 12.0996 7.52067C11.5983 8.0333 10.919 8.32236 10.2101 8.32478ZM10.2101 3.08096C9.72509 3.08096 9.25099 3.22802 8.84773 3.50355C8.44448 3.77908 8.13018 4.1707 7.94458 4.62889C7.75898 5.08708 7.71042 5.59126 7.80504 6.07767C7.89965 6.56408 8.1332 7.01087 8.47614 7.36155C8.81908 7.71224 9.25601 7.95105 9.73169 8.04781C10.2074 8.14456 10.7004 8.0949 11.1485 7.90512C11.5966 7.71533 11.9795 7.39393 12.249 6.98158C12.5184 6.56922 12.6622 6.08441 12.6622 5.58848C12.6615 4.92369 12.4028 4.28636 11.9432 3.81629C11.4835 3.34621 10.8602 3.08177 10.2101 3.08096ZM10.2101 7.67959C9.80527 7.67959 9.40955 7.55682 9.07298 7.32681C8.73641 7.0968 8.47411 6.76989 8.31926 6.38742C8.16442 6.00495 8.12398 5.58411 8.20306 5.17813C8.28214 4.77216 8.4772 4.39929 8.76355 4.10669C9.0499 3.81409 9.41468 3.6149 9.81175 3.53433C10.2088 3.45376 10.6203 3.49541 10.9943 3.65404C11.3682 3.81266 11.6877 4.08111 11.9124 4.42545C12.1371 4.76978 12.2568 5.17452 12.2565 5.58848C12.2557 6.14309 12.0398 6.67474 11.6562 7.06677C11.2725 7.4588 10.7525 7.67919 10.2101 7.67959ZM10.2101 3.72462C9.84958 3.72462 9.49718 3.83393 9.19743 4.03873C8.89769 4.24354 8.66407 4.53463 8.52611 4.87521C8.38815 5.21578 8.35206 5.59054 8.42239 5.9521C8.49272 6.31365 8.66632 6.64576 8.92123 6.90642C9.17614 7.16709 9.50091 7.3446 9.85449 7.41652C10.2081 7.48844 10.5745 7.45153 10.9076 7.31046C11.2407 7.16938 11.5253 6.93049 11.7256 6.62398C11.9259 6.31747 12.0328 5.95711 12.0328 5.58848C12.0324 5.09427 11.8402 4.62043 11.4985 4.27098C11.1568 3.92152 10.6934 3.72502 10.2101 3.72462Z" fill="white"/>
<path d="M24.0284 4.63817L19.8105 8.40869L20.2248 8.89328L24.4427 5.12276L24.0284 4.63817Z" fill="white"/>
<path d="M20.2137 9.05384L19.6514 8.39798L24.0381 4.47656L24.5989 5.13395L20.2137 9.05384ZM19.9676 8.41934L20.2346 8.72439L24.2827 5.11107L24.0157 4.80602L19.9676 8.41934Z" fill="white"/>
<path d="M22.8678 3.13605L18.6982 6.8634L19.1125 7.348L23.2821 3.62064L22.8678 3.13605Z" fill="white"/>
<path d="M19.1024 7.50882L18.54 6.85143L22.8791 2.97424L23.4399 3.63163L19.1024 7.50882ZM18.8563 6.87279L19.1232 7.17784L23.1192 3.61027L22.8507 3.2976L18.8563 6.87279Z" fill="white"/>
<path d="M25.3242 5.35819C24.8173 5.35729 24.322 5.20275 23.9009 4.9141C23.4799 4.62545 23.1519 4.21565 22.9585 3.73648C22.7652 3.25731 22.715 2.73027 22.8145 2.22198C22.9139 1.71368 23.1585 1.24693 23.5172 0.880704C23.876 0.514482 24.3329 0.265223 24.8301 0.164427C25.3274 0.06363 25.8427 0.115819 26.3109 0.314399C26.7792 0.512978 27.1794 0.849037 27.4609 1.28011C27.7424 1.71118 27.8927 2.21792 27.8927 2.73628C27.8919 3.4322 27.6209 4.09932 27.1393 4.59098C26.6576 5.08264 26.0048 5.3586 25.3242 5.35819ZM25.3242 0.758033C24.9407 0.758033 24.5658 0.874324 24.2469 1.0922C23.928 1.31008 23.6795 1.61975 23.5327 1.98207C23.386 2.34438 23.3476 2.74306 23.4224 3.12769C23.4972 3.51232 23.6819 3.86563 23.9531 4.14293C24.2243 4.42023 24.5698 4.60908 24.9459 4.68559C25.3221 4.7621 25.7119 4.72283 26.0663 4.57275C26.4206 4.42268 26.7234 4.16853 26.9365 3.84246C27.1495 3.51639 27.2633 3.13303 27.2633 2.74086C27.2621 2.21577 27.0573 1.71261 26.6937 1.34175C26.3302 0.970884 25.8377 0.762608 25.3242 0.762609V0.758033Z" fill="white"/>
<path d="M25.3243 5.4726C24.7951 5.4726 24.2777 5.31212 23.8377 5.01145C23.3976 4.71078 23.0547 4.28343 22.8521 3.78344C22.6496 3.28345 22.5966 2.73327 22.6999 2.20248C22.8031 1.67169 23.058 1.18412 23.4322 0.801445C23.8064 0.418767 24.2832 0.158159 24.8023 0.0525785C25.3214 -0.0530023 25.8594 0.0011856 26.3484 0.20829C26.8373 0.415394 27.2552 0.766113 27.5493 1.21609C27.8433 1.66608 28.0002 2.19511 28.0002 2.7363C27.9979 3.46127 27.7152 4.15586 27.2139 4.66849C26.7126 5.18113 26.0333 5.47019 25.3243 5.4726ZM25.3243 0.228789C24.8393 0.228789 24.3652 0.375852 23.962 0.651381C23.5587 0.92691 23.2444 1.31853 23.0588 1.77672C22.8732 2.23491 22.8247 2.73908 22.9193 3.22549C23.0139 3.7119 23.2475 4.1587 23.5904 4.50938C23.9333 4.86006 24.3703 5.09888 24.8459 5.19563C25.3216 5.29239 25.8147 5.24273 26.2627 5.05294C26.7108 4.86315 27.0938 4.54176 27.3632 4.1294C27.6327 3.71704 27.7765 3.23224 27.7765 2.7363C27.7753 2.07164 27.5166 1.43455 27.057 0.964559C26.5974 0.494571 25.9743 0.229999 25.3243 0.228789ZM25.3243 4.82895C24.9196 4.82895 24.5239 4.70622 24.1874 4.47627C23.8509 4.24633 23.5886 3.9195 23.4337 3.53712C23.2788 3.15474 23.2382 2.73398 23.3172 2.32805C23.3962 1.92211 23.5911 1.54924 23.8773 1.25658C24.1635 0.963917 24.5281 0.764612 24.9251 0.683867C25.3221 0.603122 25.7335 0.644563 26.1075 0.80295C26.4814 0.961338 26.801 1.22956 27.0259 1.57369C27.2508 1.91782 27.3708 2.32242 27.3708 2.7363C27.3704 3.29118 27.1547 3.82322 26.771 4.21558C26.3873 4.60794 25.867 4.82854 25.3243 4.82895ZM25.3243 0.872445C24.9638 0.872445 24.6114 0.981758 24.3117 1.18656C24.012 1.39136 23.7783 1.68246 23.6404 2.02303C23.5024 2.36361 23.4663 2.73837 23.5366 3.09992C23.607 3.46148 23.7806 3.79358 24.0355 4.05425C24.2904 4.31491 24.6152 4.49243 24.9687 4.56435C25.3223 4.63626 25.6888 4.59935 26.0219 4.45828C26.3549 4.31721 26.6396 4.07832 26.8399 3.77181C27.0402 3.4653 27.1471 3.10494 27.1471 2.7363C27.1467 2.2421 26.9545 1.76826 26.6128 1.4188C26.271 1.06935 25.8076 0.872849 25.3243 0.872445Z" fill="white"/>
<path d="M17.7681 11.8435C17.261 11.8435 16.7653 11.6898 16.3436 11.4017C15.922 11.1136 15.5933 10.7041 15.3993 10.225C15.2052 9.74591 15.1544 9.21873 15.2534 8.71013C15.3523 8.20153 15.5965 7.73435 15.9551 7.36767C16.3137 7.00099 16.7705 6.75128 17.2679 6.65011C17.7653 6.54894 18.2808 6.60087 18.7493 6.79931C19.2179 6.99776 19.6183 7.33382 19.9 7.76499C20.1818 8.19616 20.3322 8.70308 20.3322 9.22164C20.3314 9.91676 20.061 10.5832 19.5803 11.0747C19.0996 11.5662 18.4479 11.8427 17.7681 11.8435ZM17.7681 7.24339C17.3846 7.24339 17.0097 7.35968 16.6909 7.57756C16.372 7.79543 16.1234 8.10511 15.9767 8.46742C15.8299 8.82973 15.7915 9.22841 15.8663 9.61305C15.9412 9.99768 16.1258 10.351 16.397 10.6283C16.6682 10.9056 17.0137 11.0944 17.3898 11.1709C17.766 11.2475 18.1559 11.2082 18.5102 11.0581C18.8645 10.908 19.1673 10.6539 19.3804 10.3278C19.5935 10.0017 19.7072 9.61838 19.7072 9.22622C19.7072 8.70034 19.5029 8.196 19.1393 7.82415C18.7756 7.45229 18.2824 7.24339 17.7681 7.24339Z" fill="white"/>
<path d="M17.6759 11.4726C17.1467 11.4726 16.6293 11.3121 16.1893 11.0115C15.7492 10.7108 15.4062 10.2834 15.2037 9.78344C15.0012 9.28345 14.9482 8.73327 15.0514 8.20248C15.1547 7.67169 15.4095 7.18412 15.7838 6.80145C16.158 6.41877 16.6348 6.15816 17.1539 6.05258C17.6729 5.947 18.211 6.00119 18.6999 6.20829C19.1889 6.41539 19.6068 6.76611 19.9008 7.21609C20.1949 7.66608 20.3518 8.19511 20.3518 8.7363C20.3494 9.46127 20.0668 10.1559 19.5654 10.6685C19.0641 11.1811 18.3849 11.4702 17.6759 11.4726ZM17.6759 6.22879C17.1909 6.22879 16.7168 6.37585 16.3136 6.65138C15.9103 6.92691 15.596 7.31853 15.4104 7.77672C15.2248 8.23491 15.1762 8.73908 15.2709 9.22549C15.3655 9.7119 15.599 10.1587 15.942 10.5094C16.2849 10.8601 16.7218 11.0989 17.1975 11.1956C17.6732 11.2924 18.1662 11.2427 18.6143 11.0529C19.0624 10.8632 19.4454 10.5418 19.7148 10.1294C19.9842 9.71704 20.1281 9.23224 20.1281 8.7363C20.1281 8.07099 19.8698 7.43288 19.41 6.96214C18.9502 6.49141 18.3265 6.22655 17.6759 6.22574V6.22879ZM17.6759 10.8289C17.2712 10.8289 16.8755 10.7062 16.539 10.4763C16.2024 10.2463 15.9401 9.9195 15.7852 9.53712C15.6303 9.15474 15.5898 8.73398 15.6688 8.32805C15.7477 7.92211 15.9426 7.54924 16.2288 7.25658C16.515 6.96392 16.8797 6.76461 17.2767 6.68387C17.6736 6.60312 18.0851 6.64456 18.459 6.80295C18.833 6.96134 19.1526 7.22956 19.3775 7.57369C19.6023 7.91782 19.7224 8.32242 19.7224 8.7363C19.722 9.29118 19.5062 9.82322 19.1225 10.2156C18.7388 10.6079 18.2185 10.8285 17.6759 10.8289ZM17.6759 6.87245C17.3154 6.87245 16.963 6.98176 16.6633 7.18656C16.3635 7.39137 16.1299 7.68246 15.9919 8.02303C15.854 8.36361 15.8179 8.73837 15.8882 9.09992C15.9585 9.46148 16.1321 9.79358 16.387 10.0542C16.642 10.3149 16.9667 10.4924 17.3203 10.5643C17.6739 10.6363 18.0404 10.5994 18.3734 10.4583C18.7065 10.3172 18.9912 10.0783 19.1914 9.77181C19.3917 9.4653 19.4986 9.10494 19.4986 8.7363C19.4978 8.24222 19.3055 7.76861 18.9639 7.41925C18.6222 7.06988 18.1591 6.87325 17.6759 6.87245Z" fill="white"/>
</svg>
